G04*
G04 #@! TF.GenerationSoftware,Altium Limited,Altium Designer,18.1.11 (251)*
G04*
G04 Layer_Color=16711935*
%FSLAX24Y24*%
%MOIN*%
G70*
G01*
G75*
%ADD60C,0.0474*%
%ADD61R,0.0474X0.0474*%
%ADD64R,0.0395X0.0434*%
%ADD66R,0.0789X0.0237*%
%ADD68C,0.0592*%
G04:AMPARAMS|DCode=69|XSize=71mil|YSize=71mil|CornerRadius=19.7mil|HoleSize=0mil|Usage=FLASHONLY|Rotation=270.000|XOffset=0mil|YOffset=0mil|HoleType=Round|Shape=RoundedRectangle|*
%AMROUNDEDRECTD69*
21,1,0.0710,0.0315,0,0,270.0*
21,1,0.0315,0.0710,0,0,270.0*
1,1,0.0395,-0.0157,-0.0157*
1,1,0.0395,-0.0157,0.0157*
1,1,0.0395,0.0157,0.0157*
1,1,0.0395,0.0157,-0.0157*
%
%ADD69ROUNDEDRECTD69*%
%ADD70C,0.0710*%
%ADD71C,0.0671*%
G04:AMPARAMS|DCode=72|XSize=67.1mil|YSize=67.1mil|CornerRadius=18.8mil|HoleSize=0mil|Usage=FLASHONLY|Rotation=0.000|XOffset=0mil|YOffset=0mil|HoleType=Round|Shape=RoundedRectangle|*
%AMROUNDEDRECTD72*
21,1,0.0671,0.0295,0,0,0.0*
21,1,0.0295,0.0671,0,0,0.0*
1,1,0.0375,0.0148,-0.0148*
1,1,0.0375,-0.0148,-0.0148*
1,1,0.0375,-0.0148,0.0148*
1,1,0.0375,0.0148,0.0148*
%
%ADD72ROUNDEDRECTD72*%
G04:AMPARAMS|DCode=73|XSize=67.1mil|YSize=67.1mil|CornerRadius=18.8mil|HoleSize=0mil|Usage=FLASHONLY|Rotation=90.000|XOffset=0mil|YOffset=0mil|HoleType=Round|Shape=RoundedRectangle|*
%AMROUNDEDRECTD73*
21,1,0.0671,0.0295,0,0,90.0*
21,1,0.0295,0.0671,0,0,90.0*
1,1,0.0375,0.0148,0.0148*
1,1,0.0375,0.0148,-0.0148*
1,1,0.0375,-0.0148,-0.0148*
1,1,0.0375,-0.0148,0.0148*
%
%ADD73ROUNDEDRECTD73*%
%ADD74C,0.0631*%
%ADD75C,0.0080*%
G04:AMPARAMS|DCode=76|XSize=71mil|YSize=71mil|CornerRadius=19.7mil|HoleSize=0mil|Usage=FLASHONLY|Rotation=180.000|XOffset=0mil|YOffset=0mil|HoleType=Round|Shape=RoundedRectangle|*
%AMROUNDEDRECTD76*
21,1,0.0710,0.0315,0,0,180.0*
21,1,0.0315,0.0710,0,0,180.0*
1,1,0.0395,-0.0157,0.0157*
1,1,0.0395,0.0157,0.0157*
1,1,0.0395,0.0157,-0.0157*
1,1,0.0395,-0.0157,-0.0157*
%
%ADD76ROUNDEDRECTD76*%
%ADD77O,0.0552X0.0671*%
%ADD78C,0.1497*%
%ADD79C,0.0946*%
G04:AMPARAMS|DCode=80|XSize=94.6mil|YSize=94.6mil|CornerRadius=25.7mil|HoleSize=0mil|Usage=FLASHONLY|Rotation=90.000|XOffset=0mil|YOffset=0mil|HoleType=Round|Shape=RoundedRectangle|*
%AMROUNDEDRECTD80*
21,1,0.0946,0.0433,0,0,90.0*
21,1,0.0433,0.0946,0,0,90.0*
1,1,0.0513,0.0217,0.0217*
1,1,0.0513,0.0217,-0.0217*
1,1,0.0513,-0.0217,-0.0217*
1,1,0.0513,-0.0217,0.0217*
%
%ADD80ROUNDEDRECTD80*%
%ADD81O,0.0336X0.0946*%
%ADD82R,0.0336X0.0946*%
%ADD83R,0.0592X0.0513*%
%ADD84R,0.0434X0.0395*%
%ADD85R,0.2324X0.0710*%
%ADD86R,0.0671X0.0592*%
%ADD87R,0.0474X0.0749*%
%ADD88O,0.0789X0.0237*%
%ADD89R,0.0552X0.0316*%
%ADD90R,0.0552X0.0474*%
%ADD91O,0.0324X0.0781*%
%ADD92R,0.0324X0.0781*%
%ADD93R,0.0474X0.0474*%
%ADD94R,0.0474X0.0552*%
%ADD95R,0.1458X0.0946*%
%ADD96R,0.0867X0.0513*%
%ADD97R,0.0749X0.0474*%
%ADD98R,0.1458X0.0710*%
D60*
X59055Y59055D02*
D03*
X24291Y27913D02*
D03*
X53032D02*
D03*
X24291Y56654D02*
D03*
X53032D02*
D03*
D61*
X-1575Y-1575D02*
D03*
X984Y4528D02*
D03*
X26614Y21378D02*
D03*
Y22165D02*
D03*
X28110Y22873D02*
D03*
Y23661D02*
D03*
Y21378D02*
D03*
Y22165D02*
D03*
X29724Y4528D02*
D03*
X55354Y21378D02*
D03*
Y22165D02*
D03*
X56850Y22873D02*
D03*
Y23661D02*
D03*
Y21378D02*
D03*
Y22165D02*
D03*
X984Y33268D02*
D03*
X26614Y50118D02*
D03*
Y50906D02*
D03*
X28110Y51613D02*
D03*
Y52401D02*
D03*
Y50118D02*
D03*
Y50906D02*
D03*
X29724Y33268D02*
D03*
X55354Y50118D02*
D03*
Y50906D02*
D03*
X56850Y51613D02*
D03*
Y52401D02*
D03*
Y50118D02*
D03*
Y50906D02*
D03*
D64*
X4764Y18839D02*
D03*
X4134D02*
D03*
X4764Y18248D02*
D03*
X4134D02*
D03*
X21801Y11240D02*
D03*
X21171D02*
D03*
X11496Y19783D02*
D03*
X12126D02*
D03*
X3268Y17067D02*
D03*
X2638D02*
D03*
X3268Y17657D02*
D03*
X2638D02*
D03*
X4754Y16860D02*
D03*
X4124D02*
D03*
X4764Y17520D02*
D03*
X4134D02*
D03*
X6880Y27441D02*
D03*
X6250D02*
D03*
X6890Y28031D02*
D03*
X6260D02*
D03*
X25157Y24310D02*
D03*
X25787D02*
D03*
X27520D02*
D03*
X28150D02*
D03*
X26339D02*
D03*
X26969D02*
D03*
X28150Y20728D02*
D03*
X27520D02*
D03*
X26969D02*
D03*
X26339D02*
D03*
X25157Y20728D02*
D03*
X25787D02*
D03*
X20620Y11240D02*
D03*
X19990D02*
D03*
X14685Y4134D02*
D03*
X14055D02*
D03*
X24360Y14134D02*
D03*
X23730D02*
D03*
X23346Y18110D02*
D03*
X22717D02*
D03*
X23346Y17520D02*
D03*
X22717D02*
D03*
X24528Y18110D02*
D03*
X23898D02*
D03*
X20620Y13169D02*
D03*
X19990D02*
D03*
X4833Y9104D02*
D03*
X4203D02*
D03*
X12126Y19193D02*
D03*
X11496Y19193D02*
D03*
X14055Y24528D02*
D03*
X14685D02*
D03*
X18622Y7087D02*
D03*
X17992D02*
D03*
X16024Y9646D02*
D03*
X16654D02*
D03*
X2638Y19429D02*
D03*
X3268D02*
D03*
X10354Y19783D02*
D03*
X9724Y19783D02*
D03*
X13504Y10630D02*
D03*
X12874D02*
D03*
X13504Y10039D02*
D03*
X12874D02*
D03*
X2825Y5955D02*
D03*
X3455D02*
D03*
X12559Y8425D02*
D03*
X13189D02*
D03*
X33504Y18839D02*
D03*
X32874D02*
D03*
X33504Y18248D02*
D03*
X32874D02*
D03*
X50541Y11240D02*
D03*
X49911D02*
D03*
X40236Y19783D02*
D03*
X40866D02*
D03*
X32008Y17067D02*
D03*
X31378D02*
D03*
X32008Y17657D02*
D03*
X31378D02*
D03*
X33494Y16860D02*
D03*
X32864D02*
D03*
X33504Y17520D02*
D03*
X32874D02*
D03*
X35620Y27441D02*
D03*
X34990D02*
D03*
X35630Y28031D02*
D03*
X35000D02*
D03*
X53898Y24310D02*
D03*
X54528D02*
D03*
X56260D02*
D03*
X56890D02*
D03*
X55079D02*
D03*
X55709D02*
D03*
X56890Y20728D02*
D03*
X56260D02*
D03*
X55709D02*
D03*
X55079D02*
D03*
X53898Y20728D02*
D03*
X54528D02*
D03*
X49360Y11240D02*
D03*
X48730D02*
D03*
X43425Y4134D02*
D03*
X42795D02*
D03*
X53100Y14134D02*
D03*
X52470D02*
D03*
X52087Y18110D02*
D03*
X51457D02*
D03*
X52087Y17520D02*
D03*
X51457D02*
D03*
X53268Y18110D02*
D03*
X52638D02*
D03*
X49360Y13169D02*
D03*
X48730D02*
D03*
X33573Y9104D02*
D03*
X32943D02*
D03*
X40866Y19193D02*
D03*
X40236Y19193D02*
D03*
X42795Y24528D02*
D03*
X43425D02*
D03*
X47362Y7087D02*
D03*
X46732D02*
D03*
X44764Y9646D02*
D03*
X45394D02*
D03*
X31378Y19429D02*
D03*
X32008D02*
D03*
X39094Y19783D02*
D03*
X38465Y19783D02*
D03*
X42244Y10630D02*
D03*
X41614D02*
D03*
X42244Y10039D02*
D03*
X41614D02*
D03*
X31565Y5955D02*
D03*
X32195D02*
D03*
X41299Y8425D02*
D03*
X41929D02*
D03*
X4764Y47579D02*
D03*
X4134D02*
D03*
X4764Y46988D02*
D03*
X4134D02*
D03*
X21801Y39980D02*
D03*
X21171D02*
D03*
X11496Y48524D02*
D03*
X12126D02*
D03*
X3268Y45807D02*
D03*
X2638D02*
D03*
X3268Y46398D02*
D03*
X2638D02*
D03*
X4754Y45600D02*
D03*
X4124D02*
D03*
X4764Y46260D02*
D03*
X4134D02*
D03*
X6880Y56181D02*
D03*
X6250D02*
D03*
X6890Y56772D02*
D03*
X6260D02*
D03*
X25157Y53050D02*
D03*
X25787D02*
D03*
X27520D02*
D03*
X28150D02*
D03*
X26339D02*
D03*
X26969D02*
D03*
X28150Y49468D02*
D03*
X27520D02*
D03*
X26969D02*
D03*
X26339D02*
D03*
X25157Y49468D02*
D03*
X25787D02*
D03*
X20620Y39980D02*
D03*
X19990D02*
D03*
X14685Y32874D02*
D03*
X14055D02*
D03*
X24360Y42874D02*
D03*
X23730D02*
D03*
X23346Y46850D02*
D03*
X22717D02*
D03*
X23346Y46260D02*
D03*
X22717D02*
D03*
X24528Y46850D02*
D03*
X23898D02*
D03*
X20620Y41909D02*
D03*
X19990D02*
D03*
X4833Y37844D02*
D03*
X4203D02*
D03*
X12126Y47933D02*
D03*
X11496Y47933D02*
D03*
X14055Y53268D02*
D03*
X14685D02*
D03*
X18622Y35827D02*
D03*
X17992D02*
D03*
X16024Y38386D02*
D03*
X16654D02*
D03*
X2638Y48169D02*
D03*
X3268D02*
D03*
X10354Y48524D02*
D03*
X9724Y48524D02*
D03*
X13504Y39370D02*
D03*
X12874D02*
D03*
X13504Y38780D02*
D03*
X12874D02*
D03*
X2825Y34695D02*
D03*
X3455D02*
D03*
X12559Y37165D02*
D03*
X13189D02*
D03*
X33504Y47579D02*
D03*
X32874D02*
D03*
X33504Y46988D02*
D03*
X32874D02*
D03*
X50541Y39980D02*
D03*
X49911D02*
D03*
X40236Y48524D02*
D03*
X40866D02*
D03*
X32008Y45807D02*
D03*
X31378D02*
D03*
X32008Y46398D02*
D03*
X31378D02*
D03*
X33494Y45600D02*
D03*
X32864D02*
D03*
X33504Y46260D02*
D03*
X32874D02*
D03*
X35620Y56181D02*
D03*
X34990D02*
D03*
X35630Y56772D02*
D03*
X35000D02*
D03*
X53898Y53050D02*
D03*
X54528D02*
D03*
X56260D02*
D03*
X56890D02*
D03*
X55079D02*
D03*
X55709D02*
D03*
X56890Y49468D02*
D03*
X56260D02*
D03*
X55709D02*
D03*
X55079D02*
D03*
X53898Y49468D02*
D03*
X54528D02*
D03*
X49360Y39980D02*
D03*
X48730D02*
D03*
X43425Y32874D02*
D03*
X42795D02*
D03*
X53100Y42874D02*
D03*
X52470D02*
D03*
X52087Y46850D02*
D03*
X51457D02*
D03*
X52087Y46260D02*
D03*
X51457D02*
D03*
X53268Y46850D02*
D03*
X52638D02*
D03*
X49360Y41909D02*
D03*
X48730D02*
D03*
X33573Y37844D02*
D03*
X32943D02*
D03*
X40866Y47933D02*
D03*
X40236Y47933D02*
D03*
X42795Y53268D02*
D03*
X43425D02*
D03*
X47362Y35827D02*
D03*
X46732D02*
D03*
X44764Y38386D02*
D03*
X45394D02*
D03*
X31378Y48169D02*
D03*
X32008D02*
D03*
X39094Y48524D02*
D03*
X38465Y48524D02*
D03*
X42244Y39370D02*
D03*
X41614D02*
D03*
X42244Y38780D02*
D03*
X41614D02*
D03*
X31565Y34695D02*
D03*
X32195D02*
D03*
X41299Y37165D02*
D03*
X41929D02*
D03*
D66*
X8268Y19567D02*
D03*
X37008D02*
D03*
X8268Y48307D02*
D03*
X37008D02*
D03*
D68*
X24729Y26138D02*
D03*
X23337Y27530D02*
D03*
X53469Y26138D02*
D03*
X52077Y27530D02*
D03*
X24729Y54878D02*
D03*
X23337Y56270D02*
D03*
X53469Y54878D02*
D03*
X52077Y56270D02*
D03*
D69*
X2659Y15919D02*
D03*
X1878Y23531D02*
D03*
X7386Y2087D02*
D03*
X16850Y5085D02*
D03*
X31400Y15919D02*
D03*
X30618Y23531D02*
D03*
X36126Y2087D02*
D03*
X45591Y5085D02*
D03*
X2659Y44659D02*
D03*
X1878Y52272D02*
D03*
X7386Y30827D02*
D03*
X16850Y33825D02*
D03*
X31400Y44659D02*
D03*
X30618Y52272D02*
D03*
X36126Y30827D02*
D03*
X45591Y33825D02*
D03*
D70*
X3659Y15919D02*
D03*
X2659Y14919D02*
D03*
X3659D02*
D03*
X2659Y13919D02*
D03*
X3659D02*
D03*
X2659Y12919D02*
D03*
X3659D02*
D03*
X878Y22531D02*
D03*
X1878D02*
D03*
X878Y23531D02*
D03*
X22925Y787D02*
D03*
X4815D02*
D03*
X8386Y5087D02*
D03*
X7386D02*
D03*
X8386Y4087D02*
D03*
X7386D02*
D03*
X8386Y3087D02*
D03*
X7386D02*
D03*
X8386Y2087D02*
D03*
X16850Y2085D02*
D03*
Y3085D02*
D03*
Y4085D02*
D03*
X32400Y15919D02*
D03*
X31400Y14919D02*
D03*
X32400D02*
D03*
X31400Y13919D02*
D03*
X32400D02*
D03*
X31400Y12919D02*
D03*
X32400D02*
D03*
X29618Y22531D02*
D03*
X30618D02*
D03*
X29618Y23531D02*
D03*
X51665Y787D02*
D03*
X33555D02*
D03*
X37126Y5087D02*
D03*
X36126D02*
D03*
X37126Y4087D02*
D03*
X36126D02*
D03*
X37126Y3087D02*
D03*
X36126D02*
D03*
X37126Y2087D02*
D03*
X45591Y2085D02*
D03*
Y3085D02*
D03*
Y4085D02*
D03*
X3659Y44659D02*
D03*
X2659Y43659D02*
D03*
X3659D02*
D03*
X2659Y42659D02*
D03*
X3659D02*
D03*
X2659Y41659D02*
D03*
X3659D02*
D03*
X878Y51272D02*
D03*
X1878D02*
D03*
X878Y52272D02*
D03*
X22925Y29528D02*
D03*
X4815D02*
D03*
X8386Y33827D02*
D03*
X7386D02*
D03*
X8386Y32827D02*
D03*
X7386D02*
D03*
X8386Y31827D02*
D03*
X7386D02*
D03*
X8386Y30827D02*
D03*
X16850Y30825D02*
D03*
Y31825D02*
D03*
Y32825D02*
D03*
X32400Y44659D02*
D03*
X31400Y43659D02*
D03*
X32400D02*
D03*
X31400Y42659D02*
D03*
X32400D02*
D03*
X31400Y41659D02*
D03*
X32400D02*
D03*
X29618Y51272D02*
D03*
X30618D02*
D03*
X29618Y52272D02*
D03*
X51665Y29528D02*
D03*
X33555D02*
D03*
X37126Y33827D02*
D03*
X36126D02*
D03*
X37126Y32827D02*
D03*
X36126D02*
D03*
X37126Y31827D02*
D03*
X36126D02*
D03*
X37126Y30827D02*
D03*
X45591Y30825D02*
D03*
Y31825D02*
D03*
Y32825D02*
D03*
D71*
X5372Y7726D02*
D03*
X6372D02*
D03*
X3372D02*
D03*
X4372D02*
D03*
X7372D02*
D03*
X8372D02*
D03*
X9372D02*
D03*
X10372D02*
D03*
X11372D02*
D03*
X12372D02*
D03*
X13372D02*
D03*
Y6726D02*
D03*
X12372D02*
D03*
X11372D02*
D03*
X10372D02*
D03*
X9372D02*
D03*
X8372D02*
D03*
X7372D02*
D03*
X2372D02*
D03*
X4372D02*
D03*
X3372D02*
D03*
X6372D02*
D03*
X5372D02*
D03*
Y21518D02*
D03*
X6372D02*
D03*
X3372D02*
D03*
X4372D02*
D03*
X7372D02*
D03*
X10372D02*
D03*
X11372D02*
D03*
X8372D02*
D03*
X9372D02*
D03*
X2372Y20518D02*
D03*
X9372D02*
D03*
X8372D02*
D03*
X11372D02*
D03*
X10372D02*
D03*
X7372D02*
D03*
X4372D02*
D03*
X3372D02*
D03*
X6372D02*
D03*
X5372D02*
D03*
X12372Y21518D02*
D03*
Y20518D02*
D03*
X13372D02*
D03*
Y21518D02*
D03*
X15236Y12622D02*
D03*
Y13622D02*
D03*
Y10622D02*
D03*
Y11622D02*
D03*
Y9622D02*
D03*
Y14622D02*
D03*
Y15622D02*
D03*
Y16622D02*
D03*
Y17622D02*
D03*
Y18622D02*
D03*
X14236Y12622D02*
D03*
Y13622D02*
D03*
Y10622D02*
D03*
Y11622D02*
D03*
Y14622D02*
D03*
Y15622D02*
D03*
Y16622D02*
D03*
Y17622D02*
D03*
Y18622D02*
D03*
X13770Y27352D02*
D03*
X10644Y18370D02*
D03*
Y17370D02*
D03*
Y16370D02*
D03*
Y15370D02*
D03*
Y14370D02*
D03*
Y13370D02*
D03*
Y12370D02*
D03*
Y11370D02*
D03*
X12970Y27352D02*
D03*
X13372Y26352D02*
D03*
X14569Y27352D02*
D03*
X15368D02*
D03*
X17071Y25404D02*
D03*
X16169D02*
D03*
X11669D02*
D03*
X12571D02*
D03*
X11573Y5083D02*
D03*
X10573D02*
D03*
X11573Y4083D02*
D03*
X10573D02*
D03*
X11573Y3083D02*
D03*
X10573D02*
D03*
X11573Y2083D02*
D03*
X4478Y23020D02*
D03*
X5478D02*
D03*
X4478Y24020D02*
D03*
X5478D02*
D03*
X4478Y25020D02*
D03*
X5478D02*
D03*
X4478Y26020D02*
D03*
X5478D02*
D03*
X4478Y27020D02*
D03*
X5478D02*
D03*
X4478Y28020D02*
D03*
X34112Y7726D02*
D03*
X35112D02*
D03*
X32112D02*
D03*
X33112D02*
D03*
X36112D02*
D03*
X37112D02*
D03*
X38112D02*
D03*
X39112D02*
D03*
X40112D02*
D03*
X41112D02*
D03*
X42112D02*
D03*
Y6726D02*
D03*
X41112D02*
D03*
X40112D02*
D03*
X39112D02*
D03*
X38112D02*
D03*
X37112D02*
D03*
X36112D02*
D03*
X31112D02*
D03*
X33112D02*
D03*
X32112D02*
D03*
X35112D02*
D03*
X34112D02*
D03*
Y21518D02*
D03*
X35112D02*
D03*
X32112D02*
D03*
X33112D02*
D03*
X36112D02*
D03*
X39112D02*
D03*
X40112D02*
D03*
X37112D02*
D03*
X38112D02*
D03*
X31112Y20518D02*
D03*
X38112D02*
D03*
X37112D02*
D03*
X40112D02*
D03*
X39112D02*
D03*
X36112D02*
D03*
X33112D02*
D03*
X32112D02*
D03*
X35112D02*
D03*
X34112D02*
D03*
X41112Y21518D02*
D03*
Y20518D02*
D03*
X42112D02*
D03*
Y21518D02*
D03*
X43976Y12622D02*
D03*
Y13622D02*
D03*
Y10622D02*
D03*
Y11622D02*
D03*
Y9622D02*
D03*
Y14622D02*
D03*
Y15622D02*
D03*
Y16622D02*
D03*
Y17622D02*
D03*
Y18622D02*
D03*
X42976Y12622D02*
D03*
Y13622D02*
D03*
Y10622D02*
D03*
Y11622D02*
D03*
Y14622D02*
D03*
Y15622D02*
D03*
Y16622D02*
D03*
Y17622D02*
D03*
Y18622D02*
D03*
X42510Y27352D02*
D03*
X39384Y18370D02*
D03*
Y17370D02*
D03*
Y16370D02*
D03*
Y15370D02*
D03*
Y14370D02*
D03*
Y13370D02*
D03*
Y12370D02*
D03*
Y11370D02*
D03*
X41711Y27352D02*
D03*
X42112Y26352D02*
D03*
X43309Y27352D02*
D03*
X44108D02*
D03*
X45811Y25404D02*
D03*
X44909D02*
D03*
X40409D02*
D03*
X41311D02*
D03*
X40313Y5083D02*
D03*
X39313D02*
D03*
X40313Y4083D02*
D03*
X39313D02*
D03*
X40313Y3083D02*
D03*
X39313D02*
D03*
X40313Y2083D02*
D03*
X33219Y23020D02*
D03*
X34219D02*
D03*
X33219Y24020D02*
D03*
X34219D02*
D03*
X33219Y25020D02*
D03*
X34219D02*
D03*
X33219Y26020D02*
D03*
X34219D02*
D03*
X33219Y27020D02*
D03*
X34219D02*
D03*
X33219Y28020D02*
D03*
X5372Y36467D02*
D03*
X6372D02*
D03*
X3372D02*
D03*
X4372D02*
D03*
X7372D02*
D03*
X8372D02*
D03*
X9372D02*
D03*
X10372D02*
D03*
X11372D02*
D03*
X12372D02*
D03*
X13372D02*
D03*
Y35467D02*
D03*
X12372D02*
D03*
X11372D02*
D03*
X10372D02*
D03*
X9372D02*
D03*
X8372D02*
D03*
X7372D02*
D03*
X2372D02*
D03*
X4372D02*
D03*
X3372D02*
D03*
X6372D02*
D03*
X5372D02*
D03*
Y50258D02*
D03*
X6372D02*
D03*
X3372D02*
D03*
X4372D02*
D03*
X7372D02*
D03*
X10372D02*
D03*
X11372D02*
D03*
X8372D02*
D03*
X9372D02*
D03*
X2372Y49258D02*
D03*
X9372D02*
D03*
X8372D02*
D03*
X11372D02*
D03*
X10372D02*
D03*
X7372D02*
D03*
X4372D02*
D03*
X3372D02*
D03*
X6372D02*
D03*
X5372D02*
D03*
X12372Y50258D02*
D03*
Y49258D02*
D03*
X13372D02*
D03*
Y50258D02*
D03*
X15236Y41362D02*
D03*
Y42362D02*
D03*
Y39362D02*
D03*
Y40362D02*
D03*
Y38362D02*
D03*
Y43362D02*
D03*
Y44362D02*
D03*
Y45362D02*
D03*
Y46362D02*
D03*
Y47362D02*
D03*
X14236Y41362D02*
D03*
Y42362D02*
D03*
Y39362D02*
D03*
Y40362D02*
D03*
Y43362D02*
D03*
Y44362D02*
D03*
Y45362D02*
D03*
Y46362D02*
D03*
Y47362D02*
D03*
X13770Y56093D02*
D03*
X10644Y47110D02*
D03*
Y46110D02*
D03*
Y45110D02*
D03*
Y44110D02*
D03*
Y43110D02*
D03*
Y42110D02*
D03*
Y41110D02*
D03*
Y40110D02*
D03*
X12970Y56093D02*
D03*
X13372Y55093D02*
D03*
X14569Y56093D02*
D03*
X15368D02*
D03*
X17071Y54144D02*
D03*
X16169D02*
D03*
X11669D02*
D03*
X12571D02*
D03*
X11573Y33823D02*
D03*
X10573D02*
D03*
X11573Y32823D02*
D03*
X10573D02*
D03*
X11573Y31823D02*
D03*
X10573D02*
D03*
X11573Y30823D02*
D03*
X4478Y51760D02*
D03*
X5478D02*
D03*
X4478Y52760D02*
D03*
X5478D02*
D03*
X4478Y53760D02*
D03*
X5478D02*
D03*
X4478Y54760D02*
D03*
X5478D02*
D03*
X4478Y55760D02*
D03*
X5478D02*
D03*
X4478Y56760D02*
D03*
X34112Y36467D02*
D03*
X35112D02*
D03*
X32112D02*
D03*
X33112D02*
D03*
X36112D02*
D03*
X37112D02*
D03*
X38112D02*
D03*
X39112D02*
D03*
X40112D02*
D03*
X41112D02*
D03*
X42112D02*
D03*
Y35467D02*
D03*
X41112D02*
D03*
X40112D02*
D03*
X39112D02*
D03*
X38112D02*
D03*
X37112D02*
D03*
X36112D02*
D03*
X31112D02*
D03*
X33112D02*
D03*
X32112D02*
D03*
X35112D02*
D03*
X34112D02*
D03*
Y50258D02*
D03*
X35112D02*
D03*
X32112D02*
D03*
X33112D02*
D03*
X36112D02*
D03*
X39112D02*
D03*
X40112D02*
D03*
X37112D02*
D03*
X38112D02*
D03*
X31112Y49258D02*
D03*
X38112D02*
D03*
X37112D02*
D03*
X40112D02*
D03*
X39112D02*
D03*
X36112D02*
D03*
X33112D02*
D03*
X32112D02*
D03*
X35112D02*
D03*
X34112D02*
D03*
X41112Y50258D02*
D03*
Y49258D02*
D03*
X42112D02*
D03*
Y50258D02*
D03*
X43976Y41362D02*
D03*
Y42362D02*
D03*
Y39362D02*
D03*
Y40362D02*
D03*
Y38362D02*
D03*
Y43362D02*
D03*
Y44362D02*
D03*
Y45362D02*
D03*
Y46362D02*
D03*
Y47362D02*
D03*
X42976Y41362D02*
D03*
Y42362D02*
D03*
Y39362D02*
D03*
Y40362D02*
D03*
Y43362D02*
D03*
Y44362D02*
D03*
Y45362D02*
D03*
Y46362D02*
D03*
Y47362D02*
D03*
X42510Y56093D02*
D03*
X39384Y47110D02*
D03*
Y46110D02*
D03*
Y45110D02*
D03*
Y44110D02*
D03*
Y43110D02*
D03*
Y42110D02*
D03*
Y41110D02*
D03*
Y40110D02*
D03*
X41711Y56093D02*
D03*
X42112Y55093D02*
D03*
X43309Y56093D02*
D03*
X44108D02*
D03*
X45811Y54144D02*
D03*
X44909D02*
D03*
X40409D02*
D03*
X41311D02*
D03*
X40313Y33823D02*
D03*
X39313D02*
D03*
X40313Y32823D02*
D03*
X39313D02*
D03*
X40313Y31823D02*
D03*
X39313D02*
D03*
X40313Y30823D02*
D03*
X33219Y51760D02*
D03*
X34219D02*
D03*
X33219Y52760D02*
D03*
X34219D02*
D03*
X33219Y53760D02*
D03*
X34219D02*
D03*
X33219Y54760D02*
D03*
X34219D02*
D03*
X33219Y55760D02*
D03*
X34219D02*
D03*
X33219Y56760D02*
D03*
D72*
X2372Y7726D02*
D03*
Y21518D02*
D03*
X31112Y7726D02*
D03*
Y21518D02*
D03*
X2372Y36467D02*
D03*
Y50258D02*
D03*
X31112Y36467D02*
D03*
Y50258D02*
D03*
D73*
X14236Y9622D02*
D03*
X10644Y10370D02*
D03*
X10573Y2083D02*
D03*
X5478Y28020D02*
D03*
X42976Y9622D02*
D03*
X39384Y10370D02*
D03*
X39313Y2083D02*
D03*
X34219Y28020D02*
D03*
X14236Y38362D02*
D03*
X10644Y39110D02*
D03*
X10573Y30823D02*
D03*
X5478Y56760D02*
D03*
X42976Y38362D02*
D03*
X39384Y39110D02*
D03*
X39313Y30823D02*
D03*
X34219Y56760D02*
D03*
D74*
X7579Y866D02*
D03*
X8563D02*
D03*
X21161D02*
D03*
X20177D02*
D03*
X36319D02*
D03*
X37303D02*
D03*
X49902D02*
D03*
X48917D02*
D03*
X7579Y29606D02*
D03*
X8563D02*
D03*
X21161D02*
D03*
X20177D02*
D03*
X36319D02*
D03*
X37303D02*
D03*
X49902D02*
D03*
X48917D02*
D03*
D75*
X1427Y18022D02*
D03*
Y16447D02*
D03*
X30167Y18022D02*
D03*
Y16447D02*
D03*
X1427Y46762D02*
D03*
Y45187D02*
D03*
X30167Y46762D02*
D03*
Y45187D02*
D03*
D76*
X23925Y787D02*
D03*
X5815D02*
D03*
X52665D02*
D03*
X34555D02*
D03*
X23925Y29528D02*
D03*
X5815D02*
D03*
X52665D02*
D03*
X34555D02*
D03*
D77*
X14171Y26352D02*
D03*
X14970D02*
D03*
X15770D02*
D03*
X42911D02*
D03*
X43711D02*
D03*
X44510D02*
D03*
X14171Y55093D02*
D03*
X14970D02*
D03*
X15770D02*
D03*
X42911D02*
D03*
X43711D02*
D03*
X44510D02*
D03*
D78*
X11870Y27703D02*
D03*
X16870D02*
D03*
X40610D02*
D03*
X45610D02*
D03*
X11870Y56443D02*
D03*
X16870D02*
D03*
X40610D02*
D03*
X45610D02*
D03*
D79*
X8169Y26378D02*
D03*
X36909D02*
D03*
X8169Y55118D02*
D03*
X36909D02*
D03*
D80*
X9547Y26378D02*
D03*
X38287D02*
D03*
X9547Y55118D02*
D03*
X38287D02*
D03*
D81*
X18951Y20827D02*
D03*
X1650Y10000D02*
D03*
Y12047D02*
D03*
X2650Y10000D02*
D03*
X2150Y10000D02*
D03*
Y12047D02*
D03*
X2650D02*
D03*
X4650D02*
D03*
X4150D02*
D03*
X3650D02*
D03*
X3150D02*
D03*
Y10000D02*
D03*
X3650Y10000D02*
D03*
X4150Y10000D02*
D03*
X20988Y10079D02*
D03*
Y8031D02*
D03*
X19988Y10079D02*
D03*
X20488D02*
D03*
Y8031D02*
D03*
X19988D02*
D03*
X17988D02*
D03*
X18488D02*
D03*
X18988Y8031D02*
D03*
X19488Y8031D02*
D03*
Y10079D02*
D03*
X18988D02*
D03*
X18488Y10079D02*
D03*
X24856Y15118D02*
D03*
X24356D02*
D03*
X23856D02*
D03*
Y17165D02*
D03*
X24356D02*
D03*
X24856D02*
D03*
X25356D02*
D03*
X19451Y22874D02*
D03*
X18951D02*
D03*
X18451D02*
D03*
X17951D02*
D03*
Y20827D02*
D03*
X18451D02*
D03*
X47691D02*
D03*
X30390Y10000D02*
D03*
Y12047D02*
D03*
X31390Y10000D02*
D03*
X30890Y10000D02*
D03*
Y12047D02*
D03*
X31390D02*
D03*
X33390D02*
D03*
X32890D02*
D03*
X32390D02*
D03*
X31890D02*
D03*
Y10000D02*
D03*
X32390Y10000D02*
D03*
X32890Y10000D02*
D03*
X49728Y10079D02*
D03*
Y8031D02*
D03*
X48728Y10079D02*
D03*
X49228D02*
D03*
Y8031D02*
D03*
X48728D02*
D03*
X46728D02*
D03*
X47228D02*
D03*
X47728Y8031D02*
D03*
X48228Y8031D02*
D03*
Y10079D02*
D03*
X47728D02*
D03*
X47228Y10079D02*
D03*
X53596Y15118D02*
D03*
X53096D02*
D03*
X52596D02*
D03*
Y17165D02*
D03*
X53096D02*
D03*
X53596D02*
D03*
X54096D02*
D03*
X48191Y22874D02*
D03*
X47691D02*
D03*
X47191D02*
D03*
X46691D02*
D03*
Y20827D02*
D03*
X47191D02*
D03*
X18951Y49567D02*
D03*
X1650Y38740D02*
D03*
Y40787D02*
D03*
X2650Y38740D02*
D03*
X2150Y38740D02*
D03*
Y40787D02*
D03*
X2650D02*
D03*
X4650D02*
D03*
X4150D02*
D03*
X3650D02*
D03*
X3150D02*
D03*
Y38740D02*
D03*
X3650Y38740D02*
D03*
X4150Y38740D02*
D03*
X20988Y38819D02*
D03*
Y36772D02*
D03*
X19988Y38819D02*
D03*
X20488D02*
D03*
Y36772D02*
D03*
X19988D02*
D03*
X17988D02*
D03*
X18488D02*
D03*
X18988Y36772D02*
D03*
X19488Y36772D02*
D03*
Y38819D02*
D03*
X18988D02*
D03*
X18488Y38819D02*
D03*
X24856Y43858D02*
D03*
X24356D02*
D03*
X23856D02*
D03*
Y45906D02*
D03*
X24356D02*
D03*
X24856D02*
D03*
X25356D02*
D03*
X19451Y51614D02*
D03*
X18951D02*
D03*
X18451D02*
D03*
X17951D02*
D03*
Y49567D02*
D03*
X18451D02*
D03*
X47691D02*
D03*
X30390Y38740D02*
D03*
Y40787D02*
D03*
X31390Y38740D02*
D03*
X30890Y38740D02*
D03*
Y40787D02*
D03*
X31390D02*
D03*
X33390D02*
D03*
X32890D02*
D03*
X32390D02*
D03*
X31890D02*
D03*
Y38740D02*
D03*
X32390Y38740D02*
D03*
X32890Y38740D02*
D03*
X49728Y38819D02*
D03*
Y36772D02*
D03*
X48728Y38819D02*
D03*
X49228D02*
D03*
Y36772D02*
D03*
X48728D02*
D03*
X46728D02*
D03*
X47228D02*
D03*
X47728Y36772D02*
D03*
X48228Y36772D02*
D03*
Y38819D02*
D03*
X47728D02*
D03*
X47228Y38819D02*
D03*
X53596Y43858D02*
D03*
X53096D02*
D03*
X52596D02*
D03*
Y45906D02*
D03*
X53096D02*
D03*
X53596D02*
D03*
X54096D02*
D03*
X48191Y51614D02*
D03*
X47691D02*
D03*
X47191D02*
D03*
X46691D02*
D03*
Y49567D02*
D03*
X47191D02*
D03*
D82*
X19451Y20827D02*
D03*
X4650Y10000D02*
D03*
X17988Y10079D02*
D03*
X25356Y15118D02*
D03*
X48191Y20827D02*
D03*
X33390Y10000D02*
D03*
X46728Y10079D02*
D03*
X54096Y15118D02*
D03*
X19451Y49567D02*
D03*
X4650Y38740D02*
D03*
X17988Y38819D02*
D03*
X25356Y43858D02*
D03*
X48191Y49567D02*
D03*
X33390Y38740D02*
D03*
X46728Y38819D02*
D03*
X54096Y43858D02*
D03*
D83*
X18494Y27165D02*
D03*
Y27953D02*
D03*
X19282Y27165D02*
D03*
Y27953D02*
D03*
X20069Y27165D02*
D03*
Y27953D02*
D03*
X20856Y27165D02*
D03*
Y27953D02*
D03*
X23228Y14823D02*
D03*
Y15610D02*
D03*
X47234Y27165D02*
D03*
Y27953D02*
D03*
X48022Y27165D02*
D03*
Y27953D02*
D03*
X48809Y27165D02*
D03*
Y27953D02*
D03*
X49596Y27165D02*
D03*
Y27953D02*
D03*
X51968Y14823D02*
D03*
Y15610D02*
D03*
X18494Y55906D02*
D03*
Y56693D02*
D03*
X19282Y55906D02*
D03*
Y56693D02*
D03*
X20069Y55906D02*
D03*
Y56693D02*
D03*
X20856Y55906D02*
D03*
Y56693D02*
D03*
X23228Y43563D02*
D03*
Y44350D02*
D03*
X47234Y55906D02*
D03*
Y56693D02*
D03*
X48022Y55906D02*
D03*
Y56693D02*
D03*
X48809Y55906D02*
D03*
Y56693D02*
D03*
X49596Y55906D02*
D03*
Y56693D02*
D03*
X51968Y43563D02*
D03*
Y44350D02*
D03*
D84*
X22539Y14547D02*
D03*
Y13917D02*
D03*
X10925Y19173D02*
D03*
Y19803D02*
D03*
X4843Y5344D02*
D03*
Y5974D02*
D03*
X19193Y14783D02*
D03*
Y14154D02*
D03*
X18209Y14783D02*
D03*
Y14154D02*
D03*
X3248Y18858D02*
D03*
Y18228D02*
D03*
X2657D02*
D03*
Y18858D02*
D03*
X9744Y4715D02*
D03*
Y4085D02*
D03*
X17815Y4409D02*
D03*
Y5039D02*
D03*
X25138Y21928D02*
D03*
Y21298D02*
D03*
Y23109D02*
D03*
Y22479D02*
D03*
X2461Y8494D02*
D03*
Y9124D02*
D03*
X3051Y8494D02*
D03*
Y9124D02*
D03*
X16821Y23071D02*
D03*
Y22441D02*
D03*
X16230Y23071D02*
D03*
Y22441D02*
D03*
X22539Y15098D02*
D03*
Y15728D02*
D03*
X5640Y13750D02*
D03*
Y13120D02*
D03*
X5049Y13750D02*
D03*
Y13120D02*
D03*
X4459Y13750D02*
D03*
Y13120D02*
D03*
X1850Y13750D02*
D03*
Y13120D02*
D03*
X1260Y13750D02*
D03*
Y13120D02*
D03*
X669Y13750D02*
D03*
Y13120D02*
D03*
X1112Y12234D02*
D03*
Y11604D02*
D03*
X3642Y9124D02*
D03*
Y8494D02*
D03*
X1870Y9124D02*
D03*
Y8494D02*
D03*
X9793Y19114D02*
D03*
Y18484D02*
D03*
X9203Y19114D02*
D03*
Y18484D02*
D03*
X19282Y26496D02*
D03*
Y25866D02*
D03*
X18494Y26496D02*
D03*
Y25866D02*
D03*
X20069Y26496D02*
D03*
Y25866D02*
D03*
X20856Y26496D02*
D03*
Y25866D02*
D03*
X5049Y14587D02*
D03*
Y15217D02*
D03*
X6594Y4665D02*
D03*
Y5295D02*
D03*
X6004Y4665D02*
D03*
Y5295D02*
D03*
X11516Y18425D02*
D03*
Y17795D02*
D03*
X12106Y18425D02*
D03*
Y17795D02*
D03*
X51280Y14547D02*
D03*
Y13917D02*
D03*
X39665Y19173D02*
D03*
Y19803D02*
D03*
X33583Y5344D02*
D03*
Y5974D02*
D03*
X47933Y14783D02*
D03*
Y14154D02*
D03*
X46949Y14783D02*
D03*
Y14154D02*
D03*
X31988Y18858D02*
D03*
Y18228D02*
D03*
X31398D02*
D03*
Y18858D02*
D03*
X38484Y4715D02*
D03*
Y4085D02*
D03*
X46555Y4409D02*
D03*
Y5039D02*
D03*
X53878Y21928D02*
D03*
Y21298D02*
D03*
Y23109D02*
D03*
Y22479D02*
D03*
X31201Y8494D02*
D03*
Y9124D02*
D03*
X31791Y8494D02*
D03*
Y9124D02*
D03*
X45561Y23071D02*
D03*
Y22441D02*
D03*
X44970Y23071D02*
D03*
Y22441D02*
D03*
X51280Y15098D02*
D03*
Y15728D02*
D03*
X34380Y13750D02*
D03*
Y13120D02*
D03*
X33789Y13750D02*
D03*
Y13120D02*
D03*
X33199Y13750D02*
D03*
Y13120D02*
D03*
X30591Y13750D02*
D03*
Y13120D02*
D03*
X30000Y13750D02*
D03*
Y13120D02*
D03*
X29409Y13750D02*
D03*
Y13120D02*
D03*
X29852Y12234D02*
D03*
Y11604D02*
D03*
X32382Y9124D02*
D03*
Y8494D02*
D03*
X30610Y9124D02*
D03*
Y8494D02*
D03*
X38533Y19114D02*
D03*
Y18484D02*
D03*
X37943Y19114D02*
D03*
Y18484D02*
D03*
X48022Y26496D02*
D03*
Y25866D02*
D03*
X47234Y26496D02*
D03*
Y25866D02*
D03*
X48809Y26496D02*
D03*
Y25866D02*
D03*
X49596Y26496D02*
D03*
Y25866D02*
D03*
X33789Y14587D02*
D03*
Y15217D02*
D03*
X35335Y4665D02*
D03*
Y5295D02*
D03*
X34744Y4665D02*
D03*
Y5295D02*
D03*
X40256Y18425D02*
D03*
Y17795D02*
D03*
X40846Y18425D02*
D03*
Y17795D02*
D03*
X22539Y43287D02*
D03*
Y42657D02*
D03*
X10925Y47913D02*
D03*
Y48543D02*
D03*
X4843Y34085D02*
D03*
Y34715D02*
D03*
X19193Y43524D02*
D03*
Y42894D02*
D03*
X18209Y43524D02*
D03*
Y42894D02*
D03*
X3248Y47598D02*
D03*
Y46968D02*
D03*
X2657D02*
D03*
Y47598D02*
D03*
X9744Y33455D02*
D03*
Y32825D02*
D03*
X17815Y33150D02*
D03*
Y33780D02*
D03*
X25138Y50668D02*
D03*
Y50039D02*
D03*
Y51850D02*
D03*
Y51220D02*
D03*
X2461Y37234D02*
D03*
Y37864D02*
D03*
X3051Y37234D02*
D03*
Y37864D02*
D03*
X16821Y51811D02*
D03*
Y51181D02*
D03*
X16230Y51811D02*
D03*
Y51181D02*
D03*
X22539Y43839D02*
D03*
Y44468D02*
D03*
X5640Y42490D02*
D03*
Y41860D02*
D03*
X5049Y42490D02*
D03*
Y41860D02*
D03*
X4459Y42490D02*
D03*
Y41860D02*
D03*
X1850Y42490D02*
D03*
Y41860D02*
D03*
X1260Y42490D02*
D03*
Y41860D02*
D03*
X669Y42490D02*
D03*
Y41860D02*
D03*
X1112Y40974D02*
D03*
Y40344D02*
D03*
X3642Y37864D02*
D03*
Y37234D02*
D03*
X1870Y37864D02*
D03*
Y37234D02*
D03*
X9793Y47854D02*
D03*
Y47224D02*
D03*
X9203Y47854D02*
D03*
Y47224D02*
D03*
X19282Y55236D02*
D03*
Y54606D02*
D03*
X18494Y55236D02*
D03*
Y54606D02*
D03*
X20069Y55236D02*
D03*
Y54606D02*
D03*
X20856Y55236D02*
D03*
Y54606D02*
D03*
X5049Y43327D02*
D03*
Y43957D02*
D03*
X6594Y33406D02*
D03*
Y34035D02*
D03*
X6004Y33406D02*
D03*
Y34035D02*
D03*
X11516Y47165D02*
D03*
Y46535D02*
D03*
X12106Y47165D02*
D03*
Y46535D02*
D03*
X51280Y43287D02*
D03*
Y42657D02*
D03*
X39665Y47913D02*
D03*
Y48543D02*
D03*
X33583Y34085D02*
D03*
Y34715D02*
D03*
X47933Y43524D02*
D03*
Y42894D02*
D03*
X46949Y43524D02*
D03*
Y42894D02*
D03*
X31988Y47598D02*
D03*
Y46968D02*
D03*
X31398D02*
D03*
Y47598D02*
D03*
X38484Y33455D02*
D03*
Y32825D02*
D03*
X46555Y33150D02*
D03*
Y33780D02*
D03*
X53878Y50668D02*
D03*
Y50039D02*
D03*
Y51850D02*
D03*
Y51220D02*
D03*
X31201Y37234D02*
D03*
Y37864D02*
D03*
X31791Y37234D02*
D03*
Y37864D02*
D03*
X45561Y51811D02*
D03*
Y51181D02*
D03*
X44970Y51811D02*
D03*
Y51181D02*
D03*
X51280Y43839D02*
D03*
Y44468D02*
D03*
X34380Y42490D02*
D03*
Y41860D02*
D03*
X33789Y42490D02*
D03*
Y41860D02*
D03*
X33199Y42490D02*
D03*
Y41860D02*
D03*
X30591Y42490D02*
D03*
Y41860D02*
D03*
X30000Y42490D02*
D03*
Y41860D02*
D03*
X29409Y42490D02*
D03*
Y41860D02*
D03*
X29852Y40974D02*
D03*
Y40344D02*
D03*
X32382Y37864D02*
D03*
Y37234D02*
D03*
X30610Y37864D02*
D03*
Y37234D02*
D03*
X38533Y47854D02*
D03*
Y47224D02*
D03*
X37943Y47854D02*
D03*
Y47224D02*
D03*
X48022Y55236D02*
D03*
Y54606D02*
D03*
X47234Y55236D02*
D03*
Y54606D02*
D03*
X48809Y55236D02*
D03*
Y54606D02*
D03*
X49596Y55236D02*
D03*
Y54606D02*
D03*
X33789Y43327D02*
D03*
Y43957D02*
D03*
X35335Y33406D02*
D03*
Y34035D02*
D03*
X34744Y33406D02*
D03*
Y34035D02*
D03*
X40256Y47165D02*
D03*
Y46535D02*
D03*
X40846Y47165D02*
D03*
Y46535D02*
D03*
D85*
X26378Y12264D02*
D03*
Y14114D02*
D03*
X55118Y12264D02*
D03*
Y14114D02*
D03*
X26378Y41004D02*
D03*
Y42854D02*
D03*
X55118Y41004D02*
D03*
Y42854D02*
D03*
D86*
X1575Y18602D02*
D03*
Y19980D02*
D03*
X27067Y16240D02*
D03*
Y14862D02*
D03*
X30315Y18602D02*
D03*
Y19980D02*
D03*
X55807Y16240D02*
D03*
Y14862D02*
D03*
X1575Y47343D02*
D03*
Y48720D02*
D03*
X27067Y44980D02*
D03*
Y43602D02*
D03*
X30315Y47343D02*
D03*
Y48720D02*
D03*
X55807Y44980D02*
D03*
Y43602D02*
D03*
D87*
X1654Y24508D02*
D03*
X472Y24508D02*
D03*
X21526Y27874D02*
D03*
X22707Y27874D02*
D03*
X30394Y24508D02*
D03*
X29213Y24508D02*
D03*
X50266Y27874D02*
D03*
X51447Y27874D02*
D03*
X1654Y53248D02*
D03*
X472Y53248D02*
D03*
X21526Y56614D02*
D03*
X22707Y56614D02*
D03*
X30394Y53248D02*
D03*
X29213Y53248D02*
D03*
X50266Y56614D02*
D03*
X51447Y56614D02*
D03*
D88*
X5512Y17264D02*
D03*
Y17520D02*
D03*
Y17776D02*
D03*
Y18032D02*
D03*
Y19311D02*
D03*
Y19567D02*
D03*
Y18799D02*
D03*
Y18287D02*
D03*
Y18543D02*
D03*
X8268Y18032D02*
D03*
Y18287D02*
D03*
Y18543D02*
D03*
Y18799D02*
D03*
Y19055D02*
D03*
Y19311D02*
D03*
Y17776D02*
D03*
Y17264D02*
D03*
Y17520D02*
D03*
X5512Y19055D02*
D03*
X8268Y17008D02*
D03*
Y16752D02*
D03*
Y16496D02*
D03*
Y16240D02*
D03*
X5512Y17008D02*
D03*
Y16752D02*
D03*
Y16496D02*
D03*
X5512Y16240D02*
D03*
X34252Y17264D02*
D03*
Y17520D02*
D03*
Y17776D02*
D03*
Y18032D02*
D03*
Y19311D02*
D03*
Y19567D02*
D03*
Y18799D02*
D03*
Y18287D02*
D03*
Y18543D02*
D03*
X37008Y18032D02*
D03*
Y18287D02*
D03*
Y18543D02*
D03*
Y18799D02*
D03*
Y19055D02*
D03*
Y19311D02*
D03*
Y17776D02*
D03*
Y17264D02*
D03*
Y17520D02*
D03*
X34252Y19055D02*
D03*
X37008Y17008D02*
D03*
Y16752D02*
D03*
Y16496D02*
D03*
Y16240D02*
D03*
X34252Y17008D02*
D03*
Y16752D02*
D03*
Y16496D02*
D03*
X34252Y16240D02*
D03*
X5512Y46004D02*
D03*
Y46260D02*
D03*
Y46516D02*
D03*
Y46772D02*
D03*
Y48051D02*
D03*
Y48307D02*
D03*
Y47539D02*
D03*
Y47028D02*
D03*
Y47283D02*
D03*
X8268Y46772D02*
D03*
Y47028D02*
D03*
Y47283D02*
D03*
Y47539D02*
D03*
Y47795D02*
D03*
Y48051D02*
D03*
Y46516D02*
D03*
Y46004D02*
D03*
Y46260D02*
D03*
X5512Y47795D02*
D03*
X8268Y45748D02*
D03*
Y45492D02*
D03*
Y45236D02*
D03*
Y44980D02*
D03*
X5512Y45748D02*
D03*
Y45492D02*
D03*
Y45236D02*
D03*
X5512Y44980D02*
D03*
X34252Y46004D02*
D03*
Y46260D02*
D03*
Y46516D02*
D03*
Y46772D02*
D03*
Y48051D02*
D03*
Y48307D02*
D03*
Y47539D02*
D03*
Y47028D02*
D03*
Y47283D02*
D03*
X37008Y46772D02*
D03*
Y47028D02*
D03*
Y47283D02*
D03*
Y47539D02*
D03*
Y47795D02*
D03*
Y48051D02*
D03*
Y46516D02*
D03*
Y46004D02*
D03*
Y46260D02*
D03*
X34252Y47795D02*
D03*
X37008Y45748D02*
D03*
Y45492D02*
D03*
Y45236D02*
D03*
Y44980D02*
D03*
X34252Y45748D02*
D03*
Y45492D02*
D03*
Y45236D02*
D03*
X34252Y44980D02*
D03*
D89*
X20925Y12579D02*
D03*
X20925Y11831D02*
D03*
X20925Y12205D02*
D03*
X20020Y12579D02*
D03*
Y11831D02*
D03*
X22382Y25807D02*
D03*
Y26555D02*
D03*
X23287Y26181D02*
D03*
Y25807D02*
D03*
X22382Y26181D02*
D03*
X23287Y26555D02*
D03*
X49665Y12579D02*
D03*
X49665Y11831D02*
D03*
X49665Y12205D02*
D03*
X48760Y12579D02*
D03*
Y11831D02*
D03*
X51122Y25807D02*
D03*
Y26555D02*
D03*
X52028Y26181D02*
D03*
Y25807D02*
D03*
X51122Y26181D02*
D03*
X52028Y26555D02*
D03*
X20925Y41319D02*
D03*
X20925Y40571D02*
D03*
X20925Y40945D02*
D03*
X20020Y41319D02*
D03*
Y40571D02*
D03*
X22382Y54547D02*
D03*
Y55295D02*
D03*
X23287Y54921D02*
D03*
Y54547D02*
D03*
X22382Y54921D02*
D03*
X23287Y55295D02*
D03*
X49665Y41319D02*
D03*
X49665Y40571D02*
D03*
X49665Y40945D02*
D03*
X48760Y41319D02*
D03*
Y40571D02*
D03*
X51122Y54547D02*
D03*
Y55295D02*
D03*
X52028Y54921D02*
D03*
Y54547D02*
D03*
X51122Y54921D02*
D03*
X52028Y55295D02*
D03*
D90*
X25827Y21772D02*
D03*
X27323Y23267D02*
D03*
Y21772D02*
D03*
X54567D02*
D03*
X56063Y23267D02*
D03*
Y21772D02*
D03*
X25827Y50512D02*
D03*
X27323Y52007D02*
D03*
Y50512D02*
D03*
X54567D02*
D03*
X56063Y52007D02*
D03*
Y50512D02*
D03*
D91*
X20451Y19098D02*
D03*
X19951D02*
D03*
X19451D02*
D03*
X18951D02*
D03*
X18451D02*
D03*
X17951D02*
D03*
X17451D02*
D03*
X16951D02*
D03*
Y15547D02*
D03*
X17451D02*
D03*
X17951D02*
D03*
X18451D02*
D03*
X18951D02*
D03*
X19451D02*
D03*
X19951D02*
D03*
X49191Y19098D02*
D03*
X48691D02*
D03*
X48191D02*
D03*
X47691D02*
D03*
X47191D02*
D03*
X46691D02*
D03*
X46191D02*
D03*
X45691D02*
D03*
Y15547D02*
D03*
X46191D02*
D03*
X46691D02*
D03*
X47191D02*
D03*
X47691D02*
D03*
X48191D02*
D03*
X48691D02*
D03*
X20451Y47839D02*
D03*
X19951D02*
D03*
X19451D02*
D03*
X18951D02*
D03*
X18451D02*
D03*
X17951D02*
D03*
X17451D02*
D03*
X16951D02*
D03*
Y44287D02*
D03*
X17451D02*
D03*
X17951D02*
D03*
X18451D02*
D03*
X18951D02*
D03*
X19451D02*
D03*
X19951D02*
D03*
X49191Y47839D02*
D03*
X48691D02*
D03*
X48191D02*
D03*
X47691D02*
D03*
X47191D02*
D03*
X46691D02*
D03*
X46191D02*
D03*
X45691D02*
D03*
Y44287D02*
D03*
X46191D02*
D03*
X46691D02*
D03*
X47191D02*
D03*
X47691D02*
D03*
X48191D02*
D03*
X48691D02*
D03*
D92*
X20451Y15547D02*
D03*
X49191D02*
D03*
X20451Y44287D02*
D03*
X49191D02*
D03*
D93*
X25787Y22835D02*
D03*
X26575D02*
D03*
X54528D02*
D03*
X55315D02*
D03*
X25787Y51575D02*
D03*
X26575D02*
D03*
X54528D02*
D03*
X55315D02*
D03*
D94*
X26181Y23622D02*
D03*
X54921D02*
D03*
X26181Y52362D02*
D03*
X54921D02*
D03*
D95*
X24606Y16142D02*
D03*
X53346D02*
D03*
X24606Y44882D02*
D03*
X53346D02*
D03*
D96*
X20669Y22941D02*
D03*
X23031D02*
D03*
Y21941D02*
D03*
X20669D02*
D03*
Y24909D02*
D03*
X23031D02*
D03*
Y23909D02*
D03*
X20669D02*
D03*
X8071Y24122D02*
D03*
X10433D02*
D03*
Y23122D02*
D03*
X8071D02*
D03*
X49409Y22941D02*
D03*
X51772D02*
D03*
Y21941D02*
D03*
X49409D02*
D03*
Y24909D02*
D03*
X51772D02*
D03*
Y23909D02*
D03*
X49409D02*
D03*
X36811Y24122D02*
D03*
X39173D02*
D03*
Y23122D02*
D03*
X36811D02*
D03*
X20669Y51681D02*
D03*
X23031D02*
D03*
Y50681D02*
D03*
X20669D02*
D03*
Y53650D02*
D03*
X23031D02*
D03*
Y52650D02*
D03*
X20669D02*
D03*
X8071Y52862D02*
D03*
X10433D02*
D03*
Y51862D02*
D03*
X8071D02*
D03*
X49409Y51681D02*
D03*
X51772D02*
D03*
Y50681D02*
D03*
X49409D02*
D03*
Y53650D02*
D03*
X51772D02*
D03*
Y52650D02*
D03*
X49409D02*
D03*
X36811Y52862D02*
D03*
X39173D02*
D03*
Y51862D02*
D03*
X36811D02*
D03*
D97*
X27953Y16299D02*
D03*
X27953Y15118D02*
D03*
X24567Y12382D02*
D03*
X24567Y13563D02*
D03*
X23622Y12382D02*
D03*
X23622Y13563D02*
D03*
X26181Y17323D02*
D03*
X26181Y16142D02*
D03*
X56693Y16299D02*
D03*
X56693Y15118D02*
D03*
X53307Y12382D02*
D03*
X53307Y13563D02*
D03*
X52362Y12382D02*
D03*
X52362Y13563D02*
D03*
X54921Y17323D02*
D03*
X54921Y16142D02*
D03*
X27953Y45039D02*
D03*
X27953Y43858D02*
D03*
X24567Y41122D02*
D03*
X24567Y42303D02*
D03*
X23622Y41122D02*
D03*
X23622Y42303D02*
D03*
X26181Y46063D02*
D03*
X26181Y44882D02*
D03*
X56693Y45039D02*
D03*
X56693Y43858D02*
D03*
X53307Y41122D02*
D03*
X53307Y42303D02*
D03*
X52362Y41122D02*
D03*
X52362Y42303D02*
D03*
X54921Y46063D02*
D03*
X54921Y44882D02*
D03*
D98*
X27618Y19094D02*
D03*
X25531D02*
D03*
X56358D02*
D03*
X54272D02*
D03*
X27618Y47835D02*
D03*
X25531D02*
D03*
X56358D02*
D03*
X54272D02*
D03*
M02*
