G04*
G04 #@! TF.GenerationSoftware,Altium Limited,Altium Designer,18.1.11 (251)*
G04*
G04 Layer_Color=8388736*
%FSLAX24Y24*%
%MOIN*%
G70*
G01*
G75*
%ADD60C,0.0474*%
%ADD61R,0.0474X0.0474*%
%ADD62R,0.0474X0.0986*%
%ADD63R,0.0986X0.0474*%
%ADD64R,0.0395X0.0434*%
%ADD65R,0.0828X0.0631*%
%ADD66R,0.0789X0.0237*%
%ADD67R,0.0828X0.1261*%
%ADD68C,0.0592*%
G04:AMPARAMS|DCode=69|XSize=71mil|YSize=71mil|CornerRadius=19.7mil|HoleSize=0mil|Usage=FLASHONLY|Rotation=270.000|XOffset=0mil|YOffset=0mil|HoleType=Round|Shape=RoundedRectangle|*
%AMROUNDEDRECTD69*
21,1,0.0710,0.0315,0,0,270.0*
21,1,0.0315,0.0710,0,0,270.0*
1,1,0.0395,-0.0157,-0.0157*
1,1,0.0395,-0.0157,0.0157*
1,1,0.0395,0.0157,0.0157*
1,1,0.0395,0.0157,-0.0157*
%
%ADD69ROUNDEDRECTD69*%
%ADD70C,0.0710*%
%ADD71C,0.0671*%
G04:AMPARAMS|DCode=72|XSize=67.1mil|YSize=67.1mil|CornerRadius=18.8mil|HoleSize=0mil|Usage=FLASHONLY|Rotation=0.000|XOffset=0mil|YOffset=0mil|HoleType=Round|Shape=RoundedRectangle|*
%AMROUNDEDRECTD72*
21,1,0.0671,0.0295,0,0,0.0*
21,1,0.0295,0.0671,0,0,0.0*
1,1,0.0375,0.0148,-0.0148*
1,1,0.0375,-0.0148,-0.0148*
1,1,0.0375,-0.0148,0.0148*
1,1,0.0375,0.0148,0.0148*
%
%ADD72ROUNDEDRECTD72*%
G04:AMPARAMS|DCode=73|XSize=67.1mil|YSize=67.1mil|CornerRadius=18.8mil|HoleSize=0mil|Usage=FLASHONLY|Rotation=90.000|XOffset=0mil|YOffset=0mil|HoleType=Round|Shape=RoundedRectangle|*
%AMROUNDEDRECTD73*
21,1,0.0671,0.0295,0,0,90.0*
21,1,0.0295,0.0671,0,0,90.0*
1,1,0.0375,0.0148,0.0148*
1,1,0.0375,0.0148,-0.0148*
1,1,0.0375,-0.0148,-0.0148*
1,1,0.0375,-0.0148,0.0148*
%
%ADD73ROUNDEDRECTD73*%
%ADD74C,0.0631*%
%ADD75C,0.0080*%
G04:AMPARAMS|DCode=76|XSize=71mil|YSize=71mil|CornerRadius=19.7mil|HoleSize=0mil|Usage=FLASHONLY|Rotation=180.000|XOffset=0mil|YOffset=0mil|HoleType=Round|Shape=RoundedRectangle|*
%AMROUNDEDRECTD76*
21,1,0.0710,0.0315,0,0,180.0*
21,1,0.0315,0.0710,0,0,180.0*
1,1,0.0395,-0.0157,0.0157*
1,1,0.0395,0.0157,0.0157*
1,1,0.0395,0.0157,-0.0157*
1,1,0.0395,-0.0157,-0.0157*
%
%ADD76ROUNDEDRECTD76*%
%ADD77O,0.0552X0.0671*%
%ADD78C,0.1497*%
%ADD79C,0.0946*%
G04:AMPARAMS|DCode=80|XSize=94.6mil|YSize=94.6mil|CornerRadius=25.7mil|HoleSize=0mil|Usage=FLASHONLY|Rotation=90.000|XOffset=0mil|YOffset=0mil|HoleType=Round|Shape=RoundedRectangle|*
%AMROUNDEDRECTD80*
21,1,0.0946,0.0433,0,0,90.0*
21,1,0.0433,0.0946,0,0,90.0*
1,1,0.0513,0.0217,0.0217*
1,1,0.0513,0.0217,-0.0217*
1,1,0.0513,-0.0217,-0.0217*
1,1,0.0513,-0.0217,0.0217*
%
%ADD80ROUNDEDRECTD80*%
D60*
X-1575Y59055D02*
D03*
X27362Y4724D02*
D03*
X56102D02*
D03*
X27362Y33465D02*
D03*
X56102D02*
D03*
D61*
X59055Y-1575D02*
D03*
X886Y20374D02*
D03*
X29626D02*
D03*
X886Y49114D02*
D03*
X29626D02*
D03*
D62*
X22799Y15571D02*
D03*
X23439D02*
D03*
X24079D02*
D03*
X22799Y13169D02*
D03*
X23439D02*
D03*
X24079D02*
D03*
X5968D02*
D03*
X5329D02*
D03*
X4689D02*
D03*
X5968Y15571D02*
D03*
X5329D02*
D03*
X4689D02*
D03*
X51539D02*
D03*
X52179D02*
D03*
X52819D02*
D03*
X51539Y13169D02*
D03*
X52179D02*
D03*
X52819D02*
D03*
X34709D02*
D03*
X34069D02*
D03*
X33429D02*
D03*
X34709Y15571D02*
D03*
X34069D02*
D03*
X33429D02*
D03*
X22799Y44311D02*
D03*
X23439D02*
D03*
X24079D02*
D03*
X22799Y41909D02*
D03*
X23439D02*
D03*
X24079D02*
D03*
X5968D02*
D03*
X5329D02*
D03*
X4689D02*
D03*
X5968Y44311D02*
D03*
X5329D02*
D03*
X4689D02*
D03*
X51539D02*
D03*
X52179D02*
D03*
X52819D02*
D03*
X51539Y41909D02*
D03*
X52179D02*
D03*
X52819D02*
D03*
X34709D02*
D03*
X34069D02*
D03*
X33429D02*
D03*
X34709Y44311D02*
D03*
X34069D02*
D03*
X33429D02*
D03*
D63*
X15581Y24124D02*
D03*
Y23484D02*
D03*
Y22844D02*
D03*
X13179Y24124D02*
D03*
Y23484D02*
D03*
Y22844D02*
D03*
X13183Y4675D02*
D03*
Y5315D02*
D03*
Y5955D02*
D03*
X15585Y4675D02*
D03*
Y5315D02*
D03*
Y5955D02*
D03*
X44321Y24124D02*
D03*
Y23484D02*
D03*
Y22844D02*
D03*
X41919Y24124D02*
D03*
Y23484D02*
D03*
Y22844D02*
D03*
X41923Y4675D02*
D03*
Y5315D02*
D03*
Y5955D02*
D03*
X44325Y4675D02*
D03*
Y5315D02*
D03*
Y5955D02*
D03*
X15581Y52864D02*
D03*
Y52224D02*
D03*
Y51585D02*
D03*
X13179Y52864D02*
D03*
Y52224D02*
D03*
Y51585D02*
D03*
X13183Y33415D02*
D03*
Y34055D02*
D03*
Y34695D02*
D03*
X15585Y33415D02*
D03*
Y34055D02*
D03*
Y34695D02*
D03*
X44321Y52864D02*
D03*
Y52224D02*
D03*
Y51585D02*
D03*
X41919Y52864D02*
D03*
Y52224D02*
D03*
Y51585D02*
D03*
X41923Y33415D02*
D03*
Y34055D02*
D03*
Y34695D02*
D03*
X44325Y33415D02*
D03*
Y34055D02*
D03*
Y34695D02*
D03*
D64*
X502Y14990D02*
D03*
X1132D02*
D03*
X502Y14400D02*
D03*
X1132D02*
D03*
X29242Y14990D02*
D03*
X29872D02*
D03*
X29242Y14400D02*
D03*
X29872D02*
D03*
X502Y43730D02*
D03*
X1132D02*
D03*
X502Y43140D02*
D03*
X1132D02*
D03*
X29242Y43730D02*
D03*
X29872D02*
D03*
X29242Y43140D02*
D03*
X29872D02*
D03*
D65*
X581Y15738D02*
D03*
Y18730D02*
D03*
X29321Y15738D02*
D03*
Y18730D02*
D03*
X581Y44478D02*
D03*
Y47470D02*
D03*
X29321Y44478D02*
D03*
Y47470D02*
D03*
D66*
X1703Y16722D02*
D03*
Y16978D02*
D03*
Y17234D02*
D03*
Y17490D02*
D03*
Y17746D02*
D03*
X30443Y16722D02*
D03*
Y16978D02*
D03*
Y17234D02*
D03*
Y17490D02*
D03*
Y17746D02*
D03*
X1703Y45463D02*
D03*
Y45718D02*
D03*
Y45974D02*
D03*
Y46230D02*
D03*
Y46486D02*
D03*
X30443Y45463D02*
D03*
Y45718D02*
D03*
Y45974D02*
D03*
Y46230D02*
D03*
Y46486D02*
D03*
D67*
X581Y17234D02*
D03*
X29321D02*
D03*
X581Y45974D02*
D03*
X29321D02*
D03*
D68*
X24729Y26138D02*
D03*
X23337Y27530D02*
D03*
X53469Y26138D02*
D03*
X52077Y27530D02*
D03*
X24729Y54878D02*
D03*
X23337Y56270D02*
D03*
X53469Y54878D02*
D03*
X52077Y56270D02*
D03*
D69*
X2659Y15919D02*
D03*
X1878Y23531D02*
D03*
X7386Y2087D02*
D03*
X16850Y5085D02*
D03*
X31400Y15919D02*
D03*
X30618Y23531D02*
D03*
X36126Y2087D02*
D03*
X45591Y5085D02*
D03*
X2659Y44659D02*
D03*
X1878Y52272D02*
D03*
X7386Y30827D02*
D03*
X16850Y33825D02*
D03*
X31400Y44659D02*
D03*
X30618Y52272D02*
D03*
X36126Y30827D02*
D03*
X45591Y33825D02*
D03*
D70*
X3659Y15919D02*
D03*
X2659Y14919D02*
D03*
X3659D02*
D03*
X2659Y13919D02*
D03*
X3659D02*
D03*
X2659Y12919D02*
D03*
X3659D02*
D03*
X878Y22531D02*
D03*
X1878D02*
D03*
X878Y23531D02*
D03*
X22925Y787D02*
D03*
X4815D02*
D03*
X8386Y5087D02*
D03*
X7386D02*
D03*
X8386Y4087D02*
D03*
X7386D02*
D03*
X8386Y3087D02*
D03*
X7386D02*
D03*
X8386Y2087D02*
D03*
X16850Y2085D02*
D03*
Y3085D02*
D03*
Y4085D02*
D03*
X32400Y15919D02*
D03*
X31400Y14919D02*
D03*
X32400D02*
D03*
X31400Y13919D02*
D03*
X32400D02*
D03*
X31400Y12919D02*
D03*
X32400D02*
D03*
X29618Y22531D02*
D03*
X30618D02*
D03*
X29618Y23531D02*
D03*
X51665Y787D02*
D03*
X33555D02*
D03*
X37126Y5087D02*
D03*
X36126D02*
D03*
X37126Y4087D02*
D03*
X36126D02*
D03*
X37126Y3087D02*
D03*
X36126D02*
D03*
X37126Y2087D02*
D03*
X45591Y2085D02*
D03*
Y3085D02*
D03*
Y4085D02*
D03*
X3659Y44659D02*
D03*
X2659Y43659D02*
D03*
X3659D02*
D03*
X2659Y42659D02*
D03*
X3659D02*
D03*
X2659Y41659D02*
D03*
X3659D02*
D03*
X878Y51272D02*
D03*
X1878D02*
D03*
X878Y52272D02*
D03*
X22925Y29528D02*
D03*
X4815D02*
D03*
X8386Y33827D02*
D03*
X7386D02*
D03*
X8386Y32827D02*
D03*
X7386D02*
D03*
X8386Y31827D02*
D03*
X7386D02*
D03*
X8386Y30827D02*
D03*
X16850Y30825D02*
D03*
Y31825D02*
D03*
Y32825D02*
D03*
X32400Y44659D02*
D03*
X31400Y43659D02*
D03*
X32400D02*
D03*
X31400Y42659D02*
D03*
X32400D02*
D03*
X31400Y41659D02*
D03*
X32400D02*
D03*
X29618Y51272D02*
D03*
X30618D02*
D03*
X29618Y52272D02*
D03*
X51665Y29528D02*
D03*
X33555D02*
D03*
X37126Y33827D02*
D03*
X36126D02*
D03*
X37126Y32827D02*
D03*
X36126D02*
D03*
X37126Y31827D02*
D03*
X36126D02*
D03*
X37126Y30827D02*
D03*
X45591Y30825D02*
D03*
Y31825D02*
D03*
Y32825D02*
D03*
D71*
X5372Y7726D02*
D03*
X6372D02*
D03*
X3372D02*
D03*
X4372D02*
D03*
X7372D02*
D03*
X8372D02*
D03*
X9372D02*
D03*
X10372D02*
D03*
X11372D02*
D03*
X12372D02*
D03*
X13372D02*
D03*
Y6726D02*
D03*
X12372D02*
D03*
X11372D02*
D03*
X10372D02*
D03*
X9372D02*
D03*
X8372D02*
D03*
X7372D02*
D03*
X2372D02*
D03*
X4372D02*
D03*
X3372D02*
D03*
X6372D02*
D03*
X5372D02*
D03*
Y21518D02*
D03*
X6372D02*
D03*
X3372D02*
D03*
X4372D02*
D03*
X7372D02*
D03*
X10372D02*
D03*
X11372D02*
D03*
X8372D02*
D03*
X9372D02*
D03*
X2372Y20518D02*
D03*
X9372D02*
D03*
X8372D02*
D03*
X11372D02*
D03*
X10372D02*
D03*
X7372D02*
D03*
X4372D02*
D03*
X3372D02*
D03*
X6372D02*
D03*
X5372D02*
D03*
X12372Y21518D02*
D03*
Y20518D02*
D03*
X13372D02*
D03*
Y21518D02*
D03*
X15236Y12622D02*
D03*
Y13622D02*
D03*
Y10622D02*
D03*
Y11622D02*
D03*
Y9622D02*
D03*
Y14622D02*
D03*
Y15622D02*
D03*
Y16622D02*
D03*
Y17622D02*
D03*
Y18622D02*
D03*
X14236Y12622D02*
D03*
Y13622D02*
D03*
Y10622D02*
D03*
Y11622D02*
D03*
Y14622D02*
D03*
Y15622D02*
D03*
Y16622D02*
D03*
Y17622D02*
D03*
Y18622D02*
D03*
X13770Y27352D02*
D03*
X10644Y18370D02*
D03*
Y17370D02*
D03*
Y16370D02*
D03*
Y15370D02*
D03*
Y14370D02*
D03*
Y13370D02*
D03*
Y12370D02*
D03*
Y11370D02*
D03*
X12970Y27352D02*
D03*
X13372Y26352D02*
D03*
X14569Y27352D02*
D03*
X15368D02*
D03*
X17071Y25404D02*
D03*
X16169D02*
D03*
X11669D02*
D03*
X12571D02*
D03*
X11573Y5083D02*
D03*
X10573D02*
D03*
X11573Y4083D02*
D03*
X10573D02*
D03*
X11573Y3083D02*
D03*
X10573D02*
D03*
X11573Y2083D02*
D03*
X4478Y23020D02*
D03*
X5478D02*
D03*
X4478Y24020D02*
D03*
X5478D02*
D03*
X4478Y25020D02*
D03*
X5478D02*
D03*
X4478Y26020D02*
D03*
X5478D02*
D03*
X4478Y27020D02*
D03*
X5478D02*
D03*
X4478Y28020D02*
D03*
X34112Y7726D02*
D03*
X35112D02*
D03*
X32112D02*
D03*
X33112D02*
D03*
X36112D02*
D03*
X37112D02*
D03*
X38112D02*
D03*
X39112D02*
D03*
X40112D02*
D03*
X41112D02*
D03*
X42112D02*
D03*
Y6726D02*
D03*
X41112D02*
D03*
X40112D02*
D03*
X39112D02*
D03*
X38112D02*
D03*
X37112D02*
D03*
X36112D02*
D03*
X31112D02*
D03*
X33112D02*
D03*
X32112D02*
D03*
X35112D02*
D03*
X34112D02*
D03*
Y21518D02*
D03*
X35112D02*
D03*
X32112D02*
D03*
X33112D02*
D03*
X36112D02*
D03*
X39112D02*
D03*
X40112D02*
D03*
X37112D02*
D03*
X38112D02*
D03*
X31112Y20518D02*
D03*
X38112D02*
D03*
X37112D02*
D03*
X40112D02*
D03*
X39112D02*
D03*
X36112D02*
D03*
X33112D02*
D03*
X32112D02*
D03*
X35112D02*
D03*
X34112D02*
D03*
X41112Y21518D02*
D03*
Y20518D02*
D03*
X42112D02*
D03*
Y21518D02*
D03*
X43976Y12622D02*
D03*
Y13622D02*
D03*
Y10622D02*
D03*
Y11622D02*
D03*
Y9622D02*
D03*
Y14622D02*
D03*
Y15622D02*
D03*
Y16622D02*
D03*
Y17622D02*
D03*
Y18622D02*
D03*
X42976Y12622D02*
D03*
Y13622D02*
D03*
Y10622D02*
D03*
Y11622D02*
D03*
Y14622D02*
D03*
Y15622D02*
D03*
Y16622D02*
D03*
Y17622D02*
D03*
Y18622D02*
D03*
X42510Y27352D02*
D03*
X39384Y18370D02*
D03*
Y17370D02*
D03*
Y16370D02*
D03*
Y15370D02*
D03*
Y14370D02*
D03*
Y13370D02*
D03*
Y12370D02*
D03*
Y11370D02*
D03*
X41711Y27352D02*
D03*
X42112Y26352D02*
D03*
X43309Y27352D02*
D03*
X44108D02*
D03*
X45811Y25404D02*
D03*
X44909D02*
D03*
X40409D02*
D03*
X41311D02*
D03*
X40313Y5083D02*
D03*
X39313D02*
D03*
X40313Y4083D02*
D03*
X39313D02*
D03*
X40313Y3083D02*
D03*
X39313D02*
D03*
X40313Y2083D02*
D03*
X33219Y23020D02*
D03*
X34219D02*
D03*
X33219Y24020D02*
D03*
X34219D02*
D03*
X33219Y25020D02*
D03*
X34219D02*
D03*
X33219Y26020D02*
D03*
X34219D02*
D03*
X33219Y27020D02*
D03*
X34219D02*
D03*
X33219Y28020D02*
D03*
X5372Y36467D02*
D03*
X6372D02*
D03*
X3372D02*
D03*
X4372D02*
D03*
X7372D02*
D03*
X8372D02*
D03*
X9372D02*
D03*
X10372D02*
D03*
X11372D02*
D03*
X12372D02*
D03*
X13372D02*
D03*
Y35467D02*
D03*
X12372D02*
D03*
X11372D02*
D03*
X10372D02*
D03*
X9372D02*
D03*
X8372D02*
D03*
X7372D02*
D03*
X2372D02*
D03*
X4372D02*
D03*
X3372D02*
D03*
X6372D02*
D03*
X5372D02*
D03*
Y50258D02*
D03*
X6372D02*
D03*
X3372D02*
D03*
X4372D02*
D03*
X7372D02*
D03*
X10372D02*
D03*
X11372D02*
D03*
X8372D02*
D03*
X9372D02*
D03*
X2372Y49258D02*
D03*
X9372D02*
D03*
X8372D02*
D03*
X11372D02*
D03*
X10372D02*
D03*
X7372D02*
D03*
X4372D02*
D03*
X3372D02*
D03*
X6372D02*
D03*
X5372D02*
D03*
X12372Y50258D02*
D03*
Y49258D02*
D03*
X13372D02*
D03*
Y50258D02*
D03*
X15236Y41362D02*
D03*
Y42362D02*
D03*
Y39362D02*
D03*
Y40362D02*
D03*
Y38362D02*
D03*
Y43362D02*
D03*
Y44362D02*
D03*
Y45362D02*
D03*
Y46362D02*
D03*
Y47362D02*
D03*
X14236Y41362D02*
D03*
Y42362D02*
D03*
Y39362D02*
D03*
Y40362D02*
D03*
Y43362D02*
D03*
Y44362D02*
D03*
Y45362D02*
D03*
Y46362D02*
D03*
Y47362D02*
D03*
X13770Y56093D02*
D03*
X10644Y47110D02*
D03*
Y46110D02*
D03*
Y45110D02*
D03*
Y44110D02*
D03*
Y43110D02*
D03*
Y42110D02*
D03*
Y41110D02*
D03*
Y40110D02*
D03*
X12970Y56093D02*
D03*
X13372Y55093D02*
D03*
X14569Y56093D02*
D03*
X15368D02*
D03*
X17071Y54144D02*
D03*
X16169D02*
D03*
X11669D02*
D03*
X12571D02*
D03*
X11573Y33823D02*
D03*
X10573D02*
D03*
X11573Y32823D02*
D03*
X10573D02*
D03*
X11573Y31823D02*
D03*
X10573D02*
D03*
X11573Y30823D02*
D03*
X4478Y51760D02*
D03*
X5478D02*
D03*
X4478Y52760D02*
D03*
X5478D02*
D03*
X4478Y53760D02*
D03*
X5478D02*
D03*
X4478Y54760D02*
D03*
X5478D02*
D03*
X4478Y55760D02*
D03*
X5478D02*
D03*
X4478Y56760D02*
D03*
X34112Y36467D02*
D03*
X35112D02*
D03*
X32112D02*
D03*
X33112D02*
D03*
X36112D02*
D03*
X37112D02*
D03*
X38112D02*
D03*
X39112D02*
D03*
X40112D02*
D03*
X41112D02*
D03*
X42112D02*
D03*
Y35467D02*
D03*
X41112D02*
D03*
X40112D02*
D03*
X39112D02*
D03*
X38112D02*
D03*
X37112D02*
D03*
X36112D02*
D03*
X31112D02*
D03*
X33112D02*
D03*
X32112D02*
D03*
X35112D02*
D03*
X34112D02*
D03*
Y50258D02*
D03*
X35112D02*
D03*
X32112D02*
D03*
X33112D02*
D03*
X36112D02*
D03*
X39112D02*
D03*
X40112D02*
D03*
X37112D02*
D03*
X38112D02*
D03*
X31112Y49258D02*
D03*
X38112D02*
D03*
X37112D02*
D03*
X40112D02*
D03*
X39112D02*
D03*
X36112D02*
D03*
X33112D02*
D03*
X32112D02*
D03*
X35112D02*
D03*
X34112D02*
D03*
X41112Y50258D02*
D03*
Y49258D02*
D03*
X42112D02*
D03*
Y50258D02*
D03*
X43976Y41362D02*
D03*
Y42362D02*
D03*
Y39362D02*
D03*
Y40362D02*
D03*
Y38362D02*
D03*
Y43362D02*
D03*
Y44362D02*
D03*
Y45362D02*
D03*
Y46362D02*
D03*
Y47362D02*
D03*
X42976Y41362D02*
D03*
Y42362D02*
D03*
Y39362D02*
D03*
Y40362D02*
D03*
Y43362D02*
D03*
Y44362D02*
D03*
Y45362D02*
D03*
Y46362D02*
D03*
Y47362D02*
D03*
X42510Y56093D02*
D03*
X39384Y47110D02*
D03*
Y46110D02*
D03*
Y45110D02*
D03*
Y44110D02*
D03*
Y43110D02*
D03*
Y42110D02*
D03*
Y41110D02*
D03*
Y40110D02*
D03*
X41711Y56093D02*
D03*
X42112Y55093D02*
D03*
X43309Y56093D02*
D03*
X44108D02*
D03*
X45811Y54144D02*
D03*
X44909D02*
D03*
X40409D02*
D03*
X41311D02*
D03*
X40313Y33823D02*
D03*
X39313D02*
D03*
X40313Y32823D02*
D03*
X39313D02*
D03*
X40313Y31823D02*
D03*
X39313D02*
D03*
X40313Y30823D02*
D03*
X33219Y51760D02*
D03*
X34219D02*
D03*
X33219Y52760D02*
D03*
X34219D02*
D03*
X33219Y53760D02*
D03*
X34219D02*
D03*
X33219Y54760D02*
D03*
X34219D02*
D03*
X33219Y55760D02*
D03*
X34219D02*
D03*
X33219Y56760D02*
D03*
D72*
X2372Y7726D02*
D03*
Y21518D02*
D03*
X31112Y7726D02*
D03*
Y21518D02*
D03*
X2372Y36467D02*
D03*
Y50258D02*
D03*
X31112Y36467D02*
D03*
Y50258D02*
D03*
D73*
X14236Y9622D02*
D03*
X10644Y10370D02*
D03*
X10573Y2083D02*
D03*
X5478Y28020D02*
D03*
X42976Y9622D02*
D03*
X39384Y10370D02*
D03*
X39313Y2083D02*
D03*
X34219Y28020D02*
D03*
X14236Y38362D02*
D03*
X10644Y39110D02*
D03*
X10573Y30823D02*
D03*
X5478Y56760D02*
D03*
X42976Y38362D02*
D03*
X39384Y39110D02*
D03*
X39313Y30823D02*
D03*
X34219Y56760D02*
D03*
D74*
X7579Y866D02*
D03*
X8563D02*
D03*
X21161D02*
D03*
X20177D02*
D03*
X36319D02*
D03*
X37303D02*
D03*
X49902D02*
D03*
X48917D02*
D03*
X7579Y29606D02*
D03*
X8563D02*
D03*
X21161D02*
D03*
X20177D02*
D03*
X36319D02*
D03*
X37303D02*
D03*
X49902D02*
D03*
X48917D02*
D03*
D75*
X1427Y18022D02*
D03*
Y16447D02*
D03*
X30167Y18022D02*
D03*
Y16447D02*
D03*
X1427Y46762D02*
D03*
Y45187D02*
D03*
X30167Y46762D02*
D03*
Y45187D02*
D03*
D76*
X23925Y787D02*
D03*
X5815D02*
D03*
X52665D02*
D03*
X34555D02*
D03*
X23925Y29528D02*
D03*
X5815D02*
D03*
X52665D02*
D03*
X34555D02*
D03*
D77*
X14171Y26352D02*
D03*
X14970D02*
D03*
X15770D02*
D03*
X42911D02*
D03*
X43711D02*
D03*
X44510D02*
D03*
X14171Y55093D02*
D03*
X14970D02*
D03*
X15770D02*
D03*
X42911D02*
D03*
X43711D02*
D03*
X44510D02*
D03*
D78*
X11870Y27703D02*
D03*
X16870D02*
D03*
X40610D02*
D03*
X45610D02*
D03*
X11870Y56443D02*
D03*
X16870D02*
D03*
X40610D02*
D03*
X45610D02*
D03*
D79*
X8169Y26378D02*
D03*
X36909D02*
D03*
X8169Y55118D02*
D03*
X36909D02*
D03*
D80*
X9547Y26378D02*
D03*
X38287D02*
D03*
X9547Y55118D02*
D03*
X38287D02*
D03*
M02*
