G04*
G04 #@! TF.GenerationSoftware,Altium Limited,Altium Designer,18.1.11 (251)*
G04*
G04 Layer_Color=32768*
%FSLAX24Y24*%
%MOIN*%
G70*
G01*
G75*
%ADD10C,0.0079*%
D10*
X55433Y3622D02*
G03*
X53858Y2047I0J-1575D01*
G01*
X3622Y2048D02*
G03*
X2047Y3622I-1575J0D01*
G01*
X2047Y53858D02*
G03*
X3622Y55433I0J1575D01*
G01*
X53858Y55433D02*
G03*
X55433Y53858I1575J0D01*
G01*
Y32362D02*
G03*
X53858Y30788I0J-1575D01*
G01*
X53858Y26693D02*
G03*
X55433Y25118I1575J0D01*
G01*
X25118Y55433D02*
G03*
X26693Y53858I1575J0D01*
G01*
X30787Y53858D02*
G03*
X32362Y55433I0J1575D01*
G01*
X32362Y2047D02*
G03*
X30787Y3622I-1575J0D01*
G01*
X26693Y3622D02*
G03*
X25118Y2047I0J-1575D01*
G01*
X32362Y30788D02*
G03*
X30787Y32362I-1575J0D01*
G01*
X3622Y30788D02*
G03*
X2047Y32362I-1575J0D01*
G01*
X30787Y25118D02*
G03*
X32362Y26693I0J1575D01*
G01*
X2047Y25118D02*
G03*
X3622Y26693I0J1575D01*
G01*
X26693Y32362D02*
G03*
X25118Y30788I0J-1575D01*
G01*
X25118Y26693D02*
G03*
X26693Y25118I1575J0D01*
G01*
X53858Y-1142D02*
Y2047D01*
X55433Y3622D02*
X58661D01*
Y-1142D02*
Y3622D01*
X53858Y-1142D02*
X58661D01*
X-1142Y3622D02*
X2047D01*
X3622Y-1181D02*
Y2048D01*
X-1142Y-1181D02*
X3622D01*
X-1142D02*
Y3622D01*
X3622Y55433D02*
Y58622D01*
X-1181Y53858D02*
X2047D01*
X-1181D02*
Y58622D01*
X3622D01*
X58622Y53858D02*
Y58661D01*
X53858D02*
X58622D01*
X53858Y55433D02*
Y58661D01*
X55433Y53858D02*
X58622D01*
X53858Y26693D02*
X53858D01*
X53858D02*
Y30788D01*
X55433Y25118D02*
X58661D01*
Y32362D01*
X55433D02*
X58661D01*
X30787Y53858D02*
Y53858D01*
X26693Y53858D02*
X30787D01*
X32362Y55433D02*
Y58662D01*
X25118D02*
X32362D01*
X25118Y55433D02*
Y58662D01*
X26693Y3622D02*
Y3622D01*
X30787D01*
X25118Y-1181D02*
Y2047D01*
Y-1181D02*
X32362D01*
Y2047D01*
X-1181Y25118D02*
X2047D01*
X-1181D02*
Y32362D01*
X2047D01*
X3622Y26693D02*
Y30788D01*
X3622D02*
X3622D01*
X32362Y26693D02*
Y30788D01*
Y26693D02*
X32362D01*
X26693Y25118D02*
X30787D01*
X25118Y26693D02*
Y30788D01*
X25118D02*
X25118D01*
X26693Y32362D02*
X30787D01*
X-3937Y-3937D02*
Y61417D01*
X61417D01*
X61417Y-3937D01*
X-3937D02*
X61417D01*
M02*
