G04*
G04 #@! TF.GenerationSoftware,Altium Limited,Altium Designer,18.1.11 (251)*
G04*
G04 Layer_Color=65535*
%FSLAX24Y24*%
%MOIN*%
G70*
G01*
G75*
%ADD10C,0.0079*%
%ADD13C,0.0100*%
G36*
X54117Y34371D02*
X54122D01*
X54134Y34370D01*
X54148Y34368D01*
X54163Y34365D01*
X54179Y34361D01*
X54194Y34355D01*
X54195D01*
X54196Y34354D01*
X54198Y34354D01*
X54201Y34352D01*
X54209Y34349D01*
X54218Y34343D01*
X54229Y34337D01*
X54241Y34329D01*
X54252Y34320D01*
X54264Y34309D01*
X54266Y34308D01*
X54269Y34304D01*
X54274Y34298D01*
X54281Y34290D01*
X54288Y34279D01*
X54296Y34268D01*
X54304Y34254D01*
X54310Y34239D01*
Y34238D01*
X54311Y34237D01*
X54312Y34235D01*
X54313Y34232D01*
X54314Y34228D01*
X54315Y34224D01*
X54319Y34213D01*
X54322Y34199D01*
X54324Y34184D01*
X54326Y34167D01*
X54327Y34149D01*
Y34093D01*
X54130D01*
Y34137D01*
Y34139D01*
Y34142D01*
X54129Y34147D01*
X54128Y34152D01*
X54126Y34159D01*
X54123Y34166D01*
X54119Y34173D01*
X54113Y34179D01*
X54113Y34180D01*
X54110Y34182D01*
X54107Y34185D01*
X54102Y34188D01*
X54096Y34191D01*
X54088Y34193D01*
X54080Y34195D01*
X54071Y34196D01*
X53922D01*
X53917Y34195D01*
X53911Y34194D01*
X53905Y34192D01*
X53897Y34189D01*
X53890Y34185D01*
X53884Y34179D01*
X53883Y34179D01*
X53881Y34177D01*
X53878Y34173D01*
X53876Y34168D01*
X53873Y34162D01*
X53870Y34154D01*
X53868Y34146D01*
X53868Y34136D01*
Y34062D01*
Y34061D01*
Y34058D01*
X53868Y34053D01*
X53870Y34047D01*
X53871Y34040D01*
X53874Y34033D01*
X53878Y34026D01*
X53884Y34019D01*
X53884Y34018D01*
X53887Y34017D01*
X53890Y34014D01*
X53895Y34011D01*
X53902Y34008D01*
X53909Y34005D01*
X53917Y34004D01*
X53927Y34003D01*
X54119D01*
X54123Y34002D01*
X54129D01*
X54140Y34001D01*
X54154Y33999D01*
X54169Y33996D01*
X54185Y33992D01*
X54201Y33986D01*
X54201D01*
X54203Y33986D01*
X54204Y33985D01*
X54207Y33983D01*
X54215Y33980D01*
X54225Y33975D01*
X54236Y33968D01*
X54247Y33960D01*
X54259Y33951D01*
X54271Y33940D01*
X54272Y33939D01*
X54276Y33935D01*
X54281Y33929D01*
X54287Y33921D01*
X54295Y33910D01*
X54303Y33899D01*
X54310Y33885D01*
X54317Y33870D01*
Y33870D01*
X54317Y33868D01*
X54318Y33866D01*
X54320Y33863D01*
X54320Y33859D01*
X54322Y33855D01*
X54325Y33844D01*
X54328Y33830D01*
X54330Y33815D01*
X54333Y33798D01*
X54333Y33780D01*
Y33676D01*
Y33675D01*
Y33674D01*
Y33671D01*
Y33668D01*
X54333Y33663D01*
Y33658D01*
X54331Y33646D01*
X54329Y33632D01*
X54326Y33617D01*
X54322Y33601D01*
X54317Y33585D01*
Y33585D01*
X54316Y33584D01*
X54315Y33582D01*
X54314Y33579D01*
X54310Y33571D01*
X54305Y33561D01*
X54298Y33550D01*
X54290Y33538D01*
X54282Y33526D01*
X54271Y33515D01*
X54269Y33513D01*
X54266Y33509D01*
X54259Y33504D01*
X54251Y33498D01*
X54241Y33491D01*
X54229Y33483D01*
X54215Y33476D01*
X54201Y33469D01*
X54200D01*
X54199Y33469D01*
X54196Y33468D01*
X54193Y33467D01*
X54190Y33466D01*
X54185Y33464D01*
X54174Y33461D01*
X54161Y33458D01*
X54145Y33456D01*
X54129Y33454D01*
X54110Y33453D01*
X53872D01*
X53868Y33454D01*
X53862D01*
X53851Y33456D01*
X53836Y33457D01*
X53821Y33460D01*
X53805Y33464D01*
X53790Y33469D01*
X53789D01*
X53788Y33470D01*
X53786Y33471D01*
X53783Y33472D01*
X53775Y33476D01*
X53766Y33481D01*
X53755Y33488D01*
X53743Y33495D01*
X53731Y33504D01*
X53720Y33515D01*
X53718Y33516D01*
X53714Y33520D01*
X53709Y33526D01*
X53703Y33535D01*
X53696Y33545D01*
X53688Y33557D01*
X53680Y33571D01*
X53674Y33585D01*
Y33586D01*
X53673Y33587D01*
X53672Y33590D01*
X53671Y33593D01*
X53670Y33596D01*
X53669Y33601D01*
X53666Y33612D01*
X53663Y33625D01*
X53660Y33641D01*
X53658Y33657D01*
X53658Y33676D01*
Y33733D01*
X53854D01*
Y33687D01*
Y33686D01*
Y33683D01*
X53855Y33678D01*
X53857Y33672D01*
X53858Y33665D01*
X53861Y33658D01*
X53865Y33652D01*
X53870Y33645D01*
X53871Y33644D01*
X53873Y33643D01*
X53877Y33640D01*
X53882Y33637D01*
X53889Y33634D01*
X53896Y33631D01*
X53904Y33630D01*
X53913Y33629D01*
X54082D01*
X54087Y33630D01*
X54093Y33631D01*
X54099Y33633D01*
X54107Y33636D01*
X54113Y33640D01*
X54120Y33645D01*
X54121Y33646D01*
X54123Y33648D01*
X54125Y33652D01*
X54129Y33657D01*
X54131Y33663D01*
X54134Y33671D01*
X54136Y33679D01*
X54137Y33688D01*
Y33768D01*
Y33769D01*
Y33772D01*
X54136Y33777D01*
X54134Y33783D01*
X54132Y33789D01*
X54129Y33797D01*
X54126Y33804D01*
X54120Y33811D01*
X54119Y33811D01*
X54117Y33813D01*
X54113Y33816D01*
X54109Y33819D01*
X54102Y33822D01*
X54095Y33824D01*
X54087Y33827D01*
X54078Y33827D01*
X53885D01*
X53881Y33828D01*
X53876D01*
X53864Y33830D01*
X53849Y33831D01*
X53834Y33834D01*
X53818Y33838D01*
X53803Y33843D01*
X53802D01*
X53801Y33844D01*
X53799Y33845D01*
X53796Y33846D01*
X53788Y33850D01*
X53779Y33856D01*
X53768Y33862D01*
X53756Y33870D01*
X53744Y33879D01*
X53733Y33889D01*
X53731Y33891D01*
X53728Y33894D01*
X53723Y33901D01*
X53716Y33909D01*
X53709Y33919D01*
X53701Y33932D01*
X53693Y33945D01*
X53687Y33959D01*
Y33960D01*
X53686Y33961D01*
X53685Y33964D01*
X53685Y33967D01*
X53683Y33970D01*
X53682Y33975D01*
X53679Y33986D01*
X53676Y33999D01*
X53673Y34015D01*
X53671Y34032D01*
X53671Y34050D01*
Y34149D01*
Y34150D01*
Y34151D01*
Y34154D01*
Y34158D01*
X53671Y34162D01*
Y34167D01*
X53673Y34179D01*
X53674Y34193D01*
X53677Y34208D01*
X53682Y34224D01*
X53687Y34239D01*
Y34240D01*
X53688Y34241D01*
X53688Y34243D01*
X53690Y34246D01*
X53693Y34254D01*
X53699Y34263D01*
X53706Y34274D01*
X53713Y34286D01*
X53723Y34298D01*
X53733Y34309D01*
X53734Y34311D01*
X53738Y34314D01*
X53744Y34319D01*
X53752Y34326D01*
X53763Y34333D01*
X53775Y34341D01*
X53788Y34349D01*
X53803Y34355D01*
X53803D01*
X53805Y34356D01*
X53807Y34357D01*
X53810Y34358D01*
X53814Y34359D01*
X53818Y34360D01*
X53830Y34364D01*
X53843Y34367D01*
X53858Y34369D01*
X53876Y34371D01*
X53894Y34372D01*
X54113D01*
X54117Y34371D01*
D02*
G37*
G36*
X49043D02*
X49048D01*
X49060Y34370D01*
X49074Y34368D01*
X49089Y34365D01*
X49105Y34361D01*
X49120Y34355D01*
X49121D01*
X49123Y34354D01*
X49124Y34354D01*
X49127Y34352D01*
X49135Y34349D01*
X49144Y34343D01*
X49155Y34337D01*
X49167Y34329D01*
X49179Y34320D01*
X49190Y34309D01*
X49192Y34308D01*
X49195Y34304D01*
X49201Y34298D01*
X49207Y34290D01*
X49214Y34279D01*
X49222Y34268D01*
X49230Y34254D01*
X49236Y34239D01*
Y34238D01*
X49237Y34237D01*
X49238Y34235D01*
X49239Y34232D01*
X49240Y34228D01*
X49241Y34224D01*
X49245Y34213D01*
X49248Y34199D01*
X49250Y34184D01*
X49252Y34167D01*
X49253Y34149D01*
Y34093D01*
X49056D01*
Y34137D01*
Y34139D01*
Y34142D01*
X49055Y34147D01*
X49054Y34152D01*
X49052Y34159D01*
X49049Y34166D01*
X49045Y34173D01*
X49039Y34179D01*
X49039Y34180D01*
X49036Y34182D01*
X49033Y34185D01*
X49028Y34188D01*
X49022Y34191D01*
X49015Y34193D01*
X49007Y34195D01*
X48997Y34196D01*
X48848D01*
X48843Y34195D01*
X48837Y34194D01*
X48831Y34192D01*
X48824Y34189D01*
X48816Y34185D01*
X48810Y34179D01*
X48809Y34179D01*
X48808Y34177D01*
X48805Y34173D01*
X48802Y34168D01*
X48799Y34162D01*
X48796Y34154D01*
X48794Y34146D01*
X48794Y34136D01*
Y34062D01*
Y34061D01*
Y34058D01*
X48794Y34053D01*
X48796Y34047D01*
X48797Y34040D01*
X48800Y34033D01*
X48805Y34026D01*
X48810Y34019D01*
X48811Y34018D01*
X48813Y34017D01*
X48816Y34014D01*
X48821Y34011D01*
X48828Y34008D01*
X48835Y34005D01*
X48843Y34004D01*
X48853Y34003D01*
X49045D01*
X49050Y34002D01*
X49055D01*
X49066Y34001D01*
X49080Y33999D01*
X49096Y33996D01*
X49112Y33992D01*
X49127Y33986D01*
X49128D01*
X49129Y33986D01*
X49131Y33985D01*
X49133Y33983D01*
X49141Y33980D01*
X49151Y33975D01*
X49162Y33968D01*
X49174Y33960D01*
X49185Y33951D01*
X49197Y33940D01*
X49198Y33939D01*
X49202Y33935D01*
X49207Y33929D01*
X49214Y33921D01*
X49221Y33910D01*
X49229Y33899D01*
X49236Y33885D01*
X49243Y33870D01*
Y33870D01*
X49244Y33868D01*
X49244Y33866D01*
X49246Y33863D01*
X49246Y33859D01*
X49248Y33855D01*
X49252Y33844D01*
X49254Y33830D01*
X49257Y33815D01*
X49259Y33798D01*
X49260Y33780D01*
Y33676D01*
Y33675D01*
Y33674D01*
Y33671D01*
Y33668D01*
X49259Y33663D01*
Y33658D01*
X49257Y33646D01*
X49255Y33632D01*
X49252Y33617D01*
X49249Y33601D01*
X49243Y33585D01*
Y33585D01*
X49242Y33584D01*
X49241Y33582D01*
X49240Y33579D01*
X49236Y33571D01*
X49231Y33561D01*
X49225Y33550D01*
X49217Y33538D01*
X49208Y33526D01*
X49197Y33515D01*
X49195Y33513D01*
X49192Y33509D01*
X49185Y33504D01*
X49177Y33498D01*
X49167Y33491D01*
X49155Y33483D01*
X49141Y33476D01*
X49127Y33469D01*
X49126D01*
X49125Y33469D01*
X49123Y33468D01*
X49120Y33467D01*
X49116Y33466D01*
X49112Y33464D01*
X49101Y33461D01*
X49087Y33458D01*
X49071Y33456D01*
X49055Y33454D01*
X49036Y33453D01*
X48798D01*
X48794Y33454D01*
X48789D01*
X48777Y33456D01*
X48762Y33457D01*
X48747Y33460D01*
X48731Y33464D01*
X48716Y33469D01*
X48715D01*
X48714Y33470D01*
X48712Y33471D01*
X48709Y33472D01*
X48701Y33476D01*
X48692Y33481D01*
X48681Y33488D01*
X48669Y33495D01*
X48657Y33504D01*
X48646Y33515D01*
X48644Y33516D01*
X48641Y33520D01*
X48636Y33526D01*
X48629Y33535D01*
X48622Y33545D01*
X48614Y33557D01*
X48606Y33571D01*
X48600Y33585D01*
Y33586D01*
X48599Y33587D01*
X48598Y33590D01*
X48598Y33593D01*
X48596Y33596D01*
X48595Y33601D01*
X48592Y33612D01*
X48589Y33625D01*
X48586Y33641D01*
X48584Y33657D01*
X48584Y33676D01*
Y33733D01*
X48781D01*
Y33687D01*
Y33686D01*
Y33683D01*
X48781Y33678D01*
X48783Y33672D01*
X48784Y33665D01*
X48787Y33658D01*
X48792Y33652D01*
X48797Y33645D01*
X48797Y33644D01*
X48800Y33643D01*
X48803Y33640D01*
X48808Y33637D01*
X48815Y33634D01*
X48822Y33631D01*
X48830Y33630D01*
X48840Y33629D01*
X49008D01*
X49013Y33630D01*
X49019Y33631D01*
X49026Y33633D01*
X49033Y33636D01*
X49039Y33640D01*
X49046Y33645D01*
X49047Y33646D01*
X49049Y33648D01*
X49051Y33652D01*
X49055Y33657D01*
X49058Y33663D01*
X49060Y33671D01*
X49062Y33679D01*
X49063Y33688D01*
Y33768D01*
Y33769D01*
Y33772D01*
X49062Y33777D01*
X49061Y33783D01*
X49058Y33789D01*
X49055Y33797D01*
X49052Y33804D01*
X49046Y33811D01*
X49045Y33811D01*
X49043Y33813D01*
X49039Y33816D01*
X49035Y33819D01*
X49028Y33822D01*
X49021Y33824D01*
X49013Y33827D01*
X49004Y33827D01*
X48811D01*
X48807Y33828D01*
X48802D01*
X48790Y33830D01*
X48776Y33831D01*
X48760Y33834D01*
X48744Y33838D01*
X48729Y33843D01*
X48728D01*
X48727Y33844D01*
X48725Y33845D01*
X48722Y33846D01*
X48714Y33850D01*
X48705Y33856D01*
X48694Y33862D01*
X48682Y33870D01*
X48671Y33879D01*
X48659Y33889D01*
X48657Y33891D01*
X48654Y33894D01*
X48649Y33901D01*
X48642Y33909D01*
X48635Y33919D01*
X48628Y33932D01*
X48619Y33945D01*
X48613Y33959D01*
Y33960D01*
X48612Y33961D01*
X48611Y33964D01*
X48611Y33967D01*
X48609Y33970D01*
X48608Y33975D01*
X48605Y33986D01*
X48602Y33999D01*
X48599Y34015D01*
X48598Y34032D01*
X48597Y34050D01*
Y34149D01*
Y34150D01*
Y34151D01*
Y34154D01*
Y34158D01*
X48598Y34162D01*
Y34167D01*
X48599Y34179D01*
X48601Y34193D01*
X48603Y34208D01*
X48608Y34224D01*
X48613Y34239D01*
Y34240D01*
X48614Y34241D01*
X48614Y34243D01*
X48616Y34246D01*
X48619Y34254D01*
X48625Y34263D01*
X48632Y34274D01*
X48639Y34286D01*
X48649Y34298D01*
X48659Y34309D01*
X48660Y34311D01*
X48664Y34314D01*
X48671Y34319D01*
X48679Y34326D01*
X48689Y34333D01*
X48701Y34341D01*
X48714Y34349D01*
X48729Y34355D01*
X48730D01*
X48731Y34356D01*
X48733Y34357D01*
X48736Y34358D01*
X48740Y34359D01*
X48744Y34360D01*
X48756Y34364D01*
X48769Y34367D01*
X48784Y34369D01*
X48802Y34371D01*
X48820Y34372D01*
X49039D01*
X49043Y34371D01*
D02*
G37*
G36*
X25377D02*
X25382D01*
X25393Y34370D01*
X25407Y34368D01*
X25423Y34365D01*
X25439Y34361D01*
X25454Y34355D01*
X25455D01*
X25456Y34354D01*
X25458Y34354D01*
X25461Y34352D01*
X25469Y34349D01*
X25478Y34343D01*
X25489Y34337D01*
X25501Y34329D01*
X25512Y34320D01*
X25524Y34309D01*
X25525Y34308D01*
X25529Y34304D01*
X25534Y34298D01*
X25541Y34290D01*
X25548Y34279D01*
X25556Y34268D01*
X25563Y34254D01*
X25570Y34239D01*
Y34238D01*
X25571Y34237D01*
X25571Y34235D01*
X25573Y34232D01*
X25574Y34228D01*
X25575Y34224D01*
X25579Y34213D01*
X25582Y34199D01*
X25584Y34184D01*
X25586Y34167D01*
X25587Y34149D01*
Y34093D01*
X25390D01*
Y34137D01*
Y34139D01*
Y34142D01*
X25389Y34147D01*
X25388Y34152D01*
X25385Y34159D01*
X25383Y34166D01*
X25379Y34173D01*
X25373Y34179D01*
X25372Y34180D01*
X25370Y34182D01*
X25367Y34185D01*
X25362Y34188D01*
X25356Y34191D01*
X25348Y34193D01*
X25340Y34195D01*
X25331Y34196D01*
X25182D01*
X25177Y34195D01*
X25171Y34194D01*
X25165Y34192D01*
X25157Y34189D01*
X25150Y34185D01*
X25143Y34179D01*
X25143Y34179D01*
X25141Y34177D01*
X25138Y34173D01*
X25135Y34168D01*
X25133Y34162D01*
X25130Y34154D01*
X25128Y34146D01*
X25127Y34136D01*
Y34062D01*
Y34061D01*
Y34058D01*
X25128Y34053D01*
X25130Y34047D01*
X25131Y34040D01*
X25134Y34033D01*
X25138Y34026D01*
X25143Y34019D01*
X25144Y34018D01*
X25146Y34017D01*
X25150Y34014D01*
X25155Y34011D01*
X25162Y34008D01*
X25169Y34005D01*
X25177Y34004D01*
X25186Y34003D01*
X25379D01*
X25383Y34002D01*
X25388D01*
X25400Y34001D01*
X25414Y33999D01*
X25429Y33996D01*
X25445Y33992D01*
X25461Y33986D01*
X25461D01*
X25463Y33986D01*
X25464Y33985D01*
X25467Y33983D01*
X25475Y33980D01*
X25485Y33975D01*
X25496Y33968D01*
X25507Y33960D01*
X25519Y33951D01*
X25531Y33940D01*
X25532Y33939D01*
X25536Y33935D01*
X25541Y33929D01*
X25547Y33921D01*
X25555Y33910D01*
X25563Y33899D01*
X25570Y33885D01*
X25576Y33870D01*
Y33870D01*
X25577Y33868D01*
X25578Y33866D01*
X25579Y33863D01*
X25580Y33859D01*
X25582Y33855D01*
X25585Y33844D01*
X25588Y33830D01*
X25590Y33815D01*
X25593Y33798D01*
X25593Y33780D01*
Y33676D01*
Y33675D01*
Y33674D01*
Y33671D01*
Y33668D01*
X25593Y33663D01*
Y33658D01*
X25591Y33646D01*
X25589Y33632D01*
X25586Y33617D01*
X25582Y33601D01*
X25576Y33585D01*
Y33585D01*
X25576Y33584D01*
X25575Y33582D01*
X25574Y33579D01*
X25570Y33571D01*
X25565Y33561D01*
X25558Y33550D01*
X25550Y33538D01*
X25541Y33526D01*
X25531Y33515D01*
X25529Y33513D01*
X25525Y33509D01*
X25519Y33504D01*
X25511Y33498D01*
X25501Y33491D01*
X25489Y33483D01*
X25475Y33476D01*
X25461Y33469D01*
X25460D01*
X25458Y33469D01*
X25456Y33468D01*
X25453Y33467D01*
X25450Y33466D01*
X25445Y33464D01*
X25434Y33461D01*
X25420Y33458D01*
X25405Y33456D01*
X25388Y33454D01*
X25370Y33453D01*
X25132D01*
X25127Y33454D01*
X25122D01*
X25111Y33456D01*
X25096Y33457D01*
X25081Y33460D01*
X25065Y33464D01*
X25049Y33469D01*
X25049D01*
X25048Y33470D01*
X25046Y33471D01*
X25043Y33472D01*
X25035Y33476D01*
X25025Y33481D01*
X25014Y33488D01*
X25003Y33495D01*
X24991Y33504D01*
X24979Y33515D01*
X24978Y33516D01*
X24974Y33520D01*
X24969Y33526D01*
X24963Y33535D01*
X24955Y33545D01*
X24948Y33557D01*
X24940Y33571D01*
X24934Y33585D01*
Y33586D01*
X24933Y33587D01*
X24932Y33590D01*
X24931Y33593D01*
X24930Y33596D01*
X24928Y33601D01*
X24925Y33612D01*
X24923Y33625D01*
X24920Y33641D01*
X24918Y33657D01*
X24917Y33676D01*
Y33733D01*
X25114D01*
Y33687D01*
Y33686D01*
Y33683D01*
X25115Y33678D01*
X25116Y33672D01*
X25118Y33665D01*
X25121Y33658D01*
X25125Y33652D01*
X25130Y33645D01*
X25131Y33644D01*
X25133Y33643D01*
X25137Y33640D01*
X25142Y33637D01*
X25149Y33634D01*
X25156Y33631D01*
X25164Y33630D01*
X25173Y33629D01*
X25342D01*
X25347Y33630D01*
X25353Y33631D01*
X25359Y33633D01*
X25367Y33636D01*
X25373Y33640D01*
X25380Y33645D01*
X25380Y33646D01*
X25383Y33648D01*
X25385Y33652D01*
X25388Y33657D01*
X25391Y33663D01*
X25393Y33671D01*
X25396Y33679D01*
X25396Y33688D01*
Y33768D01*
Y33769D01*
Y33772D01*
X25396Y33777D01*
X25394Y33783D01*
X25392Y33789D01*
X25389Y33797D01*
X25385Y33804D01*
X25380Y33811D01*
X25379Y33811D01*
X25377Y33813D01*
X25373Y33816D01*
X25369Y33819D01*
X25362Y33822D01*
X25355Y33824D01*
X25347Y33827D01*
X25337Y33827D01*
X25145D01*
X25141Y33828D01*
X25135D01*
X25124Y33830D01*
X25109Y33831D01*
X25094Y33834D01*
X25078Y33838D01*
X25063Y33843D01*
X25062D01*
X25061Y33844D01*
X25059Y33845D01*
X25056Y33846D01*
X25048Y33850D01*
X25038Y33856D01*
X25028Y33862D01*
X25016Y33870D01*
X25004Y33879D01*
X24993Y33889D01*
X24991Y33891D01*
X24987Y33894D01*
X24982Y33901D01*
X24976Y33909D01*
X24968Y33919D01*
X24961Y33932D01*
X24953Y33945D01*
X24947Y33959D01*
Y33960D01*
X24946Y33961D01*
X24945Y33964D01*
X24944Y33967D01*
X24943Y33970D01*
X24942Y33975D01*
X24939Y33986D01*
X24936Y33999D01*
X24933Y34015D01*
X24931Y34032D01*
X24931Y34050D01*
Y34149D01*
Y34150D01*
Y34151D01*
Y34154D01*
Y34158D01*
X24931Y34162D01*
Y34167D01*
X24933Y34179D01*
X24934Y34193D01*
X24937Y34208D01*
X24942Y34224D01*
X24947Y34239D01*
Y34240D01*
X24947Y34241D01*
X24948Y34243D01*
X24950Y34246D01*
X24953Y34254D01*
X24959Y34263D01*
X24966Y34274D01*
X24973Y34286D01*
X24982Y34298D01*
X24993Y34309D01*
X24994Y34311D01*
X24998Y34314D01*
X25004Y34319D01*
X25012Y34326D01*
X25022Y34333D01*
X25035Y34341D01*
X25048Y34349D01*
X25063Y34355D01*
X25063D01*
X25065Y34356D01*
X25067Y34357D01*
X25070Y34358D01*
X25073Y34359D01*
X25078Y34360D01*
X25089Y34364D01*
X25103Y34367D01*
X25118Y34369D01*
X25135Y34371D01*
X25154Y34372D01*
X25372D01*
X25377Y34371D01*
D02*
G37*
G36*
X20303D02*
X20308D01*
X20320Y34370D01*
X20334Y34368D01*
X20349Y34365D01*
X20365Y34361D01*
X20380Y34355D01*
X20381D01*
X20382Y34354D01*
X20384Y34354D01*
X20387Y34352D01*
X20395Y34349D01*
X20404Y34343D01*
X20415Y34337D01*
X20427Y34329D01*
X20438Y34320D01*
X20450Y34309D01*
X20452Y34308D01*
X20455Y34304D01*
X20460Y34298D01*
X20467Y34290D01*
X20474Y34279D01*
X20482Y34268D01*
X20490Y34254D01*
X20496Y34239D01*
Y34238D01*
X20497Y34237D01*
X20498Y34235D01*
X20499Y34232D01*
X20500Y34228D01*
X20501Y34224D01*
X20505Y34213D01*
X20508Y34199D01*
X20510Y34184D01*
X20512Y34167D01*
X20513Y34149D01*
Y34093D01*
X20316D01*
Y34137D01*
Y34139D01*
Y34142D01*
X20315Y34147D01*
X20314Y34152D01*
X20312Y34159D01*
X20309Y34166D01*
X20305Y34173D01*
X20299Y34179D01*
X20299Y34180D01*
X20296Y34182D01*
X20293Y34185D01*
X20288Y34188D01*
X20282Y34191D01*
X20274Y34193D01*
X20266Y34195D01*
X20257Y34196D01*
X20108D01*
X20103Y34195D01*
X20097Y34194D01*
X20091Y34192D01*
X20083Y34189D01*
X20076Y34185D01*
X20070Y34179D01*
X20069Y34179D01*
X20067Y34177D01*
X20064Y34173D01*
X20062Y34168D01*
X20059Y34162D01*
X20056Y34154D01*
X20054Y34146D01*
X20054Y34136D01*
Y34062D01*
Y34061D01*
Y34058D01*
X20054Y34053D01*
X20056Y34047D01*
X20057Y34040D01*
X20060Y34033D01*
X20064Y34026D01*
X20070Y34019D01*
X20070Y34018D01*
X20073Y34017D01*
X20076Y34014D01*
X20081Y34011D01*
X20088Y34008D01*
X20095Y34005D01*
X20103Y34004D01*
X20113Y34003D01*
X20305D01*
X20309Y34002D01*
X20315D01*
X20326Y34001D01*
X20340Y33999D01*
X20355Y33996D01*
X20371Y33992D01*
X20387Y33986D01*
X20387D01*
X20389Y33986D01*
X20390Y33985D01*
X20393Y33983D01*
X20401Y33980D01*
X20411Y33975D01*
X20422Y33968D01*
X20433Y33960D01*
X20445Y33951D01*
X20457Y33940D01*
X20458Y33939D01*
X20462Y33935D01*
X20467Y33929D01*
X20473Y33921D01*
X20481Y33910D01*
X20489Y33899D01*
X20496Y33885D01*
X20503Y33870D01*
Y33870D01*
X20503Y33868D01*
X20504Y33866D01*
X20506Y33863D01*
X20506Y33859D01*
X20508Y33855D01*
X20511Y33844D01*
X20514Y33830D01*
X20516Y33815D01*
X20519Y33798D01*
X20519Y33780D01*
Y33676D01*
Y33675D01*
Y33674D01*
Y33671D01*
Y33668D01*
X20519Y33663D01*
Y33658D01*
X20517Y33646D01*
X20515Y33632D01*
X20512Y33617D01*
X20508Y33601D01*
X20503Y33585D01*
Y33585D01*
X20502Y33584D01*
X20501Y33582D01*
X20500Y33579D01*
X20496Y33571D01*
X20491Y33561D01*
X20484Y33550D01*
X20476Y33538D01*
X20468Y33526D01*
X20457Y33515D01*
X20455Y33513D01*
X20452Y33509D01*
X20445Y33504D01*
X20437Y33498D01*
X20427Y33491D01*
X20415Y33483D01*
X20401Y33476D01*
X20387Y33469D01*
X20386D01*
X20385Y33469D01*
X20382Y33468D01*
X20379Y33467D01*
X20376Y33466D01*
X20371Y33464D01*
X20360Y33461D01*
X20347Y33458D01*
X20331Y33456D01*
X20315Y33454D01*
X20296Y33453D01*
X20058D01*
X20054Y33454D01*
X20048D01*
X20037Y33456D01*
X20022Y33457D01*
X20007Y33460D01*
X19991Y33464D01*
X19976Y33469D01*
X19975D01*
X19974Y33470D01*
X19972Y33471D01*
X19969Y33472D01*
X19961Y33476D01*
X19952Y33481D01*
X19941Y33488D01*
X19929Y33495D01*
X19917Y33504D01*
X19906Y33515D01*
X19904Y33516D01*
X19900Y33520D01*
X19895Y33526D01*
X19889Y33535D01*
X19882Y33545D01*
X19874Y33557D01*
X19866Y33571D01*
X19860Y33585D01*
Y33586D01*
X19859Y33587D01*
X19858Y33590D01*
X19857Y33593D01*
X19856Y33596D01*
X19855Y33601D01*
X19852Y33612D01*
X19849Y33625D01*
X19846Y33641D01*
X19844Y33657D01*
X19844Y33676D01*
Y33733D01*
X20040D01*
Y33687D01*
Y33686D01*
Y33683D01*
X20041Y33678D01*
X20043Y33672D01*
X20044Y33665D01*
X20047Y33658D01*
X20051Y33652D01*
X20056Y33645D01*
X20057Y33644D01*
X20059Y33643D01*
X20063Y33640D01*
X20068Y33637D01*
X20075Y33634D01*
X20082Y33631D01*
X20090Y33630D01*
X20099Y33629D01*
X20268D01*
X20273Y33630D01*
X20279Y33631D01*
X20285Y33633D01*
X20293Y33636D01*
X20299Y33640D01*
X20306Y33645D01*
X20307Y33646D01*
X20309Y33648D01*
X20311Y33652D01*
X20315Y33657D01*
X20317Y33663D01*
X20320Y33671D01*
X20322Y33679D01*
X20323Y33688D01*
Y33768D01*
Y33769D01*
Y33772D01*
X20322Y33777D01*
X20320Y33783D01*
X20318Y33789D01*
X20315Y33797D01*
X20312Y33804D01*
X20306Y33811D01*
X20305Y33811D01*
X20303Y33813D01*
X20299Y33816D01*
X20295Y33819D01*
X20288Y33822D01*
X20281Y33824D01*
X20273Y33827D01*
X20264Y33827D01*
X20071D01*
X20067Y33828D01*
X20062D01*
X20050Y33830D01*
X20035Y33831D01*
X20020Y33834D01*
X20004Y33838D01*
X19989Y33843D01*
X19988D01*
X19987Y33844D01*
X19985Y33845D01*
X19982Y33846D01*
X19974Y33850D01*
X19965Y33856D01*
X19954Y33862D01*
X19942Y33870D01*
X19930Y33879D01*
X19919Y33889D01*
X19917Y33891D01*
X19914Y33894D01*
X19908Y33901D01*
X19902Y33909D01*
X19895Y33919D01*
X19887Y33932D01*
X19879Y33945D01*
X19873Y33959D01*
Y33960D01*
X19872Y33961D01*
X19871Y33964D01*
X19871Y33967D01*
X19869Y33970D01*
X19868Y33975D01*
X19865Y33986D01*
X19862Y33999D01*
X19859Y34015D01*
X19857Y34032D01*
X19857Y34050D01*
Y34149D01*
Y34150D01*
Y34151D01*
Y34154D01*
Y34158D01*
X19857Y34162D01*
Y34167D01*
X19859Y34179D01*
X19860Y34193D01*
X19863Y34208D01*
X19868Y34224D01*
X19873Y34239D01*
Y34240D01*
X19874Y34241D01*
X19874Y34243D01*
X19876Y34246D01*
X19879Y34254D01*
X19885Y34263D01*
X19892Y34274D01*
X19899Y34286D01*
X19908Y34298D01*
X19919Y34309D01*
X19920Y34311D01*
X19924Y34314D01*
X19930Y34319D01*
X19938Y34326D01*
X19949Y34333D01*
X19961Y34341D01*
X19974Y34349D01*
X19989Y34355D01*
X19989D01*
X19991Y34356D01*
X19993Y34357D01*
X19996Y34358D01*
X20000Y34359D01*
X20004Y34360D01*
X20016Y34364D01*
X20029Y34367D01*
X20044Y34369D01*
X20062Y34371D01*
X20080Y34372D01*
X20299D01*
X20303Y34371D01*
D02*
G37*
G36*
X51969Y34115D02*
X51978Y34112D01*
X51988Y34109D01*
Y33954D01*
X51879D01*
X51872Y33953D01*
X51863Y33951D01*
X51853Y33948D01*
X51842Y33944D01*
X51831Y33938D01*
X51822Y33930D01*
X51821Y33929D01*
X51818Y33926D01*
X51815Y33921D01*
X51810Y33913D01*
X51805Y33904D01*
X51802Y33893D01*
X51799Y33881D01*
X51798Y33867D01*
Y33453D01*
X51608D01*
Y34109D01*
X51785D01*
X51798Y34039D01*
X51803D01*
X51804Y34040D01*
X51804Y34042D01*
X51807Y34045D01*
X51809Y34048D01*
X51813Y34053D01*
X51816Y34058D01*
X51826Y34069D01*
X51838Y34080D01*
X51853Y34092D01*
X51868Y34102D01*
X51877Y34107D01*
X51885Y34110D01*
X51886D01*
X51888Y34111D01*
X51891Y34112D01*
X51894Y34112D01*
X51899Y34114D01*
X51904Y34115D01*
X51909Y34116D01*
X51917Y34117D01*
X51932Y34117D01*
X51950D01*
X51969Y34115D01*
D02*
G37*
G36*
X23228D02*
X23238Y34112D01*
X23248Y34109D01*
Y33954D01*
X23139D01*
X23131Y33953D01*
X23123Y33951D01*
X23112Y33948D01*
X23102Y33944D01*
X23091Y33938D01*
X23082Y33930D01*
X23081Y33929D01*
X23078Y33926D01*
X23075Y33921D01*
X23070Y33913D01*
X23065Y33904D01*
X23061Y33893D01*
X23059Y33881D01*
X23058Y33867D01*
Y33453D01*
X22868D01*
Y34109D01*
X23045D01*
X23058Y34039D01*
X23063D01*
X23064Y34040D01*
X23064Y34042D01*
X23067Y34045D01*
X23069Y34048D01*
X23072Y34053D01*
X23076Y34058D01*
X23086Y34069D01*
X23098Y34080D01*
X23112Y34092D01*
X23128Y34102D01*
X23137Y34107D01*
X23145Y34110D01*
X23146D01*
X23147Y34111D01*
X23150Y34112D01*
X23154Y34112D01*
X23158Y34114D01*
X23163Y34115D01*
X23169Y34116D01*
X23177Y34117D01*
X23192Y34117D01*
X23209D01*
X23228Y34115D01*
D02*
G37*
G36*
X50989Y34443D02*
X50995D01*
X51007Y34442D01*
X51022Y34440D01*
X51038Y34436D01*
X51054Y34432D01*
X51071Y34426D01*
X51072D01*
X51073Y34425D01*
X51076Y34424D01*
X51078Y34423D01*
X51086Y34419D01*
X51097Y34413D01*
X51109Y34406D01*
X51121Y34398D01*
X51134Y34388D01*
X51146Y34377D01*
X51147D01*
X51148Y34376D01*
X51151Y34371D01*
X51157Y34365D01*
X51164Y34356D01*
X51172Y34345D01*
X51180Y34332D01*
X51188Y34318D01*
X51195Y34302D01*
Y34301D01*
X51196Y34300D01*
X51197Y34298D01*
X51198Y34295D01*
X51199Y34290D01*
X51201Y34286D01*
X51205Y34274D01*
X51207Y34260D01*
X51210Y34244D01*
X51213Y34225D01*
X51213Y34206D01*
Y34206D01*
Y34204D01*
Y34201D01*
Y34198D01*
X51213Y34193D01*
Y34187D01*
X51211Y34175D01*
X51209Y34160D01*
X51205Y34144D01*
X51201Y34127D01*
X51195Y34110D01*
Y34109D01*
X51194Y34108D01*
X51194Y34106D01*
X51192Y34103D01*
X51188Y34095D01*
X51183Y34085D01*
X51175Y34073D01*
X51167Y34061D01*
X51157Y34048D01*
X51146Y34036D01*
X51145Y34034D01*
X51140Y34031D01*
X51134Y34025D01*
X51125Y34018D01*
X51114Y34010D01*
X51101Y34002D01*
X51087Y33994D01*
X51071Y33987D01*
X51070D01*
X51069Y33986D01*
X51067Y33986D01*
X51064Y33984D01*
X51059Y33983D01*
X51055Y33981D01*
X51043Y33978D01*
X51029Y33975D01*
X51013Y33972D01*
X50995Y33970D01*
X50976Y33969D01*
X50967D01*
X50963Y33970D01*
X50957D01*
X50944Y33972D01*
X50929Y33974D01*
X50913Y33977D01*
X50896Y33981D01*
X50879Y33987D01*
X50879D01*
X50877Y33988D01*
X50875Y33989D01*
X50872Y33990D01*
X50864Y33994D01*
X50854Y33999D01*
X50842Y34007D01*
X50830Y34015D01*
X50817Y34025D01*
X50805Y34036D01*
Y34037D01*
X50804Y34037D01*
X50800Y34042D01*
X50794Y34048D01*
X50788Y34057D01*
X50780Y34068D01*
X50771Y34080D01*
X50763Y34095D01*
X50756Y34110D01*
Y34111D01*
X50755Y34112D01*
X50755Y34115D01*
X50753Y34118D01*
X50752Y34122D01*
X50750Y34127D01*
X50747Y34139D01*
X50745Y34153D01*
X50742Y34169D01*
X50739Y34187D01*
X50739Y34206D01*
Y34207D01*
Y34209D01*
Y34211D01*
Y34215D01*
X50739Y34220D01*
Y34225D01*
X50741Y34238D01*
X50743Y34253D01*
X50746Y34269D01*
X50750Y34285D01*
X50756Y34302D01*
Y34303D01*
X50757Y34304D01*
X50758Y34306D01*
X50759Y34309D01*
X50763Y34317D01*
X50769Y34327D01*
X50776Y34340D01*
X50784Y34352D01*
X50794Y34365D01*
X50805Y34377D01*
X50806Y34378D01*
X50806Y34378D01*
X50811Y34382D01*
X50817Y34388D01*
X50826Y34395D01*
X50837Y34402D01*
X50850Y34411D01*
X50864Y34419D01*
X50879Y34426D01*
X50880D01*
X50882Y34427D01*
X50884Y34427D01*
X50887Y34429D01*
X50891Y34430D01*
X50896Y34432D01*
X50908Y34435D01*
X50922Y34438D01*
X50938Y34441D01*
X50957Y34443D01*
X50976Y34444D01*
X50984D01*
X50989Y34443D01*
D02*
G37*
G36*
X22249D02*
X22254D01*
X22267Y34442D01*
X22282Y34440D01*
X22298Y34436D01*
X22314Y34432D01*
X22331Y34426D01*
X22332D01*
X22333Y34425D01*
X22335Y34424D01*
X22338Y34423D01*
X22346Y34419D01*
X22356Y34413D01*
X22369Y34406D01*
X22381Y34398D01*
X22394Y34388D01*
X22406Y34377D01*
X22407D01*
X22408Y34376D01*
X22411Y34371D01*
X22417Y34365D01*
X22424Y34356D01*
X22432Y34345D01*
X22440Y34332D01*
X22448Y34318D01*
X22455Y34302D01*
Y34301D01*
X22456Y34300D01*
X22456Y34298D01*
X22458Y34295D01*
X22459Y34290D01*
X22461Y34286D01*
X22464Y34274D01*
X22467Y34260D01*
X22470Y34244D01*
X22472Y34225D01*
X22473Y34206D01*
Y34206D01*
Y34204D01*
Y34201D01*
Y34198D01*
X22472Y34193D01*
Y34187D01*
X22471Y34175D01*
X22469Y34160D01*
X22465Y34144D01*
X22461Y34127D01*
X22455Y34110D01*
Y34109D01*
X22454Y34108D01*
X22453Y34106D01*
X22452Y34103D01*
X22448Y34095D01*
X22443Y34085D01*
X22435Y34073D01*
X22427Y34061D01*
X22417Y34048D01*
X22406Y34036D01*
X22405Y34034D01*
X22400Y34031D01*
X22394Y34025D01*
X22385Y34018D01*
X22374Y34010D01*
X22361Y34002D01*
X22347Y33994D01*
X22331Y33987D01*
X22330D01*
X22329Y33986D01*
X22327Y33986D01*
X22324Y33984D01*
X22319Y33983D01*
X22315Y33981D01*
X22303Y33978D01*
X22289Y33975D01*
X22273Y33972D01*
X22254Y33970D01*
X22235Y33969D01*
X22227D01*
X22222Y33970D01*
X22217D01*
X22204Y33972D01*
X22189Y33974D01*
X22173Y33977D01*
X22156Y33981D01*
X22139Y33987D01*
X22139D01*
X22137Y33988D01*
X22135Y33989D01*
X22132Y33990D01*
X22124Y33994D01*
X22114Y33999D01*
X22102Y34007D01*
X22090Y34015D01*
X22077Y34025D01*
X22065Y34036D01*
Y34037D01*
X22063Y34037D01*
X22060Y34042D01*
X22054Y34048D01*
X22047Y34057D01*
X22039Y34068D01*
X22031Y34080D01*
X22023Y34095D01*
X22016Y34110D01*
Y34111D01*
X22015Y34112D01*
X22015Y34115D01*
X22013Y34118D01*
X22012Y34122D01*
X22010Y34127D01*
X22007Y34139D01*
X22004Y34153D01*
X22001Y34169D01*
X21999Y34187D01*
X21999Y34206D01*
Y34207D01*
Y34209D01*
Y34211D01*
Y34215D01*
X21999Y34220D01*
Y34225D01*
X22001Y34238D01*
X22003Y34253D01*
X22006Y34269D01*
X22010Y34285D01*
X22016Y34302D01*
Y34303D01*
X22017Y34304D01*
X22018Y34306D01*
X22019Y34309D01*
X22023Y34317D01*
X22028Y34327D01*
X22036Y34340D01*
X22044Y34352D01*
X22054Y34365D01*
X22065Y34377D01*
X22066Y34378D01*
X22066Y34378D01*
X22071Y34382D01*
X22077Y34388D01*
X22086Y34395D01*
X22097Y34402D01*
X22109Y34411D01*
X22124Y34419D01*
X22139Y34426D01*
X22140D01*
X22141Y34427D01*
X22144Y34427D01*
X22147Y34429D01*
X22151Y34430D01*
X22156Y34432D01*
X22168Y34435D01*
X22182Y34438D01*
X22198Y34441D01*
X22217Y34443D01*
X22235Y34444D01*
X22244D01*
X22249Y34443D01*
D02*
G37*
G36*
X50634Y33453D02*
X50457D01*
X50443Y33523D01*
X50438D01*
Y33522D01*
X50437Y33521D01*
X50434Y33517D01*
X50429Y33511D01*
X50422Y33503D01*
X50414Y33493D01*
X50404Y33484D01*
X50392Y33474D01*
X50378Y33466D01*
X50377D01*
X50376Y33465D01*
X50373Y33464D01*
X50371Y33462D01*
X50367Y33461D01*
X50362Y33459D01*
X50357Y33457D01*
X50350Y33455D01*
X50343Y33453D01*
X50335Y33451D01*
X50326Y33449D01*
X50317Y33448D01*
X50296Y33445D01*
X50273Y33444D01*
X50261D01*
X50256Y33445D01*
X50245Y33445D01*
X50232Y33447D01*
X50217Y33448D01*
X50203Y33451D01*
X50188Y33455D01*
X50187D01*
X50186Y33456D01*
X50184Y33456D01*
X50181Y33457D01*
X50174Y33460D01*
X50165Y33464D01*
X50155Y33469D01*
X50143Y33475D01*
X50132Y33483D01*
X50121Y33492D01*
X50120Y33493D01*
X50117Y33497D01*
X50112Y33502D01*
X50106Y33510D01*
X50099Y33520D01*
X50092Y33531D01*
X50085Y33545D01*
X50078Y33560D01*
Y33561D01*
X50078Y33562D01*
X50077Y33564D01*
X50076Y33567D01*
X50075Y33571D01*
X50073Y33576D01*
X50072Y33582D01*
X50071Y33588D01*
X50068Y33604D01*
X50065Y33621D01*
X50064Y33641D01*
X50063Y33663D01*
Y34109D01*
X50253D01*
Y33654D01*
Y33652D01*
Y33649D01*
X50254Y33644D01*
X50255Y33639D01*
X50257Y33632D01*
X50260Y33625D01*
X50264Y33617D01*
X50269Y33611D01*
X50270Y33610D01*
X50272Y33609D01*
X50276Y33606D01*
X50281Y33603D01*
X50287Y33600D01*
X50295Y33597D01*
X50303Y33595D01*
X50312Y33595D01*
X50359D01*
X50362Y33595D01*
X50369Y33596D01*
X50378Y33598D01*
X50388Y33601D01*
X50399Y33605D01*
X50409Y33611D01*
X50419Y33619D01*
X50419Y33620D01*
X50422Y33623D01*
X50427Y33628D01*
X50431Y33636D01*
X50435Y33645D01*
X50440Y33656D01*
X50443Y33668D01*
X50443Y33682D01*
Y34109D01*
X50634D01*
Y33453D01*
D02*
G37*
G36*
X21894D02*
X21716D01*
X21703Y33523D01*
X21697D01*
Y33522D01*
X21697Y33521D01*
X21694Y33517D01*
X21689Y33511D01*
X21682Y33503D01*
X21674Y33493D01*
X21664Y33484D01*
X21652Y33474D01*
X21638Y33466D01*
X21637D01*
X21636Y33465D01*
X21633Y33464D01*
X21630Y33462D01*
X21627Y33461D01*
X21622Y33459D01*
X21617Y33457D01*
X21610Y33455D01*
X21603Y33453D01*
X21595Y33451D01*
X21586Y33449D01*
X21577Y33448D01*
X21556Y33445D01*
X21533Y33444D01*
X21521D01*
X21516Y33445D01*
X21505Y33445D01*
X21492Y33447D01*
X21477Y33448D01*
X21463Y33451D01*
X21447Y33455D01*
X21447D01*
X21446Y33456D01*
X21444Y33456D01*
X21441Y33457D01*
X21434Y33460D01*
X21425Y33464D01*
X21415Y33469D01*
X21403Y33475D01*
X21392Y33483D01*
X21381Y33492D01*
X21380Y33493D01*
X21377Y33497D01*
X21372Y33502D01*
X21366Y33510D01*
X21358Y33520D01*
X21352Y33531D01*
X21345Y33545D01*
X21338Y33560D01*
Y33561D01*
X21337Y33562D01*
X21337Y33564D01*
X21336Y33567D01*
X21334Y33571D01*
X21333Y33576D01*
X21332Y33582D01*
X21331Y33588D01*
X21328Y33604D01*
X21325Y33621D01*
X21323Y33641D01*
X21323Y33663D01*
Y34109D01*
X21513D01*
Y33654D01*
Y33652D01*
Y33649D01*
X21514Y33644D01*
X21515Y33639D01*
X21517Y33632D01*
X21520Y33625D01*
X21524Y33617D01*
X21529Y33611D01*
X21530Y33610D01*
X21532Y33609D01*
X21536Y33606D01*
X21541Y33603D01*
X21547Y33600D01*
X21555Y33597D01*
X21563Y33595D01*
X21572Y33595D01*
X21619D01*
X21622Y33595D01*
X21629Y33596D01*
X21638Y33598D01*
X21648Y33601D01*
X21659Y33605D01*
X21669Y33611D01*
X21679Y33619D01*
X21679Y33620D01*
X21682Y33623D01*
X21687Y33628D01*
X21691Y33636D01*
X21695Y33645D01*
X21700Y33656D01*
X21703Y33668D01*
X21703Y33682D01*
Y34109D01*
X21894D01*
Y33453D01*
D02*
G37*
G36*
X53618D02*
X53402D01*
X53342Y33647D01*
X53045D01*
X52985Y33453D01*
X52594D01*
X52533Y33647D01*
X52236D01*
X52177Y33453D01*
X51975D01*
X52291Y34372D01*
X52492D01*
X52796Y33490D01*
X53099Y34372D01*
X53300D01*
X53618Y33453D01*
D02*
G37*
G36*
X24877D02*
X24662D01*
X24602Y33647D01*
X24304D01*
X24245Y33453D01*
X23854D01*
X23793Y33647D01*
X23496D01*
X23437Y33453D01*
X23235D01*
X23551Y34372D01*
X23752D01*
X24056Y33490D01*
X24359Y34372D01*
X24560D01*
X24877Y33453D01*
D02*
G37*
G36*
X49568Y33862D02*
X49574D01*
X49776Y34109D01*
X49993D01*
X49763Y33844D01*
X50023Y33453D01*
X49795D01*
X49634Y33695D01*
X49568Y33617D01*
Y33453D01*
X49378D01*
Y34372D01*
X49568D01*
Y33862D01*
D02*
G37*
G36*
X20828D02*
X20834D01*
X21036Y34109D01*
X21253D01*
X21023Y33844D01*
X21283Y33453D01*
X21054D01*
X20894Y33695D01*
X20828Y33617D01*
Y33453D01*
X20638D01*
Y34372D01*
X20828D01*
Y33862D01*
D02*
G37*
G36*
X50958Y33202D02*
X50962Y33201D01*
X50968Y33199D01*
Y33122D01*
X50913D01*
X50909Y33121D01*
X50905Y33120D01*
X50900Y33119D01*
X50895Y33117D01*
X50889Y33114D01*
X50885Y33110D01*
X50884Y33109D01*
X50883Y33108D01*
X50881Y33105D01*
X50879Y33101D01*
X50876Y33097D01*
X50874Y33091D01*
X50873Y33085D01*
X50873Y33078D01*
Y32872D01*
X50778D01*
Y33199D01*
X50866D01*
X50873Y33164D01*
X50875D01*
X50875Y33165D01*
X50876Y33165D01*
X50877Y33167D01*
X50878Y33169D01*
X50880Y33171D01*
X50882Y33173D01*
X50887Y33179D01*
X50893Y33185D01*
X50900Y33191D01*
X50908Y33196D01*
X50912Y33198D01*
X50916Y33200D01*
X50917D01*
X50917Y33200D01*
X50919Y33200D01*
X50921Y33201D01*
X50923Y33201D01*
X50925Y33202D01*
X50928Y33203D01*
X50932Y33203D01*
X50940Y33203D01*
X50948D01*
X50958Y33202D01*
D02*
G37*
G36*
X22218D02*
X22222Y33201D01*
X22227Y33199D01*
Y33122D01*
X22173D01*
X22169Y33121D01*
X22165Y33120D01*
X22160Y33119D01*
X22155Y33117D01*
X22149Y33114D01*
X22144Y33110D01*
X22144Y33109D01*
X22143Y33108D01*
X22141Y33105D01*
X22139Y33101D01*
X22136Y33097D01*
X22134Y33091D01*
X22133Y33085D01*
X22132Y33078D01*
Y32872D01*
X22037D01*
Y33199D01*
X22126D01*
X22132Y33164D01*
X22135D01*
X22135Y33165D01*
X22136Y33165D01*
X22137Y33167D01*
X22138Y33169D01*
X22140Y33171D01*
X22142Y33173D01*
X22147Y33179D01*
X22152Y33185D01*
X22160Y33191D01*
X22167Y33196D01*
X22172Y33198D01*
X22176Y33200D01*
X22176D01*
X22177Y33200D01*
X22179Y33200D01*
X22180Y33201D01*
X22183Y33201D01*
X22185Y33202D01*
X22188Y33203D01*
X22192Y33203D01*
X22199Y33203D01*
X22208D01*
X22218Y33202D01*
D02*
G37*
G36*
X51558Y33330D02*
X51560D01*
X51566Y33329D01*
X51573Y33328D01*
X51581Y33327D01*
X51589Y33325D01*
X51596Y33322D01*
X51597D01*
X51597Y33322D01*
X51598Y33321D01*
X51599Y33321D01*
X51603Y33319D01*
X51608Y33316D01*
X51614Y33313D01*
X51619Y33309D01*
X51625Y33304D01*
X51631Y33299D01*
X51632Y33298D01*
X51634Y33296D01*
X51636Y33293D01*
X51640Y33289D01*
X51644Y33284D01*
X51647Y33278D01*
X51651Y33271D01*
X51654Y33264D01*
Y33263D01*
X51655Y33263D01*
X51655Y33262D01*
X51656Y33260D01*
X51656Y33258D01*
X51657Y33256D01*
X51659Y33251D01*
X51660Y33244D01*
X51661Y33236D01*
X51662Y33228D01*
X51663Y33219D01*
Y33187D01*
Y33187D01*
Y33186D01*
Y33185D01*
Y33183D01*
X51662Y33181D01*
Y33179D01*
X51662Y33172D01*
X51660Y33165D01*
X51659Y33158D01*
X51656Y33150D01*
X51653Y33142D01*
Y33142D01*
X51653Y33141D01*
X51652Y33140D01*
X51651Y33139D01*
X51649Y33135D01*
X51646Y33130D01*
X51643Y33125D01*
X51638Y33119D01*
X51634Y33113D01*
X51629Y33107D01*
X51484Y32962D01*
Y32959D01*
X51666D01*
Y32872D01*
X51355D01*
Y32959D01*
X51541Y33144D01*
X51542Y33144D01*
X51543Y33145D01*
X51546Y33148D01*
X51548Y33151D01*
X51551Y33154D01*
X51554Y33157D01*
X51557Y33162D01*
X51559Y33166D01*
X51559Y33166D01*
X51560Y33168D01*
X51561Y33170D01*
X51562Y33173D01*
X51563Y33177D01*
X51564Y33181D01*
X51564Y33186D01*
X51565Y33191D01*
Y33213D01*
Y33214D01*
Y33215D01*
X51564Y33218D01*
X51563Y33220D01*
X51562Y33224D01*
X51561Y33227D01*
X51559Y33231D01*
X51556Y33234D01*
X51556Y33235D01*
X51555Y33236D01*
X51553Y33237D01*
X51550Y33239D01*
X51547Y33240D01*
X51543Y33241D01*
X51539Y33242D01*
X51535Y33243D01*
X51481D01*
X51478Y33242D01*
X51475Y33242D01*
X51472Y33240D01*
X51468Y33239D01*
X51465Y33237D01*
X51462Y33234D01*
X51461Y33234D01*
X51460Y33233D01*
X51459Y33231D01*
X51458Y33229D01*
X51456Y33226D01*
X51455Y33222D01*
X51454Y33218D01*
X51454Y33213D01*
Y33191D01*
X51355D01*
Y33219D01*
Y33219D01*
Y33220D01*
Y33222D01*
Y33223D01*
X51356Y33226D01*
Y33228D01*
X51356Y33234D01*
X51357Y33241D01*
X51358Y33248D01*
X51361Y33256D01*
X51363Y33264D01*
Y33264D01*
X51364Y33265D01*
X51364Y33266D01*
X51365Y33267D01*
X51367Y33271D01*
X51369Y33276D01*
X51373Y33282D01*
X51376Y33287D01*
X51381Y33293D01*
X51386Y33299D01*
X51387Y33300D01*
X51389Y33302D01*
X51392Y33304D01*
X51396Y33307D01*
X51401Y33311D01*
X51407Y33315D01*
X51414Y33319D01*
X51421Y33322D01*
X51421D01*
X51422Y33322D01*
X51423Y33323D01*
X51425Y33323D01*
X51427Y33324D01*
X51429Y33325D01*
X51435Y33326D01*
X51441Y33328D01*
X51449Y33329D01*
X51458Y33330D01*
X51467Y33330D01*
X51555D01*
X51558Y33330D01*
D02*
G37*
G36*
X51314Y32872D02*
X51222D01*
Y32963D01*
X51314D01*
Y32872D01*
D02*
G37*
G36*
X51170D02*
X51072D01*
Y33226D01*
X51069D01*
X50976Y33159D01*
Y33262D01*
X51072Y33330D01*
X51170D01*
Y32872D01*
D02*
G37*
G36*
X22817Y33330D02*
X22820D01*
X22826Y33329D01*
X22833Y33328D01*
X22840Y33327D01*
X22848Y33325D01*
X22856Y33322D01*
X22856D01*
X22857Y33322D01*
X22858Y33321D01*
X22859Y33321D01*
X22863Y33319D01*
X22868Y33316D01*
X22874Y33313D01*
X22879Y33309D01*
X22885Y33304D01*
X22891Y33299D01*
X22892Y33298D01*
X22894Y33296D01*
X22896Y33293D01*
X22899Y33289D01*
X22903Y33284D01*
X22907Y33278D01*
X22911Y33271D01*
X22914Y33264D01*
Y33263D01*
X22915Y33263D01*
X22915Y33262D01*
X22916Y33260D01*
X22916Y33258D01*
X22917Y33256D01*
X22919Y33251D01*
X22920Y33244D01*
X22921Y33236D01*
X22922Y33228D01*
X22923Y33219D01*
Y33187D01*
Y33187D01*
Y33186D01*
Y33185D01*
Y33183D01*
X22922Y33181D01*
Y33179D01*
X22922Y33172D01*
X22920Y33165D01*
X22919Y33158D01*
X22916Y33150D01*
X22913Y33142D01*
Y33142D01*
X22912Y33141D01*
X22912Y33140D01*
X22911Y33139D01*
X22909Y33135D01*
X22906Y33130D01*
X22903Y33125D01*
X22898Y33119D01*
X22894Y33113D01*
X22888Y33107D01*
X22744Y32962D01*
Y32959D01*
X22926D01*
Y32872D01*
X22615D01*
Y32959D01*
X22801Y33144D01*
X22802Y33144D01*
X22803Y33145D01*
X22805Y33148D01*
X22808Y33151D01*
X22811Y33154D01*
X22814Y33157D01*
X22817Y33162D01*
X22819Y33166D01*
X22819Y33166D01*
X22820Y33168D01*
X22821Y33170D01*
X22822Y33173D01*
X22823Y33177D01*
X22824Y33181D01*
X22824Y33186D01*
X22824Y33191D01*
Y33213D01*
Y33214D01*
Y33215D01*
X22824Y33218D01*
X22823Y33220D01*
X22822Y33224D01*
X22821Y33227D01*
X22819Y33231D01*
X22816Y33234D01*
X22816Y33235D01*
X22815Y33236D01*
X22813Y33237D01*
X22810Y33239D01*
X22807Y33240D01*
X22803Y33241D01*
X22799Y33242D01*
X22795Y33243D01*
X22741D01*
X22738Y33242D01*
X22735Y33242D01*
X22732Y33240D01*
X22728Y33239D01*
X22725Y33237D01*
X22721Y33234D01*
X22721Y33234D01*
X22720Y33233D01*
X22719Y33231D01*
X22717Y33229D01*
X22716Y33226D01*
X22714Y33222D01*
X22714Y33218D01*
X22713Y33213D01*
Y33191D01*
X22615D01*
Y33219D01*
Y33219D01*
Y33220D01*
Y33222D01*
Y33223D01*
X22615Y33226D01*
Y33228D01*
X22616Y33234D01*
X22617Y33241D01*
X22618Y33248D01*
X22621Y33256D01*
X22623Y33264D01*
Y33264D01*
X22623Y33265D01*
X22624Y33266D01*
X22625Y33267D01*
X22626Y33271D01*
X22629Y33276D01*
X22633Y33282D01*
X22636Y33287D01*
X22641Y33293D01*
X22646Y33299D01*
X22647Y33300D01*
X22649Y33302D01*
X22652Y33304D01*
X22656Y33307D01*
X22661Y33311D01*
X22667Y33315D01*
X22674Y33319D01*
X22681Y33322D01*
X22681D01*
X22682Y33322D01*
X22683Y33323D01*
X22685Y33323D01*
X22686Y33324D01*
X22689Y33325D01*
X22694Y33326D01*
X22701Y33328D01*
X22709Y33329D01*
X22717Y33330D01*
X22726Y33330D01*
X22815D01*
X22817Y33330D01*
D02*
G37*
G36*
X22574Y32872D02*
X22482D01*
Y32963D01*
X22574D01*
Y32872D01*
D02*
G37*
G36*
X22430D02*
X22332D01*
Y33226D01*
X22329D01*
X22236Y33159D01*
Y33262D01*
X22332Y33330D01*
X22430D01*
Y32872D01*
D02*
G37*
G36*
X54117Y5631D02*
X54122D01*
X54134Y5630D01*
X54148Y5627D01*
X54163Y5624D01*
X54179Y5621D01*
X54194Y5615D01*
X54195D01*
X54196Y5614D01*
X54198Y5613D01*
X54201Y5612D01*
X54209Y5608D01*
X54218Y5603D01*
X54229Y5597D01*
X54241Y5589D01*
X54252Y5580D01*
X54264Y5569D01*
X54266Y5568D01*
X54269Y5564D01*
X54274Y5557D01*
X54281Y5549D01*
X54288Y5539D01*
X54296Y5527D01*
X54304Y5514D01*
X54310Y5499D01*
Y5498D01*
X54311Y5497D01*
X54312Y5495D01*
X54313Y5492D01*
X54314Y5488D01*
X54315Y5484D01*
X54319Y5473D01*
X54322Y5459D01*
X54324Y5444D01*
X54326Y5427D01*
X54327Y5409D01*
Y5353D01*
X54130D01*
Y5397D01*
Y5398D01*
Y5401D01*
X54129Y5406D01*
X54128Y5412D01*
X54126Y5419D01*
X54123Y5426D01*
X54119Y5433D01*
X54113Y5439D01*
X54113Y5440D01*
X54110Y5442D01*
X54107Y5444D01*
X54102Y5448D01*
X54096Y5451D01*
X54088Y5453D01*
X54080Y5455D01*
X54071Y5456D01*
X53922D01*
X53917Y5455D01*
X53911Y5454D01*
X53905Y5452D01*
X53897Y5449D01*
X53890Y5445D01*
X53884Y5439D01*
X53883Y5439D01*
X53881Y5436D01*
X53878Y5433D01*
X53876Y5428D01*
X53873Y5422D01*
X53870Y5414D01*
X53868Y5406D01*
X53868Y5396D01*
Y5322D01*
Y5320D01*
Y5318D01*
X53868Y5312D01*
X53870Y5307D01*
X53871Y5300D01*
X53874Y5293D01*
X53878Y5285D01*
X53884Y5279D01*
X53884Y5278D01*
X53887Y5277D01*
X53890Y5274D01*
X53895Y5271D01*
X53902Y5268D01*
X53909Y5265D01*
X53917Y5264D01*
X53927Y5263D01*
X54119D01*
X54123Y5262D01*
X54129D01*
X54140Y5261D01*
X54154Y5258D01*
X54169Y5256D01*
X54185Y5252D01*
X54201Y5246D01*
X54201D01*
X54203Y5245D01*
X54204Y5245D01*
X54207Y5243D01*
X54215Y5240D01*
X54225Y5234D01*
X54236Y5228D01*
X54247Y5220D01*
X54259Y5211D01*
X54271Y5200D01*
X54272Y5199D01*
X54276Y5195D01*
X54281Y5188D01*
X54287Y5180D01*
X54295Y5170D01*
X54303Y5159D01*
X54310Y5145D01*
X54317Y5130D01*
Y5129D01*
X54317Y5128D01*
X54318Y5126D01*
X54320Y5123D01*
X54320Y5119D01*
X54322Y5115D01*
X54325Y5104D01*
X54328Y5090D01*
X54330Y5075D01*
X54333Y5058D01*
X54333Y5040D01*
Y4936D01*
Y4935D01*
Y4933D01*
Y4930D01*
Y4928D01*
X54333Y4923D01*
Y4918D01*
X54331Y4906D01*
X54329Y4892D01*
X54326Y4876D01*
X54322Y4860D01*
X54317Y4845D01*
Y4844D01*
X54316Y4844D01*
X54315Y4841D01*
X54314Y4839D01*
X54310Y4831D01*
X54305Y4821D01*
X54298Y4810D01*
X54290Y4798D01*
X54282Y4786D01*
X54271Y4774D01*
X54269Y4773D01*
X54266Y4769D01*
X54259Y4764D01*
X54251Y4758D01*
X54241Y4750D01*
X54229Y4743D01*
X54215Y4736D01*
X54201Y4729D01*
X54200D01*
X54199Y4728D01*
X54196Y4728D01*
X54193Y4727D01*
X54190Y4726D01*
X54185Y4724D01*
X54174Y4721D01*
X54161Y4718D01*
X54145Y4715D01*
X54129Y4714D01*
X54110Y4713D01*
X53872D01*
X53868Y4714D01*
X53862D01*
X53851Y4715D01*
X53836Y4717D01*
X53821Y4720D01*
X53805Y4724D01*
X53790Y4729D01*
X53789D01*
X53788Y4730D01*
X53786Y4731D01*
X53783Y4732D01*
X53775Y4736D01*
X53766Y4741D01*
X53755Y4747D01*
X53743Y4755D01*
X53731Y4764D01*
X53720Y4774D01*
X53718Y4776D01*
X53714Y4780D01*
X53709Y4786D01*
X53703Y4795D01*
X53696Y4805D01*
X53688Y4817D01*
X53680Y4831D01*
X53674Y4845D01*
Y4846D01*
X53673Y4847D01*
X53672Y4850D01*
X53671Y4852D01*
X53670Y4856D01*
X53669Y4860D01*
X53666Y4872D01*
X53663Y4885D01*
X53660Y4901D01*
X53658Y4917D01*
X53658Y4936D01*
Y4992D01*
X53854D01*
Y4947D01*
Y4946D01*
Y4943D01*
X53855Y4938D01*
X53857Y4932D01*
X53858Y4925D01*
X53861Y4918D01*
X53865Y4911D01*
X53870Y4905D01*
X53871Y4904D01*
X53873Y4903D01*
X53877Y4900D01*
X53882Y4897D01*
X53889Y4894D01*
X53896Y4891D01*
X53904Y4890D01*
X53913Y4889D01*
X54082D01*
X54087Y4890D01*
X54093Y4891D01*
X54099Y4893D01*
X54107Y4895D01*
X54113Y4900D01*
X54120Y4905D01*
X54121Y4906D01*
X54123Y4908D01*
X54125Y4911D01*
X54129Y4917D01*
X54131Y4923D01*
X54134Y4930D01*
X54136Y4938D01*
X54137Y4948D01*
Y5027D01*
Y5029D01*
Y5032D01*
X54136Y5037D01*
X54134Y5043D01*
X54132Y5049D01*
X54129Y5057D01*
X54126Y5064D01*
X54120Y5070D01*
X54119Y5071D01*
X54117Y5073D01*
X54113Y5076D01*
X54109Y5079D01*
X54102Y5082D01*
X54095Y5084D01*
X54087Y5086D01*
X54078Y5087D01*
X53885D01*
X53881Y5088D01*
X53876D01*
X53864Y5089D01*
X53849Y5091D01*
X53834Y5094D01*
X53818Y5098D01*
X53803Y5103D01*
X53802D01*
X53801Y5104D01*
X53799Y5105D01*
X53796Y5106D01*
X53788Y5110D01*
X53779Y5116D01*
X53768Y5122D01*
X53756Y5129D01*
X53744Y5139D01*
X53733Y5149D01*
X53731Y5151D01*
X53728Y5154D01*
X53723Y5161D01*
X53716Y5169D01*
X53709Y5179D01*
X53701Y5191D01*
X53693Y5205D01*
X53687Y5219D01*
Y5220D01*
X53686Y5221D01*
X53685Y5223D01*
X53685Y5226D01*
X53683Y5230D01*
X53682Y5234D01*
X53679Y5246D01*
X53676Y5259D01*
X53673Y5275D01*
X53671Y5292D01*
X53671Y5310D01*
Y5409D01*
Y5409D01*
Y5411D01*
Y5414D01*
Y5417D01*
X53671Y5422D01*
Y5427D01*
X53673Y5439D01*
X53674Y5452D01*
X53677Y5468D01*
X53682Y5484D01*
X53687Y5499D01*
Y5500D01*
X53688Y5501D01*
X53688Y5503D01*
X53690Y5506D01*
X53693Y5514D01*
X53699Y5523D01*
X53706Y5534D01*
X53713Y5546D01*
X53723Y5557D01*
X53733Y5569D01*
X53734Y5570D01*
X53738Y5574D01*
X53744Y5579D01*
X53752Y5586D01*
X53763Y5593D01*
X53775Y5601D01*
X53788Y5608D01*
X53803Y5615D01*
X53803D01*
X53805Y5616D01*
X53807Y5616D01*
X53810Y5618D01*
X53814Y5619D01*
X53818Y5620D01*
X53830Y5624D01*
X53843Y5627D01*
X53858Y5629D01*
X53876Y5631D01*
X53894Y5632D01*
X54113D01*
X54117Y5631D01*
D02*
G37*
G36*
X49043D02*
X49048D01*
X49060Y5630D01*
X49074Y5627D01*
X49089Y5624D01*
X49105Y5621D01*
X49120Y5615D01*
X49121D01*
X49123Y5614D01*
X49124Y5613D01*
X49127Y5612D01*
X49135Y5608D01*
X49144Y5603D01*
X49155Y5597D01*
X49167Y5589D01*
X49179Y5580D01*
X49190Y5569D01*
X49192Y5568D01*
X49195Y5564D01*
X49201Y5557D01*
X49207Y5549D01*
X49214Y5539D01*
X49222Y5527D01*
X49230Y5514D01*
X49236Y5499D01*
Y5498D01*
X49237Y5497D01*
X49238Y5495D01*
X49239Y5492D01*
X49240Y5488D01*
X49241Y5484D01*
X49245Y5473D01*
X49248Y5459D01*
X49250Y5444D01*
X49252Y5427D01*
X49253Y5409D01*
Y5353D01*
X49056D01*
Y5397D01*
Y5398D01*
Y5401D01*
X49055Y5406D01*
X49054Y5412D01*
X49052Y5419D01*
X49049Y5426D01*
X49045Y5433D01*
X49039Y5439D01*
X49039Y5440D01*
X49036Y5442D01*
X49033Y5444D01*
X49028Y5448D01*
X49022Y5451D01*
X49015Y5453D01*
X49007Y5455D01*
X48997Y5456D01*
X48848D01*
X48843Y5455D01*
X48837Y5454D01*
X48831Y5452D01*
X48824Y5449D01*
X48816Y5445D01*
X48810Y5439D01*
X48809Y5439D01*
X48808Y5436D01*
X48805Y5433D01*
X48802Y5428D01*
X48799Y5422D01*
X48796Y5414D01*
X48794Y5406D01*
X48794Y5396D01*
Y5322D01*
Y5320D01*
Y5318D01*
X48794Y5312D01*
X48796Y5307D01*
X48797Y5300D01*
X48800Y5293D01*
X48805Y5285D01*
X48810Y5279D01*
X48811Y5278D01*
X48813Y5277D01*
X48816Y5274D01*
X48821Y5271D01*
X48828Y5268D01*
X48835Y5265D01*
X48843Y5264D01*
X48853Y5263D01*
X49045D01*
X49050Y5262D01*
X49055D01*
X49066Y5261D01*
X49080Y5258D01*
X49096Y5256D01*
X49112Y5252D01*
X49127Y5246D01*
X49128D01*
X49129Y5245D01*
X49131Y5245D01*
X49133Y5243D01*
X49141Y5240D01*
X49151Y5234D01*
X49162Y5228D01*
X49174Y5220D01*
X49185Y5211D01*
X49197Y5200D01*
X49198Y5199D01*
X49202Y5195D01*
X49207Y5188D01*
X49214Y5180D01*
X49221Y5170D01*
X49229Y5159D01*
X49236Y5145D01*
X49243Y5130D01*
Y5129D01*
X49244Y5128D01*
X49244Y5126D01*
X49246Y5123D01*
X49246Y5119D01*
X49248Y5115D01*
X49252Y5104D01*
X49254Y5090D01*
X49257Y5075D01*
X49259Y5058D01*
X49260Y5040D01*
Y4936D01*
Y4935D01*
Y4933D01*
Y4930D01*
Y4928D01*
X49259Y4923D01*
Y4918D01*
X49257Y4906D01*
X49255Y4892D01*
X49252Y4876D01*
X49249Y4860D01*
X49243Y4845D01*
Y4844D01*
X49242Y4844D01*
X49241Y4841D01*
X49240Y4839D01*
X49236Y4831D01*
X49231Y4821D01*
X49225Y4810D01*
X49217Y4798D01*
X49208Y4786D01*
X49197Y4774D01*
X49195Y4773D01*
X49192Y4769D01*
X49185Y4764D01*
X49177Y4758D01*
X49167Y4750D01*
X49155Y4743D01*
X49141Y4736D01*
X49127Y4729D01*
X49126D01*
X49125Y4728D01*
X49123Y4728D01*
X49120Y4727D01*
X49116Y4726D01*
X49112Y4724D01*
X49101Y4721D01*
X49087Y4718D01*
X49071Y4715D01*
X49055Y4714D01*
X49036Y4713D01*
X48798D01*
X48794Y4714D01*
X48789D01*
X48777Y4715D01*
X48762Y4717D01*
X48747Y4720D01*
X48731Y4724D01*
X48716Y4729D01*
X48715D01*
X48714Y4730D01*
X48712Y4731D01*
X48709Y4732D01*
X48701Y4736D01*
X48692Y4741D01*
X48681Y4747D01*
X48669Y4755D01*
X48657Y4764D01*
X48646Y4774D01*
X48644Y4776D01*
X48641Y4780D01*
X48636Y4786D01*
X48629Y4795D01*
X48622Y4805D01*
X48614Y4817D01*
X48606Y4831D01*
X48600Y4845D01*
Y4846D01*
X48599Y4847D01*
X48598Y4850D01*
X48598Y4852D01*
X48596Y4856D01*
X48595Y4860D01*
X48592Y4872D01*
X48589Y4885D01*
X48586Y4901D01*
X48584Y4917D01*
X48584Y4936D01*
Y4992D01*
X48781D01*
Y4947D01*
Y4946D01*
Y4943D01*
X48781Y4938D01*
X48783Y4932D01*
X48784Y4925D01*
X48787Y4918D01*
X48792Y4911D01*
X48797Y4905D01*
X48797Y4904D01*
X48800Y4903D01*
X48803Y4900D01*
X48808Y4897D01*
X48815Y4894D01*
X48822Y4891D01*
X48830Y4890D01*
X48840Y4889D01*
X49008D01*
X49013Y4890D01*
X49019Y4891D01*
X49026Y4893D01*
X49033Y4895D01*
X49039Y4900D01*
X49046Y4905D01*
X49047Y4906D01*
X49049Y4908D01*
X49051Y4911D01*
X49055Y4917D01*
X49058Y4923D01*
X49060Y4930D01*
X49062Y4938D01*
X49063Y4948D01*
Y5027D01*
Y5029D01*
Y5032D01*
X49062Y5037D01*
X49061Y5043D01*
X49058Y5049D01*
X49055Y5057D01*
X49052Y5064D01*
X49046Y5070D01*
X49045Y5071D01*
X49043Y5073D01*
X49039Y5076D01*
X49035Y5079D01*
X49028Y5082D01*
X49021Y5084D01*
X49013Y5086D01*
X49004Y5087D01*
X48811D01*
X48807Y5088D01*
X48802D01*
X48790Y5089D01*
X48776Y5091D01*
X48760Y5094D01*
X48744Y5098D01*
X48729Y5103D01*
X48728D01*
X48727Y5104D01*
X48725Y5105D01*
X48722Y5106D01*
X48714Y5110D01*
X48705Y5116D01*
X48694Y5122D01*
X48682Y5129D01*
X48671Y5139D01*
X48659Y5149D01*
X48657Y5151D01*
X48654Y5154D01*
X48649Y5161D01*
X48642Y5169D01*
X48635Y5179D01*
X48628Y5191D01*
X48619Y5205D01*
X48613Y5219D01*
Y5220D01*
X48612Y5221D01*
X48611Y5223D01*
X48611Y5226D01*
X48609Y5230D01*
X48608Y5234D01*
X48605Y5246D01*
X48602Y5259D01*
X48599Y5275D01*
X48598Y5292D01*
X48597Y5310D01*
Y5409D01*
Y5409D01*
Y5411D01*
Y5414D01*
Y5417D01*
X48598Y5422D01*
Y5427D01*
X48599Y5439D01*
X48601Y5452D01*
X48603Y5468D01*
X48608Y5484D01*
X48613Y5499D01*
Y5500D01*
X48614Y5501D01*
X48614Y5503D01*
X48616Y5506D01*
X48619Y5514D01*
X48625Y5523D01*
X48632Y5534D01*
X48639Y5546D01*
X48649Y5557D01*
X48659Y5569D01*
X48660Y5570D01*
X48664Y5574D01*
X48671Y5579D01*
X48679Y5586D01*
X48689Y5593D01*
X48701Y5601D01*
X48714Y5608D01*
X48729Y5615D01*
X48730D01*
X48731Y5616D01*
X48733Y5616D01*
X48736Y5618D01*
X48740Y5619D01*
X48744Y5620D01*
X48756Y5624D01*
X48769Y5627D01*
X48784Y5629D01*
X48802Y5631D01*
X48820Y5632D01*
X49039D01*
X49043Y5631D01*
D02*
G37*
G36*
X25377D02*
X25382D01*
X25393Y5630D01*
X25407Y5627D01*
X25423Y5624D01*
X25439Y5621D01*
X25454Y5615D01*
X25455D01*
X25456Y5614D01*
X25458Y5613D01*
X25461Y5612D01*
X25469Y5608D01*
X25478Y5603D01*
X25489Y5597D01*
X25501Y5589D01*
X25512Y5580D01*
X25524Y5569D01*
X25525Y5568D01*
X25529Y5564D01*
X25534Y5557D01*
X25541Y5549D01*
X25548Y5539D01*
X25556Y5527D01*
X25563Y5514D01*
X25570Y5499D01*
Y5498D01*
X25571Y5497D01*
X25571Y5495D01*
X25573Y5492D01*
X25574Y5488D01*
X25575Y5484D01*
X25579Y5473D01*
X25582Y5459D01*
X25584Y5444D01*
X25586Y5427D01*
X25587Y5409D01*
Y5353D01*
X25390D01*
Y5397D01*
Y5398D01*
Y5401D01*
X25389Y5406D01*
X25388Y5412D01*
X25385Y5419D01*
X25383Y5426D01*
X25379Y5433D01*
X25373Y5439D01*
X25372Y5440D01*
X25370Y5442D01*
X25367Y5444D01*
X25362Y5448D01*
X25356Y5451D01*
X25348Y5453D01*
X25340Y5455D01*
X25331Y5456D01*
X25182D01*
X25177Y5455D01*
X25171Y5454D01*
X25165Y5452D01*
X25157Y5449D01*
X25150Y5445D01*
X25143Y5439D01*
X25143Y5439D01*
X25141Y5436D01*
X25138Y5433D01*
X25135Y5428D01*
X25133Y5422D01*
X25130Y5414D01*
X25128Y5406D01*
X25127Y5396D01*
Y5322D01*
Y5320D01*
Y5318D01*
X25128Y5312D01*
X25130Y5307D01*
X25131Y5300D01*
X25134Y5293D01*
X25138Y5285D01*
X25143Y5279D01*
X25144Y5278D01*
X25146Y5277D01*
X25150Y5274D01*
X25155Y5271D01*
X25162Y5268D01*
X25169Y5265D01*
X25177Y5264D01*
X25186Y5263D01*
X25379D01*
X25383Y5262D01*
X25388D01*
X25400Y5261D01*
X25414Y5258D01*
X25429Y5256D01*
X25445Y5252D01*
X25461Y5246D01*
X25461D01*
X25463Y5245D01*
X25464Y5245D01*
X25467Y5243D01*
X25475Y5240D01*
X25485Y5234D01*
X25496Y5228D01*
X25507Y5220D01*
X25519Y5211D01*
X25531Y5200D01*
X25532Y5199D01*
X25536Y5195D01*
X25541Y5188D01*
X25547Y5180D01*
X25555Y5170D01*
X25563Y5159D01*
X25570Y5145D01*
X25576Y5130D01*
Y5129D01*
X25577Y5128D01*
X25578Y5126D01*
X25579Y5123D01*
X25580Y5119D01*
X25582Y5115D01*
X25585Y5104D01*
X25588Y5090D01*
X25590Y5075D01*
X25593Y5058D01*
X25593Y5040D01*
Y4936D01*
Y4935D01*
Y4933D01*
Y4930D01*
Y4928D01*
X25593Y4923D01*
Y4918D01*
X25591Y4906D01*
X25589Y4892D01*
X25586Y4876D01*
X25582Y4860D01*
X25576Y4845D01*
Y4844D01*
X25576Y4844D01*
X25575Y4841D01*
X25574Y4839D01*
X25570Y4831D01*
X25565Y4821D01*
X25558Y4810D01*
X25550Y4798D01*
X25541Y4786D01*
X25531Y4774D01*
X25529Y4773D01*
X25525Y4769D01*
X25519Y4764D01*
X25511Y4758D01*
X25501Y4750D01*
X25489Y4743D01*
X25475Y4736D01*
X25461Y4729D01*
X25460D01*
X25458Y4728D01*
X25456Y4728D01*
X25453Y4727D01*
X25450Y4726D01*
X25445Y4724D01*
X25434Y4721D01*
X25420Y4718D01*
X25405Y4715D01*
X25388Y4714D01*
X25370Y4713D01*
X25132D01*
X25127Y4714D01*
X25122D01*
X25111Y4715D01*
X25096Y4717D01*
X25081Y4720D01*
X25065Y4724D01*
X25049Y4729D01*
X25049D01*
X25048Y4730D01*
X25046Y4731D01*
X25043Y4732D01*
X25035Y4736D01*
X25025Y4741D01*
X25014Y4747D01*
X25003Y4755D01*
X24991Y4764D01*
X24979Y4774D01*
X24978Y4776D01*
X24974Y4780D01*
X24969Y4786D01*
X24963Y4795D01*
X24955Y4805D01*
X24948Y4817D01*
X24940Y4831D01*
X24934Y4845D01*
Y4846D01*
X24933Y4847D01*
X24932Y4850D01*
X24931Y4852D01*
X24930Y4856D01*
X24928Y4860D01*
X24925Y4872D01*
X24923Y4885D01*
X24920Y4901D01*
X24918Y4917D01*
X24917Y4936D01*
Y4992D01*
X25114D01*
Y4947D01*
Y4946D01*
Y4943D01*
X25115Y4938D01*
X25116Y4932D01*
X25118Y4925D01*
X25121Y4918D01*
X25125Y4911D01*
X25130Y4905D01*
X25131Y4904D01*
X25133Y4903D01*
X25137Y4900D01*
X25142Y4897D01*
X25149Y4894D01*
X25156Y4891D01*
X25164Y4890D01*
X25173Y4889D01*
X25342D01*
X25347Y4890D01*
X25353Y4891D01*
X25359Y4893D01*
X25367Y4895D01*
X25373Y4900D01*
X25380Y4905D01*
X25380Y4906D01*
X25383Y4908D01*
X25385Y4911D01*
X25388Y4917D01*
X25391Y4923D01*
X25393Y4930D01*
X25396Y4938D01*
X25396Y4948D01*
Y5027D01*
Y5029D01*
Y5032D01*
X25396Y5037D01*
X25394Y5043D01*
X25392Y5049D01*
X25389Y5057D01*
X25385Y5064D01*
X25380Y5070D01*
X25379Y5071D01*
X25377Y5073D01*
X25373Y5076D01*
X25369Y5079D01*
X25362Y5082D01*
X25355Y5084D01*
X25347Y5086D01*
X25337Y5087D01*
X25145D01*
X25141Y5088D01*
X25135D01*
X25124Y5089D01*
X25109Y5091D01*
X25094Y5094D01*
X25078Y5098D01*
X25063Y5103D01*
X25062D01*
X25061Y5104D01*
X25059Y5105D01*
X25056Y5106D01*
X25048Y5110D01*
X25038Y5116D01*
X25028Y5122D01*
X25016Y5129D01*
X25004Y5139D01*
X24993Y5149D01*
X24991Y5151D01*
X24987Y5154D01*
X24982Y5161D01*
X24976Y5169D01*
X24968Y5179D01*
X24961Y5191D01*
X24953Y5205D01*
X24947Y5219D01*
Y5220D01*
X24946Y5221D01*
X24945Y5223D01*
X24944Y5226D01*
X24943Y5230D01*
X24942Y5234D01*
X24939Y5246D01*
X24936Y5259D01*
X24933Y5275D01*
X24931Y5292D01*
X24931Y5310D01*
Y5409D01*
Y5409D01*
Y5411D01*
Y5414D01*
Y5417D01*
X24931Y5422D01*
Y5427D01*
X24933Y5439D01*
X24934Y5452D01*
X24937Y5468D01*
X24942Y5484D01*
X24947Y5499D01*
Y5500D01*
X24947Y5501D01*
X24948Y5503D01*
X24950Y5506D01*
X24953Y5514D01*
X24959Y5523D01*
X24966Y5534D01*
X24973Y5546D01*
X24982Y5557D01*
X24993Y5569D01*
X24994Y5570D01*
X24998Y5574D01*
X25004Y5579D01*
X25012Y5586D01*
X25022Y5593D01*
X25035Y5601D01*
X25048Y5608D01*
X25063Y5615D01*
X25063D01*
X25065Y5616D01*
X25067Y5616D01*
X25070Y5618D01*
X25073Y5619D01*
X25078Y5620D01*
X25089Y5624D01*
X25103Y5627D01*
X25118Y5629D01*
X25135Y5631D01*
X25154Y5632D01*
X25372D01*
X25377Y5631D01*
D02*
G37*
G36*
X20303D02*
X20308D01*
X20320Y5630D01*
X20334Y5627D01*
X20349Y5624D01*
X20365Y5621D01*
X20380Y5615D01*
X20381D01*
X20382Y5614D01*
X20384Y5613D01*
X20387Y5612D01*
X20395Y5608D01*
X20404Y5603D01*
X20415Y5597D01*
X20427Y5589D01*
X20438Y5580D01*
X20450Y5569D01*
X20452Y5568D01*
X20455Y5564D01*
X20460Y5557D01*
X20467Y5549D01*
X20474Y5539D01*
X20482Y5527D01*
X20490Y5514D01*
X20496Y5499D01*
Y5498D01*
X20497Y5497D01*
X20498Y5495D01*
X20499Y5492D01*
X20500Y5488D01*
X20501Y5484D01*
X20505Y5473D01*
X20508Y5459D01*
X20510Y5444D01*
X20512Y5427D01*
X20513Y5409D01*
Y5353D01*
X20316D01*
Y5397D01*
Y5398D01*
Y5401D01*
X20315Y5406D01*
X20314Y5412D01*
X20312Y5419D01*
X20309Y5426D01*
X20305Y5433D01*
X20299Y5439D01*
X20299Y5440D01*
X20296Y5442D01*
X20293Y5444D01*
X20288Y5448D01*
X20282Y5451D01*
X20274Y5453D01*
X20266Y5455D01*
X20257Y5456D01*
X20108D01*
X20103Y5455D01*
X20097Y5454D01*
X20091Y5452D01*
X20083Y5449D01*
X20076Y5445D01*
X20070Y5439D01*
X20069Y5439D01*
X20067Y5436D01*
X20064Y5433D01*
X20062Y5428D01*
X20059Y5422D01*
X20056Y5414D01*
X20054Y5406D01*
X20054Y5396D01*
Y5322D01*
Y5320D01*
Y5318D01*
X20054Y5312D01*
X20056Y5307D01*
X20057Y5300D01*
X20060Y5293D01*
X20064Y5285D01*
X20070Y5279D01*
X20070Y5278D01*
X20073Y5277D01*
X20076Y5274D01*
X20081Y5271D01*
X20088Y5268D01*
X20095Y5265D01*
X20103Y5264D01*
X20113Y5263D01*
X20305D01*
X20309Y5262D01*
X20315D01*
X20326Y5261D01*
X20340Y5258D01*
X20355Y5256D01*
X20371Y5252D01*
X20387Y5246D01*
X20387D01*
X20389Y5245D01*
X20390Y5245D01*
X20393Y5243D01*
X20401Y5240D01*
X20411Y5234D01*
X20422Y5228D01*
X20433Y5220D01*
X20445Y5211D01*
X20457Y5200D01*
X20458Y5199D01*
X20462Y5195D01*
X20467Y5188D01*
X20473Y5180D01*
X20481Y5170D01*
X20489Y5159D01*
X20496Y5145D01*
X20503Y5130D01*
Y5129D01*
X20503Y5128D01*
X20504Y5126D01*
X20506Y5123D01*
X20506Y5119D01*
X20508Y5115D01*
X20511Y5104D01*
X20514Y5090D01*
X20516Y5075D01*
X20519Y5058D01*
X20519Y5040D01*
Y4936D01*
Y4935D01*
Y4933D01*
Y4930D01*
Y4928D01*
X20519Y4923D01*
Y4918D01*
X20517Y4906D01*
X20515Y4892D01*
X20512Y4876D01*
X20508Y4860D01*
X20503Y4845D01*
Y4844D01*
X20502Y4844D01*
X20501Y4841D01*
X20500Y4839D01*
X20496Y4831D01*
X20491Y4821D01*
X20484Y4810D01*
X20476Y4798D01*
X20468Y4786D01*
X20457Y4774D01*
X20455Y4773D01*
X20452Y4769D01*
X20445Y4764D01*
X20437Y4758D01*
X20427Y4750D01*
X20415Y4743D01*
X20401Y4736D01*
X20387Y4729D01*
X20386D01*
X20385Y4728D01*
X20382Y4728D01*
X20379Y4727D01*
X20376Y4726D01*
X20371Y4724D01*
X20360Y4721D01*
X20347Y4718D01*
X20331Y4715D01*
X20315Y4714D01*
X20296Y4713D01*
X20058D01*
X20054Y4714D01*
X20048D01*
X20037Y4715D01*
X20022Y4717D01*
X20007Y4720D01*
X19991Y4724D01*
X19976Y4729D01*
X19975D01*
X19974Y4730D01*
X19972Y4731D01*
X19969Y4732D01*
X19961Y4736D01*
X19952Y4741D01*
X19941Y4747D01*
X19929Y4755D01*
X19917Y4764D01*
X19906Y4774D01*
X19904Y4776D01*
X19900Y4780D01*
X19895Y4786D01*
X19889Y4795D01*
X19882Y4805D01*
X19874Y4817D01*
X19866Y4831D01*
X19860Y4845D01*
Y4846D01*
X19859Y4847D01*
X19858Y4850D01*
X19857Y4852D01*
X19856Y4856D01*
X19855Y4860D01*
X19852Y4872D01*
X19849Y4885D01*
X19846Y4901D01*
X19844Y4917D01*
X19844Y4936D01*
Y4992D01*
X20040D01*
Y4947D01*
Y4946D01*
Y4943D01*
X20041Y4938D01*
X20043Y4932D01*
X20044Y4925D01*
X20047Y4918D01*
X20051Y4911D01*
X20056Y4905D01*
X20057Y4904D01*
X20059Y4903D01*
X20063Y4900D01*
X20068Y4897D01*
X20075Y4894D01*
X20082Y4891D01*
X20090Y4890D01*
X20099Y4889D01*
X20268D01*
X20273Y4890D01*
X20279Y4891D01*
X20285Y4893D01*
X20293Y4895D01*
X20299Y4900D01*
X20306Y4905D01*
X20307Y4906D01*
X20309Y4908D01*
X20311Y4911D01*
X20315Y4917D01*
X20317Y4923D01*
X20320Y4930D01*
X20322Y4938D01*
X20323Y4948D01*
Y5027D01*
Y5029D01*
Y5032D01*
X20322Y5037D01*
X20320Y5043D01*
X20318Y5049D01*
X20315Y5057D01*
X20312Y5064D01*
X20306Y5070D01*
X20305Y5071D01*
X20303Y5073D01*
X20299Y5076D01*
X20295Y5079D01*
X20288Y5082D01*
X20281Y5084D01*
X20273Y5086D01*
X20264Y5087D01*
X20071D01*
X20067Y5088D01*
X20062D01*
X20050Y5089D01*
X20035Y5091D01*
X20020Y5094D01*
X20004Y5098D01*
X19989Y5103D01*
X19988D01*
X19987Y5104D01*
X19985Y5105D01*
X19982Y5106D01*
X19974Y5110D01*
X19965Y5116D01*
X19954Y5122D01*
X19942Y5129D01*
X19930Y5139D01*
X19919Y5149D01*
X19917Y5151D01*
X19914Y5154D01*
X19908Y5161D01*
X19902Y5169D01*
X19895Y5179D01*
X19887Y5191D01*
X19879Y5205D01*
X19873Y5219D01*
Y5220D01*
X19872Y5221D01*
X19871Y5223D01*
X19871Y5226D01*
X19869Y5230D01*
X19868Y5234D01*
X19865Y5246D01*
X19862Y5259D01*
X19859Y5275D01*
X19857Y5292D01*
X19857Y5310D01*
Y5409D01*
Y5409D01*
Y5411D01*
Y5414D01*
Y5417D01*
X19857Y5422D01*
Y5427D01*
X19859Y5439D01*
X19860Y5452D01*
X19863Y5468D01*
X19868Y5484D01*
X19873Y5499D01*
Y5500D01*
X19874Y5501D01*
X19874Y5503D01*
X19876Y5506D01*
X19879Y5514D01*
X19885Y5523D01*
X19892Y5534D01*
X19899Y5546D01*
X19908Y5557D01*
X19919Y5569D01*
X19920Y5570D01*
X19924Y5574D01*
X19930Y5579D01*
X19938Y5586D01*
X19949Y5593D01*
X19961Y5601D01*
X19974Y5608D01*
X19989Y5615D01*
X19989D01*
X19991Y5616D01*
X19993Y5616D01*
X19996Y5618D01*
X20000Y5619D01*
X20004Y5620D01*
X20016Y5624D01*
X20029Y5627D01*
X20044Y5629D01*
X20062Y5631D01*
X20080Y5632D01*
X20299D01*
X20303Y5631D01*
D02*
G37*
G36*
X51969Y5374D02*
X51978Y5372D01*
X51988Y5369D01*
Y5214D01*
X51879D01*
X51872Y5213D01*
X51863Y5211D01*
X51853Y5208D01*
X51842Y5204D01*
X51831Y5198D01*
X51822Y5190D01*
X51821Y5189D01*
X51818Y5186D01*
X51815Y5180D01*
X51810Y5173D01*
X51805Y5164D01*
X51802Y5153D01*
X51799Y5140D01*
X51798Y5127D01*
Y4713D01*
X51608D01*
Y5369D01*
X51785D01*
X51798Y5299D01*
X51803D01*
X51804Y5300D01*
X51804Y5301D01*
X51807Y5304D01*
X51809Y5308D01*
X51813Y5312D01*
X51816Y5318D01*
X51826Y5328D01*
X51838Y5340D01*
X51853Y5352D01*
X51868Y5362D01*
X51877Y5366D01*
X51885Y5370D01*
X51886D01*
X51888Y5371D01*
X51891Y5371D01*
X51894Y5372D01*
X51899Y5374D01*
X51904Y5374D01*
X51909Y5376D01*
X51917Y5377D01*
X51932Y5377D01*
X51950D01*
X51969Y5374D01*
D02*
G37*
G36*
X23228D02*
X23238Y5372D01*
X23248Y5369D01*
Y5214D01*
X23139D01*
X23131Y5213D01*
X23123Y5211D01*
X23112Y5208D01*
X23102Y5204D01*
X23091Y5198D01*
X23082Y5190D01*
X23081Y5189D01*
X23078Y5186D01*
X23075Y5180D01*
X23070Y5173D01*
X23065Y5164D01*
X23061Y5153D01*
X23059Y5140D01*
X23058Y5127D01*
Y4713D01*
X22868D01*
Y5369D01*
X23045D01*
X23058Y5299D01*
X23063D01*
X23064Y5300D01*
X23064Y5301D01*
X23067Y5304D01*
X23069Y5308D01*
X23072Y5312D01*
X23076Y5318D01*
X23086Y5328D01*
X23098Y5340D01*
X23112Y5352D01*
X23128Y5362D01*
X23137Y5366D01*
X23145Y5370D01*
X23146D01*
X23147Y5371D01*
X23150Y5371D01*
X23154Y5372D01*
X23158Y5374D01*
X23163Y5374D01*
X23169Y5376D01*
X23177Y5377D01*
X23192Y5377D01*
X23209D01*
X23228Y5374D01*
D02*
G37*
G36*
X50989Y5703D02*
X50995D01*
X51007Y5702D01*
X51022Y5700D01*
X51038Y5696D01*
X51054Y5691D01*
X51071Y5686D01*
X51072D01*
X51073Y5685D01*
X51076Y5684D01*
X51078Y5683D01*
X51086Y5678D01*
X51097Y5673D01*
X51109Y5666D01*
X51121Y5658D01*
X51134Y5648D01*
X51146Y5637D01*
X51147D01*
X51148Y5635D01*
X51151Y5631D01*
X51157Y5624D01*
X51164Y5616D01*
X51172Y5605D01*
X51180Y5592D01*
X51188Y5578D01*
X51195Y5562D01*
Y5561D01*
X51196Y5560D01*
X51197Y5557D01*
X51198Y5554D01*
X51199Y5550D01*
X51201Y5546D01*
X51205Y5534D01*
X51207Y5519D01*
X51210Y5503D01*
X51213Y5485D01*
X51213Y5466D01*
Y5466D01*
Y5464D01*
Y5461D01*
Y5457D01*
X51213Y5453D01*
Y5447D01*
X51211Y5435D01*
X51209Y5420D01*
X51205Y5404D01*
X51201Y5387D01*
X51195Y5370D01*
Y5369D01*
X51194Y5368D01*
X51194Y5366D01*
X51192Y5363D01*
X51188Y5355D01*
X51183Y5344D01*
X51175Y5333D01*
X51167Y5320D01*
X51157Y5308D01*
X51146Y5296D01*
X51145Y5294D01*
X51140Y5291D01*
X51134Y5285D01*
X51125Y5278D01*
X51114Y5270D01*
X51101Y5262D01*
X51087Y5254D01*
X51071Y5247D01*
X51070D01*
X51069Y5246D01*
X51067Y5245D01*
X51064Y5244D01*
X51059Y5242D01*
X51055Y5241D01*
X51043Y5238D01*
X51029Y5235D01*
X51013Y5232D01*
X50995Y5230D01*
X50976Y5229D01*
X50967D01*
X50963Y5230D01*
X50957D01*
X50944Y5232D01*
X50929Y5234D01*
X50913Y5237D01*
X50896Y5241D01*
X50879Y5247D01*
X50879D01*
X50877Y5248D01*
X50875Y5249D01*
X50872Y5250D01*
X50864Y5254D01*
X50854Y5259D01*
X50842Y5266D01*
X50830Y5275D01*
X50817Y5285D01*
X50805Y5296D01*
Y5296D01*
X50804Y5297D01*
X50800Y5301D01*
X50794Y5308D01*
X50788Y5317D01*
X50780Y5328D01*
X50771Y5340D01*
X50763Y5355D01*
X50756Y5370D01*
Y5371D01*
X50755Y5372D01*
X50755Y5374D01*
X50753Y5378D01*
X50752Y5382D01*
X50750Y5387D01*
X50747Y5398D01*
X50745Y5413D01*
X50742Y5429D01*
X50739Y5447D01*
X50739Y5466D01*
Y5467D01*
Y5468D01*
Y5471D01*
Y5475D01*
X50739Y5480D01*
Y5485D01*
X50741Y5498D01*
X50743Y5513D01*
X50746Y5529D01*
X50750Y5545D01*
X50756Y5562D01*
Y5562D01*
X50757Y5564D01*
X50758Y5566D01*
X50759Y5569D01*
X50763Y5577D01*
X50769Y5587D01*
X50776Y5600D01*
X50784Y5612D01*
X50794Y5624D01*
X50805Y5637D01*
X50806Y5638D01*
X50806Y5638D01*
X50811Y5642D01*
X50817Y5648D01*
X50826Y5655D01*
X50837Y5662D01*
X50850Y5670D01*
X50864Y5678D01*
X50879Y5686D01*
X50880D01*
X50882Y5686D01*
X50884Y5687D01*
X50887Y5689D01*
X50891Y5690D01*
X50896Y5691D01*
X50908Y5695D01*
X50922Y5698D01*
X50938Y5701D01*
X50957Y5703D01*
X50976Y5704D01*
X50984D01*
X50989Y5703D01*
D02*
G37*
G36*
X22249D02*
X22254D01*
X22267Y5702D01*
X22282Y5700D01*
X22298Y5696D01*
X22314Y5691D01*
X22331Y5686D01*
X22332D01*
X22333Y5685D01*
X22335Y5684D01*
X22338Y5683D01*
X22346Y5678D01*
X22356Y5673D01*
X22369Y5666D01*
X22381Y5658D01*
X22394Y5648D01*
X22406Y5637D01*
X22407D01*
X22408Y5635D01*
X22411Y5631D01*
X22417Y5624D01*
X22424Y5616D01*
X22432Y5605D01*
X22440Y5592D01*
X22448Y5578D01*
X22455Y5562D01*
Y5561D01*
X22456Y5560D01*
X22456Y5557D01*
X22458Y5554D01*
X22459Y5550D01*
X22461Y5546D01*
X22464Y5534D01*
X22467Y5519D01*
X22470Y5503D01*
X22472Y5485D01*
X22473Y5466D01*
Y5466D01*
Y5464D01*
Y5461D01*
Y5457D01*
X22472Y5453D01*
Y5447D01*
X22471Y5435D01*
X22469Y5420D01*
X22465Y5404D01*
X22461Y5387D01*
X22455Y5370D01*
Y5369D01*
X22454Y5368D01*
X22453Y5366D01*
X22452Y5363D01*
X22448Y5355D01*
X22443Y5344D01*
X22435Y5333D01*
X22427Y5320D01*
X22417Y5308D01*
X22406Y5296D01*
X22405Y5294D01*
X22400Y5291D01*
X22394Y5285D01*
X22385Y5278D01*
X22374Y5270D01*
X22361Y5262D01*
X22347Y5254D01*
X22331Y5247D01*
X22330D01*
X22329Y5246D01*
X22327Y5245D01*
X22324Y5244D01*
X22319Y5242D01*
X22315Y5241D01*
X22303Y5238D01*
X22289Y5235D01*
X22273Y5232D01*
X22254Y5230D01*
X22235Y5229D01*
X22227D01*
X22222Y5230D01*
X22217D01*
X22204Y5232D01*
X22189Y5234D01*
X22173Y5237D01*
X22156Y5241D01*
X22139Y5247D01*
X22139D01*
X22137Y5248D01*
X22135Y5249D01*
X22132Y5250D01*
X22124Y5254D01*
X22114Y5259D01*
X22102Y5266D01*
X22090Y5275D01*
X22077Y5285D01*
X22065Y5296D01*
Y5296D01*
X22063Y5297D01*
X22060Y5301D01*
X22054Y5308D01*
X22047Y5317D01*
X22039Y5328D01*
X22031Y5340D01*
X22023Y5355D01*
X22016Y5370D01*
Y5371D01*
X22015Y5372D01*
X22015Y5374D01*
X22013Y5378D01*
X22012Y5382D01*
X22010Y5387D01*
X22007Y5398D01*
X22004Y5413D01*
X22001Y5429D01*
X21999Y5447D01*
X21999Y5466D01*
Y5467D01*
Y5468D01*
Y5471D01*
Y5475D01*
X21999Y5480D01*
Y5485D01*
X22001Y5498D01*
X22003Y5513D01*
X22006Y5529D01*
X22010Y5545D01*
X22016Y5562D01*
Y5562D01*
X22017Y5564D01*
X22018Y5566D01*
X22019Y5569D01*
X22023Y5577D01*
X22028Y5587D01*
X22036Y5600D01*
X22044Y5612D01*
X22054Y5624D01*
X22065Y5637D01*
X22066Y5638D01*
X22066Y5638D01*
X22071Y5642D01*
X22077Y5648D01*
X22086Y5655D01*
X22097Y5662D01*
X22109Y5670D01*
X22124Y5678D01*
X22139Y5686D01*
X22140D01*
X22141Y5686D01*
X22144Y5687D01*
X22147Y5689D01*
X22151Y5690D01*
X22156Y5691D01*
X22168Y5695D01*
X22182Y5698D01*
X22198Y5701D01*
X22217Y5703D01*
X22235Y5704D01*
X22244D01*
X22249Y5703D01*
D02*
G37*
G36*
X50634Y4713D02*
X50457D01*
X50443Y4782D01*
X50438D01*
Y4782D01*
X50437Y4781D01*
X50434Y4777D01*
X50429Y4771D01*
X50422Y4763D01*
X50414Y4753D01*
X50404Y4744D01*
X50392Y4734D01*
X50378Y4726D01*
X50377D01*
X50376Y4725D01*
X50373Y4723D01*
X50371Y4722D01*
X50367Y4720D01*
X50362Y4719D01*
X50357Y4717D01*
X50350Y4715D01*
X50343Y4712D01*
X50335Y4711D01*
X50326Y4709D01*
X50317Y4707D01*
X50296Y4704D01*
X50273Y4704D01*
X50261D01*
X50256Y4704D01*
X50245Y4705D01*
X50232Y4707D01*
X50217Y4708D01*
X50203Y4711D01*
X50188Y4715D01*
X50187D01*
X50186Y4715D01*
X50184Y4716D01*
X50181Y4717D01*
X50174Y4720D01*
X50165Y4723D01*
X50155Y4728D01*
X50143Y4735D01*
X50132Y4743D01*
X50121Y4752D01*
X50120Y4753D01*
X50117Y4757D01*
X50112Y4762D01*
X50106Y4770D01*
X50099Y4780D01*
X50092Y4791D01*
X50085Y4805D01*
X50078Y4820D01*
Y4820D01*
X50078Y4822D01*
X50077Y4824D01*
X50076Y4827D01*
X50075Y4831D01*
X50073Y4836D01*
X50072Y4841D01*
X50071Y4848D01*
X50068Y4863D01*
X50065Y4881D01*
X50064Y4901D01*
X50063Y4922D01*
Y5369D01*
X50253D01*
Y4914D01*
Y4912D01*
Y4909D01*
X50254Y4904D01*
X50255Y4898D01*
X50257Y4892D01*
X50260Y4884D01*
X50264Y4877D01*
X50269Y4871D01*
X50270Y4870D01*
X50272Y4868D01*
X50276Y4866D01*
X50281Y4863D01*
X50287Y4860D01*
X50295Y4857D01*
X50303Y4855D01*
X50312Y4855D01*
X50359D01*
X50362Y4855D01*
X50369Y4856D01*
X50378Y4858D01*
X50388Y4860D01*
X50399Y4865D01*
X50409Y4871D01*
X50419Y4879D01*
X50419Y4880D01*
X50422Y4883D01*
X50427Y4888D01*
X50431Y4895D01*
X50435Y4905D01*
X50440Y4916D01*
X50443Y4928D01*
X50443Y4942D01*
Y5369D01*
X50634D01*
Y4713D01*
D02*
G37*
G36*
X21894D02*
X21716D01*
X21703Y4782D01*
X21697D01*
Y4782D01*
X21697Y4781D01*
X21694Y4777D01*
X21689Y4771D01*
X21682Y4763D01*
X21674Y4753D01*
X21664Y4744D01*
X21652Y4734D01*
X21638Y4726D01*
X21637D01*
X21636Y4725D01*
X21633Y4723D01*
X21630Y4722D01*
X21627Y4720D01*
X21622Y4719D01*
X21617Y4717D01*
X21610Y4715D01*
X21603Y4712D01*
X21595Y4711D01*
X21586Y4709D01*
X21577Y4707D01*
X21556Y4704D01*
X21533Y4704D01*
X21521D01*
X21516Y4704D01*
X21505Y4705D01*
X21492Y4707D01*
X21477Y4708D01*
X21463Y4711D01*
X21447Y4715D01*
X21447D01*
X21446Y4715D01*
X21444Y4716D01*
X21441Y4717D01*
X21434Y4720D01*
X21425Y4723D01*
X21415Y4728D01*
X21403Y4735D01*
X21392Y4743D01*
X21381Y4752D01*
X21380Y4753D01*
X21377Y4757D01*
X21372Y4762D01*
X21366Y4770D01*
X21358Y4780D01*
X21352Y4791D01*
X21345Y4805D01*
X21338Y4820D01*
Y4820D01*
X21337Y4822D01*
X21337Y4824D01*
X21336Y4827D01*
X21334Y4831D01*
X21333Y4836D01*
X21332Y4841D01*
X21331Y4848D01*
X21328Y4863D01*
X21325Y4881D01*
X21323Y4901D01*
X21323Y4922D01*
Y5369D01*
X21513D01*
Y4914D01*
Y4912D01*
Y4909D01*
X21514Y4904D01*
X21515Y4898D01*
X21517Y4892D01*
X21520Y4884D01*
X21524Y4877D01*
X21529Y4871D01*
X21530Y4870D01*
X21532Y4868D01*
X21536Y4866D01*
X21541Y4863D01*
X21547Y4860D01*
X21555Y4857D01*
X21563Y4855D01*
X21572Y4855D01*
X21619D01*
X21622Y4855D01*
X21629Y4856D01*
X21638Y4858D01*
X21648Y4860D01*
X21659Y4865D01*
X21669Y4871D01*
X21679Y4879D01*
X21679Y4880D01*
X21682Y4883D01*
X21687Y4888D01*
X21691Y4895D01*
X21695Y4905D01*
X21700Y4916D01*
X21703Y4928D01*
X21703Y4942D01*
Y5369D01*
X21894D01*
Y4713D01*
D02*
G37*
G36*
X53618D02*
X53402D01*
X53342Y4906D01*
X53045D01*
X52985Y4713D01*
X52594D01*
X52533Y4906D01*
X52236D01*
X52177Y4713D01*
X51975D01*
X52291Y5632D01*
X52492D01*
X52796Y4750D01*
X53099Y5632D01*
X53300D01*
X53618Y4713D01*
D02*
G37*
G36*
X24877D02*
X24662D01*
X24602Y4906D01*
X24304D01*
X24245Y4713D01*
X23854D01*
X23793Y4906D01*
X23496D01*
X23437Y4713D01*
X23235D01*
X23551Y5632D01*
X23752D01*
X24056Y4750D01*
X24359Y5632D01*
X24560D01*
X24877Y4713D01*
D02*
G37*
G36*
X49568Y5122D02*
X49574D01*
X49776Y5369D01*
X49993D01*
X49763Y5104D01*
X50023Y4713D01*
X49795D01*
X49634Y4954D01*
X49568Y4877D01*
Y4713D01*
X49378D01*
Y5632D01*
X49568D01*
Y5122D01*
D02*
G37*
G36*
X20828D02*
X20834D01*
X21036Y5369D01*
X21253D01*
X21023Y5104D01*
X21283Y4713D01*
X21054D01*
X20894Y4954D01*
X20828Y4877D01*
Y4713D01*
X20638D01*
Y5632D01*
X20828D01*
Y5122D01*
D02*
G37*
G36*
X50958Y4462D02*
X50962Y4461D01*
X50968Y4459D01*
Y4382D01*
X50913D01*
X50909Y4381D01*
X50905Y4380D01*
X50900Y4379D01*
X50895Y4377D01*
X50889Y4374D01*
X50885Y4370D01*
X50884Y4369D01*
X50883Y4367D01*
X50881Y4365D01*
X50879Y4361D01*
X50876Y4357D01*
X50874Y4351D01*
X50873Y4345D01*
X50873Y4338D01*
Y4132D01*
X50778D01*
Y4459D01*
X50866D01*
X50873Y4424D01*
X50875D01*
X50875Y4425D01*
X50876Y4425D01*
X50877Y4427D01*
X50878Y4429D01*
X50880Y4431D01*
X50882Y4433D01*
X50887Y4439D01*
X50893Y4445D01*
X50900Y4450D01*
X50908Y4456D01*
X50912Y4458D01*
X50916Y4460D01*
X50917D01*
X50917Y4460D01*
X50919Y4460D01*
X50921Y4461D01*
X50923Y4461D01*
X50925Y4462D01*
X50928Y4462D01*
X50932Y4463D01*
X50940Y4463D01*
X50948D01*
X50958Y4462D01*
D02*
G37*
G36*
X22218D02*
X22222Y4461D01*
X22227Y4459D01*
Y4382D01*
X22173D01*
X22169Y4381D01*
X22165Y4380D01*
X22160Y4379D01*
X22155Y4377D01*
X22149Y4374D01*
X22144Y4370D01*
X22144Y4369D01*
X22143Y4367D01*
X22141Y4365D01*
X22139Y4361D01*
X22136Y4357D01*
X22134Y4351D01*
X22133Y4345D01*
X22132Y4338D01*
Y4132D01*
X22037D01*
Y4459D01*
X22126D01*
X22132Y4424D01*
X22135D01*
X22135Y4425D01*
X22136Y4425D01*
X22137Y4427D01*
X22138Y4429D01*
X22140Y4431D01*
X22142Y4433D01*
X22147Y4439D01*
X22152Y4445D01*
X22160Y4450D01*
X22167Y4456D01*
X22172Y4458D01*
X22176Y4460D01*
X22176D01*
X22177Y4460D01*
X22179Y4460D01*
X22180Y4461D01*
X22183Y4461D01*
X22185Y4462D01*
X22188Y4462D01*
X22192Y4463D01*
X22199Y4463D01*
X22208D01*
X22218Y4462D01*
D02*
G37*
G36*
X51558Y4590D02*
X51560D01*
X51566Y4589D01*
X51573Y4588D01*
X51581Y4587D01*
X51589Y4585D01*
X51596Y4582D01*
X51597D01*
X51597Y4581D01*
X51598Y4581D01*
X51599Y4580D01*
X51603Y4579D01*
X51608Y4576D01*
X51614Y4572D01*
X51619Y4568D01*
X51625Y4564D01*
X51631Y4559D01*
X51632Y4558D01*
X51634Y4556D01*
X51636Y4553D01*
X51640Y4549D01*
X51644Y4544D01*
X51647Y4538D01*
X51651Y4531D01*
X51654Y4524D01*
Y4523D01*
X51655Y4523D01*
X51655Y4522D01*
X51656Y4520D01*
X51656Y4518D01*
X51657Y4516D01*
X51659Y4510D01*
X51660Y4504D01*
X51661Y4496D01*
X51662Y4488D01*
X51663Y4478D01*
Y4447D01*
Y4447D01*
Y4446D01*
Y4445D01*
Y4443D01*
X51662Y4441D01*
Y4438D01*
X51662Y4432D01*
X51660Y4425D01*
X51659Y4418D01*
X51656Y4410D01*
X51653Y4402D01*
Y4402D01*
X51653Y4401D01*
X51652Y4400D01*
X51651Y4399D01*
X51649Y4395D01*
X51646Y4390D01*
X51643Y4385D01*
X51638Y4378D01*
X51634Y4373D01*
X51629Y4367D01*
X51484Y4222D01*
Y4219D01*
X51666D01*
Y4132D01*
X51355D01*
Y4219D01*
X51541Y4403D01*
X51542Y4404D01*
X51543Y4405D01*
X51546Y4407D01*
X51548Y4410D01*
X51551Y4414D01*
X51554Y4417D01*
X51557Y4422D01*
X51559Y4426D01*
X51559Y4426D01*
X51560Y4428D01*
X51561Y4430D01*
X51562Y4433D01*
X51563Y4437D01*
X51564Y4441D01*
X51564Y4446D01*
X51565Y4451D01*
Y4473D01*
Y4473D01*
Y4475D01*
X51564Y4477D01*
X51563Y4480D01*
X51562Y4484D01*
X51561Y4487D01*
X51559Y4491D01*
X51556Y4494D01*
X51556Y4494D01*
X51555Y4496D01*
X51553Y4497D01*
X51550Y4498D01*
X51547Y4500D01*
X51543Y4501D01*
X51539Y4502D01*
X51535Y4502D01*
X51481D01*
X51478Y4502D01*
X51475Y4501D01*
X51472Y4500D01*
X51468Y4499D01*
X51465Y4497D01*
X51462Y4494D01*
X51461Y4494D01*
X51460Y4493D01*
X51459Y4491D01*
X51458Y4489D01*
X51456Y4485D01*
X51455Y4482D01*
X51454Y4478D01*
X51454Y4473D01*
Y4451D01*
X51355D01*
Y4479D01*
Y4479D01*
Y4480D01*
Y4481D01*
Y4483D01*
X51356Y4485D01*
Y4488D01*
X51356Y4494D01*
X51357Y4501D01*
X51358Y4508D01*
X51361Y4516D01*
X51363Y4524D01*
Y4524D01*
X51364Y4525D01*
X51364Y4526D01*
X51365Y4527D01*
X51367Y4531D01*
X51369Y4536D01*
X51373Y4541D01*
X51376Y4547D01*
X51381Y4553D01*
X51386Y4559D01*
X51387Y4560D01*
X51389Y4561D01*
X51392Y4564D01*
X51396Y4567D01*
X51401Y4571D01*
X51407Y4575D01*
X51414Y4579D01*
X51421Y4582D01*
X51421D01*
X51422Y4582D01*
X51423Y4583D01*
X51425Y4583D01*
X51427Y4584D01*
X51429Y4584D01*
X51435Y4586D01*
X51441Y4588D01*
X51449Y4589D01*
X51458Y4590D01*
X51467Y4590D01*
X51555D01*
X51558Y4590D01*
D02*
G37*
G36*
X51314Y4132D02*
X51222D01*
Y4223D01*
X51314D01*
Y4132D01*
D02*
G37*
G36*
X51170D02*
X51072D01*
Y4486D01*
X51069D01*
X50976Y4419D01*
Y4521D01*
X51072Y4590D01*
X51170D01*
Y4132D01*
D02*
G37*
G36*
X22817Y4590D02*
X22820D01*
X22826Y4589D01*
X22833Y4588D01*
X22840Y4587D01*
X22848Y4585D01*
X22856Y4582D01*
X22856D01*
X22857Y4581D01*
X22858Y4581D01*
X22859Y4580D01*
X22863Y4579D01*
X22868Y4576D01*
X22874Y4572D01*
X22879Y4568D01*
X22885Y4564D01*
X22891Y4559D01*
X22892Y4558D01*
X22894Y4556D01*
X22896Y4553D01*
X22899Y4549D01*
X22903Y4544D01*
X22907Y4538D01*
X22911Y4531D01*
X22914Y4524D01*
Y4523D01*
X22915Y4523D01*
X22915Y4522D01*
X22916Y4520D01*
X22916Y4518D01*
X22917Y4516D01*
X22919Y4510D01*
X22920Y4504D01*
X22921Y4496D01*
X22922Y4488D01*
X22923Y4478D01*
Y4447D01*
Y4447D01*
Y4446D01*
Y4445D01*
Y4443D01*
X22922Y4441D01*
Y4438D01*
X22922Y4432D01*
X22920Y4425D01*
X22919Y4418D01*
X22916Y4410D01*
X22913Y4402D01*
Y4402D01*
X22912Y4401D01*
X22912Y4400D01*
X22911Y4399D01*
X22909Y4395D01*
X22906Y4390D01*
X22903Y4385D01*
X22898Y4378D01*
X22894Y4373D01*
X22888Y4367D01*
X22744Y4222D01*
Y4219D01*
X22926D01*
Y4132D01*
X22615D01*
Y4219D01*
X22801Y4403D01*
X22802Y4404D01*
X22803Y4405D01*
X22805Y4407D01*
X22808Y4410D01*
X22811Y4414D01*
X22814Y4417D01*
X22817Y4422D01*
X22819Y4426D01*
X22819Y4426D01*
X22820Y4428D01*
X22821Y4430D01*
X22822Y4433D01*
X22823Y4437D01*
X22824Y4441D01*
X22824Y4446D01*
X22824Y4451D01*
Y4473D01*
Y4473D01*
Y4475D01*
X22824Y4477D01*
X22823Y4480D01*
X22822Y4484D01*
X22821Y4487D01*
X22819Y4491D01*
X22816Y4494D01*
X22816Y4494D01*
X22815Y4496D01*
X22813Y4497D01*
X22810Y4498D01*
X22807Y4500D01*
X22803Y4501D01*
X22799Y4502D01*
X22795Y4502D01*
X22741D01*
X22738Y4502D01*
X22735Y4501D01*
X22732Y4500D01*
X22728Y4499D01*
X22725Y4497D01*
X22721Y4494D01*
X22721Y4494D01*
X22720Y4493D01*
X22719Y4491D01*
X22717Y4489D01*
X22716Y4485D01*
X22714Y4482D01*
X22714Y4478D01*
X22713Y4473D01*
Y4451D01*
X22615D01*
Y4479D01*
Y4479D01*
Y4480D01*
Y4481D01*
Y4483D01*
X22615Y4485D01*
Y4488D01*
X22616Y4494D01*
X22617Y4501D01*
X22618Y4508D01*
X22621Y4516D01*
X22623Y4524D01*
Y4524D01*
X22623Y4525D01*
X22624Y4526D01*
X22625Y4527D01*
X22626Y4531D01*
X22629Y4536D01*
X22633Y4541D01*
X22636Y4547D01*
X22641Y4553D01*
X22646Y4559D01*
X22647Y4560D01*
X22649Y4561D01*
X22652Y4564D01*
X22656Y4567D01*
X22661Y4571D01*
X22667Y4575D01*
X22674Y4579D01*
X22681Y4582D01*
X22681D01*
X22682Y4582D01*
X22683Y4583D01*
X22685Y4583D01*
X22686Y4584D01*
X22689Y4584D01*
X22694Y4586D01*
X22701Y4588D01*
X22709Y4589D01*
X22717Y4590D01*
X22726Y4590D01*
X22815D01*
X22817Y4590D01*
D02*
G37*
G36*
X22574Y4132D02*
X22482D01*
Y4223D01*
X22574D01*
Y4132D01*
D02*
G37*
G36*
X22430D02*
X22332D01*
Y4486D01*
X22329D01*
X22236Y4419D01*
Y4521D01*
X22332Y4590D01*
X22430D01*
Y4132D01*
D02*
G37*
%LPC*%
G36*
X50976Y34380D02*
X50968D01*
X50963Y34379D01*
X50956Y34378D01*
X50949Y34377D01*
X50940Y34376D01*
X50931Y34374D01*
X50911Y34368D01*
X50901Y34364D01*
X50890Y34359D01*
X50879Y34354D01*
X50869Y34347D01*
X50859Y34340D01*
X50850Y34331D01*
X50849Y34330D01*
X50847Y34329D01*
X50845Y34326D01*
X50842Y34322D01*
X50839Y34317D01*
X50834Y34311D01*
X50830Y34305D01*
X50825Y34298D01*
X50821Y34289D01*
X50817Y34279D01*
X50812Y34269D01*
X50809Y34258D01*
X50806Y34246D01*
X50804Y34233D01*
X50802Y34220D01*
X50801Y34206D01*
Y34206D01*
Y34203D01*
Y34199D01*
X50802Y34193D01*
X50803Y34187D01*
X50804Y34179D01*
X50806Y34171D01*
X50807Y34162D01*
X50813Y34142D01*
X50817Y34131D01*
X50822Y34120D01*
X50827Y34110D01*
X50833Y34100D01*
X50841Y34090D01*
X50850Y34080D01*
X50850Y34080D01*
X50852Y34078D01*
X50855Y34076D01*
X50858Y34073D01*
X50863Y34069D01*
X50869Y34065D01*
X50876Y34061D01*
X50884Y34056D01*
X50893Y34052D01*
X50902Y34047D01*
X50912Y34043D01*
X50923Y34039D01*
X50936Y34037D01*
X50948Y34034D01*
X50962Y34033D01*
X50976Y34032D01*
X50983D01*
X50988Y34033D01*
X50995Y34034D01*
X51002Y34035D01*
X51011Y34037D01*
X51019Y34038D01*
X51039Y34044D01*
X51050Y34047D01*
X51060Y34053D01*
X51070Y34058D01*
X51081Y34064D01*
X51091Y34072D01*
X51100Y34080D01*
X51101Y34081D01*
X51102Y34082D01*
X51105Y34085D01*
X51108Y34089D01*
X51112Y34094D01*
X51116Y34100D01*
X51120Y34107D01*
X51125Y34115D01*
X51129Y34123D01*
X51134Y34133D01*
X51137Y34143D01*
X51142Y34154D01*
X51145Y34166D01*
X51147Y34179D01*
X51148Y34193D01*
X51149Y34206D01*
Y34207D01*
Y34210D01*
Y34214D01*
X51148Y34219D01*
X51148Y34225D01*
X51146Y34233D01*
X51145Y34241D01*
X51143Y34250D01*
X51137Y34270D01*
X51133Y34281D01*
X51129Y34291D01*
X51123Y34301D01*
X51116Y34311D01*
X51109Y34322D01*
X51100Y34331D01*
X51100Y34332D01*
X51098Y34333D01*
X51095Y34335D01*
X51092Y34339D01*
X51086Y34343D01*
X51081Y34346D01*
X51074Y34351D01*
X51067Y34356D01*
X51058Y34360D01*
X51049Y34365D01*
X51038Y34368D01*
X51027Y34373D01*
X51015Y34376D01*
X51003Y34378D01*
X50989Y34379D01*
X50976Y34380D01*
D02*
G37*
%LPD*%
G36*
X51016Y34341D02*
X51024Y34339D01*
X51033Y34337D01*
X51043Y34333D01*
X51052Y34327D01*
X51061Y34320D01*
X51062Y34319D01*
X51065Y34316D01*
X51068Y34311D01*
X51072Y34305D01*
X51076Y34297D01*
X51079Y34287D01*
X51082Y34276D01*
X51083Y34264D01*
Y34236D01*
Y34235D01*
Y34231D01*
X51082Y34226D01*
X51081Y34220D01*
X51080Y34211D01*
X51077Y34203D01*
X51074Y34196D01*
X51070Y34189D01*
X51069Y34188D01*
X51067Y34186D01*
X51065Y34183D01*
X51062Y34179D01*
X51054Y34172D01*
X51049Y34168D01*
X51043Y34166D01*
X51087Y34077D01*
X51007D01*
X50971Y34159D01*
X50942D01*
Y34077D01*
X50873D01*
Y34342D01*
X51011D01*
X51016Y34341D01*
D02*
G37*
%LPC*%
G36*
X50995Y34279D02*
X50976D01*
X50971Y34279D01*
X50942D01*
Y34223D01*
X50995D01*
X50998Y34224D01*
X51003Y34225D01*
X51006Y34228D01*
X51010Y34231D01*
X51012Y34236D01*
X51013Y34243D01*
Y34256D01*
Y34257D01*
Y34258D01*
X51012Y34263D01*
X51011Y34268D01*
X51007Y34273D01*
X51006Y34273D01*
X51003Y34276D01*
X51000Y34278D01*
X50995Y34279D01*
D02*
G37*
G36*
X22235Y34380D02*
X22228D01*
X22222Y34379D01*
X22216Y34378D01*
X22208Y34377D01*
X22200Y34376D01*
X22191Y34374D01*
X22171Y34368D01*
X22160Y34364D01*
X22149Y34359D01*
X22139Y34354D01*
X22129Y34347D01*
X22119Y34340D01*
X22109Y34331D01*
X22109Y34330D01*
X22107Y34329D01*
X22105Y34326D01*
X22102Y34322D01*
X22098Y34317D01*
X22094Y34311D01*
X22090Y34305D01*
X22085Y34298D01*
X22081Y34289D01*
X22077Y34279D01*
X22072Y34269D01*
X22069Y34258D01*
X22066Y34246D01*
X22063Y34233D01*
X22062Y34220D01*
X22061Y34206D01*
Y34206D01*
Y34203D01*
Y34199D01*
X22062Y34193D01*
X22063Y34187D01*
X22064Y34179D01*
X22066Y34171D01*
X22067Y34162D01*
X22073Y34142D01*
X22077Y34131D01*
X22082Y34120D01*
X22087Y34110D01*
X22093Y34100D01*
X22101Y34090D01*
X22109Y34080D01*
X22110Y34080D01*
X22112Y34078D01*
X22114Y34076D01*
X22118Y34073D01*
X22123Y34069D01*
X22129Y34065D01*
X22136Y34061D01*
X22144Y34056D01*
X22152Y34052D01*
X22162Y34047D01*
X22172Y34043D01*
X22183Y34039D01*
X22195Y34037D01*
X22208Y34034D01*
X22222Y34033D01*
X22235Y34032D01*
X22243D01*
X22248Y34033D01*
X22254Y34034D01*
X22262Y34035D01*
X22270Y34037D01*
X22279Y34038D01*
X22299Y34044D01*
X22310Y34047D01*
X22320Y34053D01*
X22330Y34058D01*
X22340Y34064D01*
X22351Y34072D01*
X22360Y34080D01*
X22361Y34081D01*
X22362Y34082D01*
X22364Y34085D01*
X22368Y34089D01*
X22372Y34094D01*
X22375Y34100D01*
X22380Y34107D01*
X22385Y34115D01*
X22389Y34123D01*
X22394Y34133D01*
X22397Y34143D01*
X22402Y34154D01*
X22405Y34166D01*
X22407Y34179D01*
X22408Y34193D01*
X22409Y34206D01*
Y34207D01*
Y34210D01*
Y34214D01*
X22408Y34219D01*
X22408Y34225D01*
X22406Y34233D01*
X22405Y34241D01*
X22403Y34250D01*
X22397Y34270D01*
X22393Y34281D01*
X22389Y34291D01*
X22383Y34301D01*
X22376Y34311D01*
X22369Y34322D01*
X22360Y34331D01*
X22359Y34332D01*
X22358Y34333D01*
X22355Y34335D01*
X22351Y34339D01*
X22346Y34343D01*
X22340Y34346D01*
X22334Y34351D01*
X22327Y34356D01*
X22318Y34360D01*
X22308Y34365D01*
X22298Y34368D01*
X22287Y34373D01*
X22275Y34376D01*
X22262Y34378D01*
X22249Y34379D01*
X22235Y34380D01*
D02*
G37*
%LPD*%
G36*
X22276Y34341D02*
X22284Y34339D01*
X22293Y34337D01*
X22303Y34333D01*
X22312Y34327D01*
X22321Y34320D01*
X22321Y34319D01*
X22324Y34316D01*
X22328Y34311D01*
X22332Y34305D01*
X22336Y34297D01*
X22339Y34287D01*
X22342Y34276D01*
X22343Y34264D01*
Y34236D01*
Y34235D01*
Y34231D01*
X22342Y34226D01*
X22341Y34220D01*
X22340Y34211D01*
X22337Y34203D01*
X22334Y34196D01*
X22330Y34189D01*
X22329Y34188D01*
X22327Y34186D01*
X22325Y34183D01*
X22321Y34179D01*
X22313Y34172D01*
X22308Y34168D01*
X22303Y34166D01*
X22347Y34077D01*
X22267D01*
X22230Y34159D01*
X22202D01*
Y34077D01*
X22133D01*
Y34342D01*
X22270D01*
X22276Y34341D01*
D02*
G37*
%LPC*%
G36*
X22255Y34279D02*
X22235D01*
X22231Y34279D01*
X22202D01*
Y34223D01*
X22255D01*
X22258Y34224D01*
X22262Y34225D01*
X22266Y34228D01*
X22270Y34231D01*
X22272Y34236D01*
X22273Y34243D01*
Y34256D01*
Y34257D01*
Y34258D01*
X22272Y34263D01*
X22270Y34268D01*
X22267Y34273D01*
X22266Y34273D01*
X22263Y34276D01*
X22260Y34278D01*
X22255Y34279D01*
D02*
G37*
G36*
X53197Y34119D02*
X53191Y34118D01*
X53099Y33822D01*
X53289D01*
X53197Y34119D01*
D02*
G37*
G36*
X52388D02*
X52383Y34118D01*
X52291Y33822D01*
X52480D01*
X52388Y34119D01*
D02*
G37*
G36*
X24457D02*
X24451Y34118D01*
X24359Y33822D01*
X24549D01*
X24457Y34119D01*
D02*
G37*
G36*
X23648D02*
X23642Y34118D01*
X23551Y33822D01*
X23740D01*
X23648Y34119D01*
D02*
G37*
G36*
X50976Y5640D02*
X50968D01*
X50963Y5639D01*
X50956Y5638D01*
X50949Y5637D01*
X50940Y5635D01*
X50931Y5634D01*
X50911Y5628D01*
X50901Y5624D01*
X50890Y5619D01*
X50879Y5613D01*
X50869Y5607D01*
X50859Y5600D01*
X50850Y5591D01*
X50849Y5590D01*
X50847Y5589D01*
X50845Y5586D01*
X50842Y5582D01*
X50839Y5577D01*
X50834Y5571D01*
X50830Y5565D01*
X50825Y5557D01*
X50821Y5549D01*
X50817Y5539D01*
X50812Y5529D01*
X50809Y5518D01*
X50806Y5506D01*
X50804Y5493D01*
X50802Y5480D01*
X50801Y5466D01*
Y5466D01*
Y5463D01*
Y5459D01*
X50802Y5453D01*
X50803Y5447D01*
X50804Y5439D01*
X50806Y5431D01*
X50807Y5422D01*
X50813Y5401D01*
X50817Y5391D01*
X50822Y5380D01*
X50827Y5370D01*
X50833Y5360D01*
X50841Y5350D01*
X50850Y5340D01*
X50850Y5339D01*
X50852Y5338D01*
X50855Y5336D01*
X50858Y5333D01*
X50863Y5329D01*
X50869Y5325D01*
X50876Y5320D01*
X50884Y5316D01*
X50893Y5312D01*
X50902Y5307D01*
X50912Y5303D01*
X50923Y5299D01*
X50936Y5296D01*
X50948Y5294D01*
X50962Y5293D01*
X50976Y5292D01*
X50983D01*
X50988Y5293D01*
X50995Y5293D01*
X51002Y5295D01*
X51011Y5296D01*
X51019Y5298D01*
X51039Y5304D01*
X51050Y5307D01*
X51060Y5312D01*
X51070Y5318D01*
X51081Y5324D01*
X51091Y5331D01*
X51100Y5340D01*
X51101Y5341D01*
X51102Y5342D01*
X51105Y5345D01*
X51108Y5349D01*
X51112Y5354D01*
X51116Y5360D01*
X51120Y5366D01*
X51125Y5374D01*
X51129Y5383D01*
X51134Y5393D01*
X51137Y5403D01*
X51142Y5414D01*
X51145Y5426D01*
X51147Y5439D01*
X51148Y5452D01*
X51149Y5466D01*
Y5467D01*
Y5470D01*
Y5474D01*
X51148Y5479D01*
X51148Y5485D01*
X51146Y5492D01*
X51145Y5501D01*
X51143Y5510D01*
X51137Y5530D01*
X51133Y5541D01*
X51129Y5551D01*
X51123Y5561D01*
X51116Y5571D01*
X51109Y5581D01*
X51100Y5591D01*
X51100Y5592D01*
X51098Y5593D01*
X51095Y5595D01*
X51092Y5599D01*
X51086Y5603D01*
X51081Y5606D01*
X51074Y5611D01*
X51067Y5616D01*
X51058Y5620D01*
X51049Y5624D01*
X51038Y5628D01*
X51027Y5632D01*
X51015Y5635D01*
X51003Y5638D01*
X50989Y5639D01*
X50976Y5640D01*
D02*
G37*
%LPD*%
G36*
X51016Y5600D02*
X51024Y5599D01*
X51033Y5597D01*
X51043Y5592D01*
X51052Y5587D01*
X51061Y5580D01*
X51062Y5579D01*
X51065Y5576D01*
X51068Y5571D01*
X51072Y5565D01*
X51076Y5557D01*
X51079Y5547D01*
X51082Y5536D01*
X51083Y5524D01*
Y5496D01*
Y5495D01*
Y5491D01*
X51082Y5486D01*
X51081Y5479D01*
X51080Y5471D01*
X51077Y5463D01*
X51074Y5456D01*
X51070Y5449D01*
X51069Y5448D01*
X51067Y5446D01*
X51065Y5443D01*
X51062Y5439D01*
X51054Y5432D01*
X51049Y5428D01*
X51043Y5425D01*
X51087Y5336D01*
X51007D01*
X50971Y5419D01*
X50942D01*
Y5336D01*
X50873D01*
Y5602D01*
X51011D01*
X51016Y5600D01*
D02*
G37*
%LPC*%
G36*
X50995Y5539D02*
X50976D01*
X50971Y5538D01*
X50942D01*
Y5483D01*
X50995D01*
X50998Y5484D01*
X51003Y5485D01*
X51006Y5488D01*
X51010Y5491D01*
X51012Y5496D01*
X51013Y5503D01*
Y5516D01*
Y5517D01*
Y5518D01*
X51012Y5522D01*
X51011Y5527D01*
X51007Y5533D01*
X51006Y5533D01*
X51003Y5536D01*
X51000Y5538D01*
X50995Y5539D01*
D02*
G37*
G36*
X22235Y5640D02*
X22228D01*
X22222Y5639D01*
X22216Y5638D01*
X22208Y5637D01*
X22200Y5635D01*
X22191Y5634D01*
X22171Y5628D01*
X22160Y5624D01*
X22149Y5619D01*
X22139Y5613D01*
X22129Y5607D01*
X22119Y5600D01*
X22109Y5591D01*
X22109Y5590D01*
X22107Y5589D01*
X22105Y5586D01*
X22102Y5582D01*
X22098Y5577D01*
X22094Y5571D01*
X22090Y5565D01*
X22085Y5557D01*
X22081Y5549D01*
X22077Y5539D01*
X22072Y5529D01*
X22069Y5518D01*
X22066Y5506D01*
X22063Y5493D01*
X22062Y5480D01*
X22061Y5466D01*
Y5466D01*
Y5463D01*
Y5459D01*
X22062Y5453D01*
X22063Y5447D01*
X22064Y5439D01*
X22066Y5431D01*
X22067Y5422D01*
X22073Y5401D01*
X22077Y5391D01*
X22082Y5380D01*
X22087Y5370D01*
X22093Y5360D01*
X22101Y5350D01*
X22109Y5340D01*
X22110Y5339D01*
X22112Y5338D01*
X22114Y5336D01*
X22118Y5333D01*
X22123Y5329D01*
X22129Y5325D01*
X22136Y5320D01*
X22144Y5316D01*
X22152Y5312D01*
X22162Y5307D01*
X22172Y5303D01*
X22183Y5299D01*
X22195Y5296D01*
X22208Y5294D01*
X22222Y5293D01*
X22235Y5292D01*
X22243D01*
X22248Y5293D01*
X22254Y5293D01*
X22262Y5295D01*
X22270Y5296D01*
X22279Y5298D01*
X22299Y5304D01*
X22310Y5307D01*
X22320Y5312D01*
X22330Y5318D01*
X22340Y5324D01*
X22351Y5331D01*
X22360Y5340D01*
X22361Y5341D01*
X22362Y5342D01*
X22364Y5345D01*
X22368Y5349D01*
X22372Y5354D01*
X22375Y5360D01*
X22380Y5366D01*
X22385Y5374D01*
X22389Y5383D01*
X22394Y5393D01*
X22397Y5403D01*
X22402Y5414D01*
X22405Y5426D01*
X22407Y5439D01*
X22408Y5452D01*
X22409Y5466D01*
Y5467D01*
Y5470D01*
Y5474D01*
X22408Y5479D01*
X22408Y5485D01*
X22406Y5492D01*
X22405Y5501D01*
X22403Y5510D01*
X22397Y5530D01*
X22393Y5541D01*
X22389Y5551D01*
X22383Y5561D01*
X22376Y5571D01*
X22369Y5581D01*
X22360Y5591D01*
X22359Y5592D01*
X22358Y5593D01*
X22355Y5595D01*
X22351Y5599D01*
X22346Y5603D01*
X22340Y5606D01*
X22334Y5611D01*
X22327Y5616D01*
X22318Y5620D01*
X22308Y5624D01*
X22298Y5628D01*
X22287Y5632D01*
X22275Y5635D01*
X22262Y5638D01*
X22249Y5639D01*
X22235Y5640D01*
D02*
G37*
%LPD*%
G36*
X22276Y5600D02*
X22284Y5599D01*
X22293Y5597D01*
X22303Y5592D01*
X22312Y5587D01*
X22321Y5580D01*
X22321Y5579D01*
X22324Y5576D01*
X22328Y5571D01*
X22332Y5565D01*
X22336Y5557D01*
X22339Y5547D01*
X22342Y5536D01*
X22343Y5524D01*
Y5496D01*
Y5495D01*
Y5491D01*
X22342Y5486D01*
X22341Y5479D01*
X22340Y5471D01*
X22337Y5463D01*
X22334Y5456D01*
X22330Y5449D01*
X22329Y5448D01*
X22327Y5446D01*
X22325Y5443D01*
X22321Y5439D01*
X22313Y5432D01*
X22308Y5428D01*
X22303Y5425D01*
X22347Y5336D01*
X22267D01*
X22230Y5419D01*
X22202D01*
Y5336D01*
X22133D01*
Y5602D01*
X22270D01*
X22276Y5600D01*
D02*
G37*
%LPC*%
G36*
X22255Y5539D02*
X22235D01*
X22231Y5538D01*
X22202D01*
Y5483D01*
X22255D01*
X22258Y5484D01*
X22262Y5485D01*
X22266Y5488D01*
X22270Y5491D01*
X22272Y5496D01*
X22273Y5503D01*
Y5516D01*
Y5517D01*
Y5518D01*
X22272Y5522D01*
X22270Y5527D01*
X22267Y5533D01*
X22266Y5533D01*
X22263Y5536D01*
X22260Y5538D01*
X22255Y5539D01*
D02*
G37*
G36*
X53197Y5379D02*
X53191Y5378D01*
X53099Y5082D01*
X53289D01*
X53197Y5379D01*
D02*
G37*
G36*
X52388D02*
X52383Y5378D01*
X52291Y5082D01*
X52480D01*
X52388Y5379D01*
D02*
G37*
G36*
X24457D02*
X24451Y5378D01*
X24359Y5082D01*
X24549D01*
X24457Y5379D01*
D02*
G37*
G36*
X23648D02*
X23642Y5378D01*
X23551Y5082D01*
X23740D01*
X23648Y5379D01*
D02*
G37*
%LPD*%
D10*
X-984Y59055D02*
G03*
X-984Y59055I-591J0D01*
G01*
X59646Y-1575D02*
G03*
X59646Y-1575I-591J0D01*
G01*
X1476Y20374D02*
G03*
X1476Y20374I-591J0D01*
G01*
X27953Y4724D02*
G03*
X27953Y4724I-591J0D01*
G01*
X8661Y1181D02*
G03*
X8661Y551I-591J-315D01*
G01*
X20079D02*
G03*
X20079Y1181I591J315D01*
G01*
X22622Y13189D02*
X24394D01*
X22425Y13386D02*
X22622Y13189D01*
X22425Y13386D02*
Y15551D01*
Y13386D02*
X22622Y13189D01*
X22425Y15551D02*
X24394D01*
Y13189D02*
Y15551D01*
X13199Y24439D02*
X15561D01*
X13199Y22470D02*
Y24439D01*
X15364Y22470D02*
X15561Y22667D01*
X13199Y22470D02*
X15364D01*
X15561Y22667D01*
Y24439D01*
X4374Y15551D02*
X6146D01*
X6342Y15354D01*
Y13189D02*
Y15354D01*
X6146Y15551D02*
X6342Y15354D01*
X4374Y13189D02*
X6342D01*
X4374D02*
Y15551D01*
X13203Y4360D02*
X15565D01*
Y6329D01*
X13203Y6132D02*
X13400Y6329D01*
X15565D01*
X13203Y6132D02*
X13400Y6329D01*
X13203Y4360D02*
Y6132D01*
X2159Y16419D02*
X4159D01*
X2159Y12419D02*
Y16419D01*
Y12419D02*
X4159D01*
Y16419D01*
X1407Y14783D02*
Y15197D01*
X1319Y14695D02*
X1407Y14783D01*
X974Y14695D02*
X1319D01*
X1319Y15285D02*
X1407Y15197D01*
X974Y15285D02*
X1319D01*
X226Y14695D02*
X659D01*
X226D02*
Y15285D01*
X659D01*
X1407Y14193D02*
Y14606D01*
X1319Y14104D02*
X1407Y14193D01*
X974Y14104D02*
X1319D01*
X1319Y14695D02*
X1407Y14606D01*
X974Y14695D02*
X1319D01*
X226Y14104D02*
X659D01*
X226D02*
Y14695D01*
X659D01*
X8661Y551D02*
Y1181D01*
X20079Y551D02*
Y1181D01*
X1073Y15778D02*
X1900D01*
X10D02*
X89D01*
X1073Y18691D02*
X1900D01*
X10D02*
X89D01*
X1900Y15778D02*
Y16526D01*
Y17943D02*
Y18691D01*
X10Y15463D02*
Y19006D01*
Y15778D02*
Y18691D01*
X7297Y7283D02*
X21470D01*
Y21457D01*
X7297D02*
X21470D01*
X7297Y7283D02*
Y21457D01*
X22425Y287D02*
Y1287D01*
X24425Y287D02*
Y1287D01*
X22425D02*
X24425D01*
X22425Y287D02*
X24425D01*
X4315D02*
Y1287D01*
X6315Y287D02*
Y1287D01*
X4315D02*
X6315D01*
X4315Y287D02*
X6315D01*
X30217Y20374D02*
G03*
X30217Y20374I-591J0D01*
G01*
X56693Y4724D02*
G03*
X56693Y4724I-591J0D01*
G01*
X37402Y1181D02*
G03*
X37402Y551I-591J-315D01*
G01*
X48819D02*
G03*
X48819Y1181I591J315D01*
G01*
X51362Y13189D02*
X53134D01*
X51165Y13386D02*
X51362Y13189D01*
X51165Y13386D02*
Y15551D01*
Y13386D02*
X51362Y13189D01*
X51165Y15551D02*
X53134D01*
Y13189D02*
Y15551D01*
X41939Y24439D02*
X44301D01*
X41939Y22470D02*
Y24439D01*
X44104Y22470D02*
X44301Y22667D01*
X41939Y22470D02*
X44104D01*
X44301Y22667D01*
Y24439D01*
X33114Y15551D02*
X34886D01*
X35083Y15354D01*
Y13189D02*
Y15354D01*
X34886Y15551D02*
X35083Y15354D01*
X33114Y13189D02*
X35083D01*
X33114D02*
Y15551D01*
X41943Y4360D02*
X44305D01*
Y6329D01*
X41943Y6132D02*
X42140Y6329D01*
X44305D01*
X41943Y6132D02*
X42140Y6329D01*
X41943Y4360D02*
Y6132D01*
X30900Y16419D02*
X32900D01*
X30900Y12419D02*
Y16419D01*
Y12419D02*
X32900D01*
Y16419D01*
X30148Y14783D02*
Y15197D01*
X30059Y14695D02*
X30148Y14783D01*
X29715Y14695D02*
X30059D01*
X30059Y15285D02*
X30148Y15197D01*
X29715Y15285D02*
X30059D01*
X28967Y14695D02*
X29400D01*
X28967D02*
Y15285D01*
X29400D01*
X30148Y14193D02*
Y14606D01*
X30059Y14104D02*
X30148Y14193D01*
X29715Y14104D02*
X30059D01*
X30059Y14695D02*
X30148Y14606D01*
X29715Y14695D02*
X30059D01*
X28967Y14104D02*
X29400D01*
X28967D02*
Y14695D01*
X29400D01*
X37402Y551D02*
Y1181D01*
X48819Y551D02*
Y1181D01*
X29813Y15778D02*
X30640D01*
X28750D02*
X28829D01*
X29813Y18691D02*
X30640D01*
X28750D02*
X28829D01*
X30640Y15778D02*
Y16526D01*
Y17943D02*
Y18691D01*
X28750Y15463D02*
Y19006D01*
Y15778D02*
Y18691D01*
X36037Y7283D02*
X50211D01*
Y21457D01*
X36037D02*
X50211D01*
X36037Y7283D02*
Y21457D01*
X51165Y287D02*
Y1287D01*
X53165Y287D02*
Y1287D01*
X51165D02*
X53165D01*
X51165Y287D02*
X53165D01*
X33055D02*
Y1287D01*
X35055Y287D02*
Y1287D01*
X33055D02*
X35055D01*
X33055Y287D02*
X35055D01*
X1476Y49114D02*
G03*
X1476Y49114I-591J0D01*
G01*
X27953Y33465D02*
G03*
X27953Y33465I-591J0D01*
G01*
X8661Y29921D02*
G03*
X8661Y29291I-591J-315D01*
G01*
X20079D02*
G03*
X20079Y29921I591J315D01*
G01*
X22622Y41929D02*
X24394D01*
X22425Y42126D02*
X22622Y41929D01*
X22425Y42126D02*
Y44291D01*
Y42126D02*
X22622Y41929D01*
X22425Y44291D02*
X24394D01*
Y41929D02*
Y44291D01*
X13199Y53179D02*
X15561D01*
X13199Y51211D02*
Y53179D01*
X15364Y51211D02*
X15561Y51407D01*
X13199Y51211D02*
X15364D01*
X15561Y51407D01*
Y53179D01*
X4374Y44291D02*
X6146D01*
X6342Y44094D01*
Y41929D02*
Y44094D01*
X6146Y44291D02*
X6342Y44094D01*
X4374Y41929D02*
X6342D01*
X4374D02*
Y44291D01*
X13203Y33100D02*
X15565D01*
Y35069D01*
X13203Y34872D02*
X13400Y35069D01*
X15565D01*
X13203Y34872D02*
X13400Y35069D01*
X13203Y33100D02*
Y34872D01*
X2159Y45159D02*
X4159D01*
X2159Y41159D02*
Y45159D01*
Y41159D02*
X4159D01*
Y45159D01*
X1407Y43524D02*
Y43937D01*
X1319Y43435D02*
X1407Y43524D01*
X974Y43435D02*
X1319D01*
X1319Y44026D02*
X1407Y43937D01*
X974Y44026D02*
X1319D01*
X226Y43435D02*
X659D01*
X226D02*
Y44026D01*
X659D01*
X1407Y42933D02*
Y43346D01*
X1319Y42844D02*
X1407Y42933D01*
X974Y42844D02*
X1319D01*
X1319Y43435D02*
X1407Y43346D01*
X974Y43435D02*
X1319D01*
X226Y42844D02*
X659D01*
X226D02*
Y43435D01*
X659D01*
X8661Y29291D02*
Y29921D01*
X20079Y29291D02*
Y29921D01*
X1073Y44518D02*
X1900D01*
X10D02*
X89D01*
X1073Y47431D02*
X1900D01*
X10D02*
X89D01*
X1900Y44518D02*
Y45266D01*
Y46683D02*
Y47431D01*
X10Y44203D02*
Y47746D01*
Y44518D02*
Y47431D01*
X7297Y36024D02*
X21470D01*
Y50197D01*
X7297D02*
X21470D01*
X7297Y36024D02*
Y50197D01*
X22425Y29028D02*
Y30028D01*
X24425Y29028D02*
Y30028D01*
X22425D02*
X24425D01*
X22425Y29028D02*
X24425D01*
X4315D02*
Y30028D01*
X6315Y29028D02*
Y30028D01*
X4315D02*
X6315D01*
X4315Y29028D02*
X6315D01*
X30217Y49114D02*
G03*
X30217Y49114I-591J0D01*
G01*
X56693Y33465D02*
G03*
X56693Y33465I-591J0D01*
G01*
X37402Y29921D02*
G03*
X37402Y29291I-591J-315D01*
G01*
X48819D02*
G03*
X48819Y29921I591J315D01*
G01*
X51362Y41929D02*
X53134D01*
X51165Y42126D02*
X51362Y41929D01*
X51165Y42126D02*
Y44291D01*
Y42126D02*
X51362Y41929D01*
X51165Y44291D02*
X53134D01*
Y41929D02*
Y44291D01*
X41939Y53179D02*
X44301D01*
X41939Y51211D02*
Y53179D01*
X44104Y51211D02*
X44301Y51407D01*
X41939Y51211D02*
X44104D01*
X44301Y51407D01*
Y53179D01*
X33114Y44291D02*
X34886D01*
X35083Y44094D01*
Y41929D02*
Y44094D01*
X34886Y44291D02*
X35083Y44094D01*
X33114Y41929D02*
X35083D01*
X33114D02*
Y44291D01*
X41943Y33100D02*
X44305D01*
Y35069D01*
X41943Y34872D02*
X42140Y35069D01*
X44305D01*
X41943Y34872D02*
X42140Y35069D01*
X41943Y33100D02*
Y34872D01*
X30900Y45159D02*
X32900D01*
X30900Y41159D02*
Y45159D01*
Y41159D02*
X32900D01*
Y45159D01*
X30148Y43524D02*
Y43937D01*
X30059Y43435D02*
X30148Y43524D01*
X29715Y43435D02*
X30059D01*
X30059Y44026D02*
X30148Y43937D01*
X29715Y44026D02*
X30059D01*
X28967Y43435D02*
X29400D01*
X28967D02*
Y44026D01*
X29400D01*
X30148Y42933D02*
Y43346D01*
X30059Y42844D02*
X30148Y42933D01*
X29715Y42844D02*
X30059D01*
X30059Y43435D02*
X30148Y43346D01*
X29715Y43435D02*
X30059D01*
X28967Y42844D02*
X29400D01*
X28967D02*
Y43435D01*
X29400D01*
X37402Y29291D02*
Y29921D01*
X48819Y29291D02*
Y29921D01*
X29813Y44518D02*
X30640D01*
X28750D02*
X28829D01*
X29813Y47431D02*
X30640D01*
X28750D02*
X28829D01*
X30640Y44518D02*
Y45266D01*
Y46683D02*
Y47431D01*
X28750Y44203D02*
Y47746D01*
Y44518D02*
Y47431D01*
X36037Y36024D02*
X50211D01*
Y50197D01*
X36037D02*
X50211D01*
X36037Y36024D02*
Y50197D01*
X51165Y29028D02*
Y30028D01*
X53165Y29028D02*
Y30028D01*
X51165D02*
X53165D01*
X51165Y29028D02*
X53165D01*
X33055D02*
Y30028D01*
X35055Y29028D02*
Y30028D01*
X33055D02*
X35055D01*
X33055Y29028D02*
X35055D01*
D13*
X19545Y5034D02*
G03*
X19148Y5032I-196J-588D01*
G01*
X19419Y4791D02*
G03*
X19420Y4782I-36J-9D01*
G01*
X19669Y5206D02*
G03*
X19028Y5203I-317J-532D01*
G01*
X19775Y5402D02*
G03*
X18899Y5373I-423J-453D01*
G01*
X297Y13598D02*
Y13991D01*
X494D01*
X559Y13926D01*
Y13795D01*
X494Y13729D01*
X297D01*
X428D02*
X559Y13598D01*
X690Y13860D02*
X953Y13598D01*
X822Y13729D01*
X953Y13860D01*
X690Y13598D01*
X1084Y13991D02*
Y13598D01*
X1281D01*
X1346Y13663D01*
Y13926D01*
X1281Y13991D01*
X1084D01*
X297Y13279D02*
X559D01*
X428D01*
Y12885D01*
X690Y13148D02*
X953Y12885D01*
X822Y13017D01*
X953Y13148D01*
X690Y12885D01*
X1084Y13279D02*
Y12885D01*
X1281D01*
X1346Y12951D01*
Y13213D01*
X1281Y13279D01*
X1084D01*
X48285Y5034D02*
G03*
X47888Y5032I-196J-588D01*
G01*
X48159Y4791D02*
G03*
X48161Y4782I-36J-9D01*
G01*
X48409Y5206D02*
G03*
X47768Y5203I-317J-532D01*
G01*
X48515Y5402D02*
G03*
X47639Y5373I-423J-453D01*
G01*
X29037Y13598D02*
Y13991D01*
X29234D01*
X29299Y13926D01*
Y13795D01*
X29234Y13729D01*
X29037D01*
X29168D02*
X29299Y13598D01*
X29431Y13860D02*
X29693Y13598D01*
X29562Y13729D01*
X29693Y13860D01*
X29431Y13598D01*
X29824Y13991D02*
Y13598D01*
X30021D01*
X30087Y13663D01*
Y13926D01*
X30021Y13991D01*
X29824D01*
X29037Y13279D02*
X29299D01*
X29168D01*
Y12885D01*
X29431Y13148D02*
X29693Y12885D01*
X29562Y13017D01*
X29693Y13148D01*
X29431Y12885D01*
X29824Y13279D02*
Y12885D01*
X30021D01*
X30087Y12951D01*
Y13213D01*
X30021Y13279D01*
X29824D01*
X19545Y33774D02*
G03*
X19148Y33772I-196J-588D01*
G01*
X19419Y33531D02*
G03*
X19420Y33522I-36J-9D01*
G01*
X19669Y33946D02*
G03*
X19028Y33943I-317J-532D01*
G01*
X19775Y34142D02*
G03*
X18899Y34113I-423J-453D01*
G01*
X297Y42338D02*
Y42731D01*
X494D01*
X559Y42666D01*
Y42535D01*
X494Y42469D01*
X297D01*
X428D02*
X559Y42338D01*
X690Y42600D02*
X953Y42338D01*
X822Y42469D01*
X953Y42600D01*
X690Y42338D01*
X1084Y42731D02*
Y42338D01*
X1281D01*
X1346Y42403D01*
Y42666D01*
X1281Y42731D01*
X1084D01*
X297Y42019D02*
X559D01*
X428D01*
Y41626D01*
X690Y41888D02*
X953Y41626D01*
X822Y41757D01*
X953Y41888D01*
X690Y41626D01*
X1084Y42019D02*
Y41626D01*
X1281D01*
X1346Y41691D01*
Y41954D01*
X1281Y42019D01*
X1084D01*
X48285Y33774D02*
G03*
X47888Y33772I-196J-588D01*
G01*
X48159Y33531D02*
G03*
X48161Y33522I-36J-9D01*
G01*
X48409Y33946D02*
G03*
X47768Y33943I-317J-532D01*
G01*
X48515Y34142D02*
G03*
X47639Y34113I-423J-453D01*
G01*
X29037Y42338D02*
Y42731D01*
X29234D01*
X29299Y42666D01*
Y42535D01*
X29234Y42469D01*
X29037D01*
X29168D02*
X29299Y42338D01*
X29431Y42600D02*
X29693Y42338D01*
X29562Y42469D01*
X29693Y42600D01*
X29431Y42338D01*
X29824Y42731D02*
Y42338D01*
X30021D01*
X30087Y42403D01*
Y42666D01*
X30021Y42731D01*
X29824D01*
X29037Y42019D02*
X29299D01*
X29168D01*
Y41626D01*
X29431Y41888D02*
X29693Y41626D01*
X29562Y41757D01*
X29693Y41888D01*
X29431Y41626D01*
X29824Y42019D02*
Y41626D01*
X30021D01*
X30087Y41691D01*
Y41954D01*
X30021Y42019D01*
X29824D01*
M02*
