M48
;Layer_Color=9474304
;FILE_FORMAT=2:4
INCH
;TYPE=PLATED
T1F00S00C0.0118
T2F00S00C0.0315
T3F00S00C0.0354
T4F00S00C0.0394
T5F00S00C0.0472
T6F00S00C0.1280
;TYPE=NON_PLATED
T7F00S00C0.0315
%
T01
X002204Y007225
X002568
X003850Y006391
X003727Y005561
X004094Y005317
X004370Y005574
X004843Y004941
X004681Y004144
X005620Y003988
X005630Y004665
X006283Y005630
X007018Y005610
X006909Y007249
X007835Y007185
X007888Y006490
X009008Y005775
X009488Y005281
X009809Y003399
X010010Y002480
X011411Y002598
X012382Y002608
X012283Y003088
X012559Y003719
X011407Y003583
X013435Y004134
X014133Y004656
X014685Y004675
X014409Y005358
X014557Y006319
X014581Y007047
X014592Y007697
X014625Y008366
X014163Y008159
X013691Y008417
X013730Y009150
X012926Y008819
X011939Y008717
X010856Y008301
X010305Y009154
X009439Y008931
X009400Y008445
X008445Y008411
X008369Y010276
X009291Y010187
X009528Y009941
X011083Y009872
X012011Y011188
X011684Y011900
X010274Y011860
X013010Y011142
X016184Y010462
X017067Y009502
X017510Y009516
X018272Y009465
X017402Y007726
X017441Y006993
X017464Y006293
X018583Y006456
X018386Y004384
X017775Y003809
X016329Y005906
X016348Y007195
X016378Y008228
X012844Y007205
X011561Y007217
X010884Y006460
X010974Y006112
X012195Y005974
X012810Y001969
X014856Y002756
X008877Y003680
X007864Y002618
X006681Y002566
X006102Y002559
X005853Y006453
X005868Y007264
X006411Y008356
X007302Y009272
X007205Y011112
X006939Y010866
X006105Y010388
X005295Y010305
X005086Y009882
X005472Y009754
X005748Y011132
X005295Y011565
X003902Y009478
X004852Y007992
X017559Y012010
X020404Y012181
X020262Y010752
X020177Y009478
X018770Y009465
X019488Y007333
X019222Y006732
X020860Y006890
X021457Y008022
X021599Y008475
X022186Y009104
X023359Y009073
X022835Y009693
X023905Y009685
X023374Y010236
X023661Y010539
X023504Y011024
Y011260
Y011496
Y011732
Y011968
X022943Y011683
X022726Y011120
X022419Y010610
X021791Y010699
X021414Y010315
X021831Y011959
X022411Y012077
X024633Y011486
X025194Y008465
Y006181
X024370Y006230
X023774Y003954
X025707Y004213
X020876Y003839
X022126Y007756
X028268Y007047
X030944Y007225
X031308
X032590Y006391
X032467Y005561
X032835Y005317
X033110Y005574
X033583Y004941
X033422Y004144
X033593Y007992
X033826Y009882
X034213Y009754
X034035Y010305
Y011565
X032643Y009478
X028189Y012209
X034488Y011132
X034845Y010388
X035679Y010866
X035945Y011112
X036042Y009272
X035151Y008356
X035650Y007249
X036575Y007185
X036628Y006490
X035758Y005610
X035024Y005630
X034593Y006453
X034609Y007264
X034370Y004665
X034360Y003988
X034843Y002559
X035421Y002566
X036604Y002618
X037617Y003680
X038549Y003399
X038750Y002480
X040151Y002598
X041122Y002608
X041024Y003088
X041299Y003719
X040148Y003583
X042175Y004134
X042873Y004656
X043425Y004675
X043150Y005358
X043297Y006319
X043322Y007047
X043332Y007697
X043365Y008366
X042904Y008159
X042431Y008417
X042470Y009150
X041666Y008819
X040679Y008717
X039596Y008301
X039045Y009154
X038179Y008931
X038140Y008445
X037185Y008411
X037109Y010276
X038031Y010187
X038268Y009941
X039823Y009872
X040751Y011188
X040424Y011900
X039015Y011860
X041750Y011142
X044924Y010462
X045807Y009502
X046250Y009516
X047012Y009465
X047510
X048917Y009478
X049002Y010752
X049144Y012181
X046299Y012010
X046142Y007726
X046181Y006993
X046204Y006293
X047323Y006456
X047963Y006732
X048228Y007333
X049601Y006890
X049616Y003839
X047126Y004384
X046515Y003809
X045069Y005906
X045089Y007195
X045118Y008228
X041585Y007205
X040301Y007217
X039624Y006460
X039715Y006112
X040935Y005974
X037748Y005775
X038228Y005281
X041550Y001969
X043596Y002756
X052514Y003954
X054447Y004213
X053934Y006181
X053110Y006230
X053934Y008465
X052100Y009073
X051575Y009693
X052645Y009685
X052114Y010236
X052402Y010539
X052244Y011024
Y011260
Y011496
Y011732
Y011968
X051683Y011683
X051467Y011120
X051160Y010610
X050532Y010699
X050154Y010315
X050926Y009104
X050339Y008475
X050197Y008022
X050866Y007756
X050571Y011959
X051152Y012077
X053373Y011486
X056929Y012209
X057008Y007047
X056906Y014547
X056378Y015679
X055588Y015551
X055039
X054696Y015413
X054488Y015633
X053780Y015906
X053484
Y016398
X053780
X053189
X053209Y016161
X052894Y016398
X051848Y016526
X051319Y017037
X050699Y017622
X050371Y016666
X050837Y016152
X050571Y015069
X050591Y014252
X050207Y014016
X051746Y014075
X053572Y014055
X053596Y014409
X053445Y013150
X053110Y012805
X050679Y012815
X051457Y018720
X052770
X053291Y019980
X054272Y019921
X055316Y019961
X055313Y019193
X055354Y018231
X055866Y018061
X056220Y017835
X056457Y017551
X056772Y017234
X056693Y016722
X056181Y016772
X055827Y017126
X055502Y017460
X055195Y016772
X054843
X054397Y016575
X053681Y017844
X056878Y018386
X056811Y019724
X056949Y020118
X056240Y019961
X056145Y021260
X056240Y022323
X056211Y022726
X056142Y023780
X056575Y024744
X054907Y024803
X054121Y025208
X053927Y025463
X053002Y025551
X053041Y025886
X052783Y025808
X052874Y026151
X052608Y025187
X053386Y024571
X053539Y023967
X053524Y023691
X053465Y023435
X053051Y023524
Y023287
Y023760
Y023996
X052411Y023841
X052532Y023543
X052087Y023425
X051539Y023434
X050748Y023296
X050709Y023622
Y023925
X050738Y024803
X050718Y025145
X050640Y025498
X050433Y025734
X050305Y026083
X050709Y022854
X051634Y022441
X051976Y022441
X052061Y021456
X051575Y021417
X050891Y021063
X051419Y020173
X053204Y022283
X053258Y022913
X054307Y023622
X054567Y022283
X054528Y021220
X053425Y026972
X048858Y024911
X048622
X045561Y023888
X043386Y024053
X042770Y024124
X042313Y024606
X040779Y024744
X040177Y024708
X040254Y024122
X040020Y024124
X039783
X039429Y024734
X038845Y024685
X038201Y025176
X037278Y025257
X036210Y024488
X035489Y024416
Y024653
Y024180
Y023944
X035197Y023502
X035632Y022898
X036260Y022441
X036093Y022205
X035970Y021024
X036372Y021054
X036122Y020012
X034856Y019222
Y017743
X034779Y016900
X036683Y015659
X037215Y015915
X037244Y014672
X036703Y013504
X037229Y012746
X038957Y012680
X038986Y013890
X040039Y013537
X040266Y012805
X039931Y014508
X041834Y014889
X042470Y015059
X041673Y013632
X041811Y016676
X041845Y018307
X041260Y018425
X041020Y018799
X041477Y019252
X041834Y019633
X042047Y019862
X043032Y019361
X043718Y020318
X043740Y021682
X044646Y021217
X045906Y020790
X045512Y020354
X044724Y019567
X044646Y018224
X045197Y017043
X046299Y016970
X048053Y016968
X049026Y016949
X048402Y014144
X047470Y014125
X046427Y014134
X044705Y014039
X045219Y013189
X047726Y013271
X048278Y013169
X049213Y012747
X042444Y018081
X039767Y017867
X039045Y017837
X039008Y016880
X039793Y016870
X039787Y018789
X038770Y019465
X038611Y020218
X039261Y021024
X039793Y023081
X040098Y023073
X040385Y023069
X040965Y022126
X041601Y021808
X041240Y023789
X043297Y023400
X043317Y022631
X045945Y021929
X037943Y023081
X036860Y023632
X036093Y026457
X036102Y027323
X036112Y027677
X035659Y026969
X034626Y026450
X035271Y025790
X036969Y027234
X038120Y027664
X039754Y025778
X034609Y021915
X033407Y022003
X032323Y022008
X031791Y023453
X031408Y023720
X031342Y024050
X030946Y024075
X029726Y024416
X027835Y024744
X027402Y023780
X027470Y022726
X027500Y022323
X027405Y021260
X027500Y019961
X028071Y019724
X028209Y020118
X029212Y019580
X029085Y018858
Y018602
X029321Y018730
X029557Y018858
Y018602
X029577Y017707
X029321
X029065
X029193Y017470
X029449
X029577Y017234
X029321
X029065
X029193Y016998
X029449
X029321Y016762
X029577Y016762
X029065
X029085Y015866
X029085Y015610
X029321Y015738
X029557Y015866
X029557Y015610
X029705Y016250
X030010Y016083
X030974Y017196
X030974Y017520
X030827Y017963
X030591
Y018199
X030827
X030960Y018583
X030838Y019098
X030924Y019872
X032424Y019488
X032657Y019252
X032520Y018839
X032362Y018543
X032520Y018248
X032874Y017205
X033051Y016004
X033346Y014596
X028166Y014547
X027638Y015679
X026848Y015551
X026299
X025956Y015413
X025748Y015633
X025039Y015906
X024744
Y016398
X025039
X024449
X024469Y016161
X024154Y016398
X023108Y016526
X022579Y017037
X021959Y017622
X021631Y016666
X022096Y016152
X021831Y015069
X021850Y014252
X021467Y014016
X023006Y014075
X024832Y014055
X024856Y014409
X024705Y013150
X024370Y012805
X021939Y012815
X020472Y012747
X019537Y013169
X018986Y013271
X018730Y014125
X019662Y014144
X019313Y016968
X020285Y016949
X022717Y018720
X024029
X024551Y019980
X025531Y019921
X026576Y019961
X026573Y019193
X026614Y018231
X027126Y018061
X027480Y017835
X027717Y017551
X028031Y017234
X027953Y016722
X027441Y016772
X027087Y017126
X026762Y017460
X026454Y016772
X026102
X025657Y016575
X024941Y017844
X028138Y018386
X029173Y021654
X025787Y021220
X025827Y022283
X024464
X024518Y022913
X024311Y023287
Y023524
Y023760
Y023996
X024799Y023967
X024783Y023691
X024724Y023435
X025567Y023622
X025381Y025208
X025187Y025463
X024262Y025551
X024301Y025886
X024043Y025808
X024134Y026151
X023868Y025187
X024646Y024571
X023671Y023841
X023792Y023543
X023346Y023425
X022799Y023434
X022008Y023296
X021969Y023622
Y023925
X021998Y024803
X021978Y025145
X021900Y025498
X021693Y025734
X021565Y026083
X020118Y024911
X019882
X021969Y022854
X022894Y022441
X023236Y022441
X023320Y021456
X022835Y021417
X022151Y021063
X022679Y020173
X026167Y024803
X024685Y026972
X033939Y019856
X034242Y019862
X016772Y020354
X017165Y020790
X017205Y021929
X015906Y021217
X015000Y021682
X014577Y022631
X014557Y023400
X014646Y024053
X014030Y024124
X013573Y024606
X012039Y024744
X011437Y024708
X011514Y024122
X011280Y024124
X011043
X010689Y024734
X010105Y024685
X009461Y025176
X008538Y025257
X007470Y024488
X006749Y024416
Y024653
Y024180
Y023944
X006457Y023502
X006892Y022898
X007520Y022441
X007352Y022205
X007230Y021024
X007632Y021054
X007382Y020012
X005502Y019862
X005199Y019856
X006116Y019222
Y017743
X006039Y016900
X004134Y017205
X004311Y016004
X004606Y014596
X008504Y014672
X008475Y015915
X007943Y015659
X007963Y013504
X008489Y012746
X010217Y012680
X010246Y013890
X011299Y013537
X011526Y012805
X011191Y014508
X013094Y014889
X013730Y015059
X012933Y013632
X013071Y016676
X013105Y018307
X012520Y018425
X012280Y018799
X012736Y019252
X013094Y019633
X013307Y019862
X014291Y019361
X014978Y020318
X015984Y019567
X015906Y018224
X016457Y017043
X017559Y016970
X017687Y014134
X015965Y014039
X016479Y013189
X013704Y018081
X011027Y017867
X010305Y017837
X010268Y016880
X011053Y016870
X011046Y018789
X010030Y019465
X009871Y020218
X010521Y021024
X011053Y023081
X011358Y023073
X011644Y023069
X012224Y022126
X012861Y021808
X012500Y023789
X011014Y025778
X009380Y027664
X008228Y027234
X007362Y027323
X007372Y027677
X006919Y026969
X007352Y026457
X005886Y026450
X006531Y025790
X008120Y023632
X009203Y023081
X005868Y021915
X004667Y022003
X003583Y022008
X003051Y023453
X003684Y019488
X003917Y019252
X003780Y018839
X003621Y018543
X003780Y018248
X016821Y023888
X002668Y023720
X002602Y024050
X002206Y024075
X000986Y024416
X000433Y021654
X000471Y019580
X000344Y018858
Y018602
X000581Y018730
X000817Y018858
Y018602
X000837Y017707
X000581
X000325
X000453Y017470
X000709
X000837Y017234
X000581
X000325
X000453Y016998
X000709
X000581Y016762
X000837Y016762
X000325
X000344Y015866
X000344Y015610
X000581Y015738
X000817Y015866
X000817Y015610
X000965Y016250
X001270Y016083
X002234Y017196
X002234Y017520
X002087Y017963
X001850
Y018199
X002087
X002220Y018583
X002098Y019098
X002183Y019872
X002204Y035965
X002568
X003850Y035132
X003727Y034301
X004094Y034057
X004370Y034314
X004843Y033681
X004681Y032884
X005620Y032729
X005630Y033406
X006283Y034370
X007018Y034350
X006909Y035989
X007835Y035925
X007888Y035231
X009008Y034515
X009488Y034021
X009809Y032139
X010010Y031220
X011411Y031339
X012382Y031348
X012283Y031828
X012559Y032460
X011407Y032323
X013435Y032874
X014133Y033396
X014685Y033415
X014409Y034098
X014557Y035059
X014581Y035787
X014592Y036437
X014625Y037106
X014163Y036900
X013691Y037157
X013730Y037890
X012926Y037559
X011939Y037457
X010856Y037042
X010305Y037894
X009439Y037671
X009400Y037185
X008445Y037151
X008369Y039016
X009291Y038927
X009528Y038681
X011083Y038612
X012011Y039928
X011684Y040640
X011526Y041545
X011299Y042277
X011191Y043248
X010246Y042630
X010217Y041420
X010274Y040600
X008489Y041486
X007963Y042244
X008504Y043412
X004606Y043337
X005295Y040305
X005748Y039872
X006105Y039128
X005295Y039045
X005086Y038622
X005472Y038494
X003902Y038219
X004852Y036732
X005868Y036004
X005853Y035194
X006411Y037096
X007302Y038012
X007205Y039852
X006939Y039606
X013010Y039882
X012933Y042372
X013094Y043629
X015965Y042779
X016479Y041929
X017687Y042874
X017559Y040750
X017510Y038257
X017067Y038242
X018272Y038205
X017402Y036467
X017441Y035733
X017464Y035033
X018583Y035197
X018386Y033124
X017775Y032549
X016329Y034646
X016348Y035935
X016378Y036969
X016184Y039203
X012844Y035945
X011561Y035957
X010884Y035201
X010974Y034852
X012195Y034715
X012810Y030709
X014856Y031496
X008877Y032420
X007864Y031358
X006681Y031306
X006102Y031299
X020876Y032579
X023774Y032694
X025707Y032953
X025194Y034921
X024370Y034970
X025194Y037205
X023359Y037813
X022835Y038433
X023905Y038425
X023374Y038976
X023661Y039279
X023504Y039764
Y040000
Y040236
Y040472
Y040709
X022943Y040423
X022726Y039860
X022419Y039350
X021791Y039439
X021414Y039055
X020262Y039492
X020177Y038219
X018770Y038205
X019488Y036073
X019222Y035472
X020860Y035630
X021457Y036762
X021599Y037215
X022186Y037844
X022126Y036496
X021831Y040699
X022411Y040817
X021939Y041555
X021850Y042992
X021467Y042756
X023006Y042815
X024832Y042795
X024856Y043150
X024705Y041890
X024370Y041545
X024633Y040226
X028189Y040949
X028166Y043287
X033346Y043337
X034035Y040305
Y039045
X033826Y038622
X034213Y038494
X032643Y038219
X033593Y036732
X032590Y035132
X032467Y034301
X032835Y034057
X033110Y034314
X033583Y033681
X033422Y032884
X031308Y035965
X030944
X028268Y035787
X023238Y028238
X020404Y040922
X020472Y041487
X019537Y041909
X018986Y042011
X018730Y042865
X019662Y042884
X036703Y042244
X037229Y041486
X038957Y041420
X039015Y040600
X040424Y040640
X040751Y039928
X041750Y039882
X041666Y037559
X040679Y037457
X039596Y037042
X039045Y037894
X038179Y037671
X038140Y037185
X037185Y037151
X036575Y035925
X036628Y035231
X035650Y035989
X034609Y036004
X034593Y035194
X035024Y034370
X035758Y034350
X037748Y034515
X038228Y034021
X038549Y032139
X038750Y031220
X040151Y031339
X041122Y031348
X041024Y031828
X041299Y032460
X040148Y032323
X042175Y032874
X042873Y033396
X043425Y033415
X043150Y034098
X043297Y035059
X043322Y035787
X043332Y036437
X043365Y037106
X042904Y036900
X042431Y037157
X042470Y037890
X041585Y035945
X040301Y035957
X039624Y035201
X039715Y034852
X040935Y034715
X045069Y034646
X045089Y035935
X045118Y036969
X046142Y036467
X046181Y035733
X046204Y035033
X047323Y035197
X047963Y035472
X048228Y036073
X049601Y035630
X049616Y032579
X047126Y033124
X046515Y032549
X043596Y031496
X041550Y030709
X036604Y031358
X035421Y031306
X034843Y031299
X034360Y032729
X034370Y033406
X037617Y032420
X038268Y038681
X038031Y038927
X037109Y039016
X035945Y039852
X035679Y039606
X034845Y039128
X034488Y039872
X036042Y038012
X035151Y037096
X039823Y038612
X040266Y041545
X040039Y042277
X039931Y043248
X038986Y042630
X037244Y043412
X041834Y043629
X041673Y042372
X044705Y042779
X045219Y041929
X046427Y042874
X047470Y042865
X048402Y042884
X048278Y041909
X047726Y042011
X049213Y041487
X049144Y040922
X049002Y039492
X048917Y038219
X047510Y038205
X047012
X046250Y038257
X045807Y038242
X044924Y039203
X046299Y040750
X050571Y040699
X051152Y040817
X051683Y040423
X052244Y040472
Y040236
Y040000
Y039764
X052402Y039279
X052114Y038976
X052645Y038425
X051575Y038433
X052100Y037813
X050926Y037844
X050339Y037215
X050197Y036762
X050866Y036496
X051160Y039350
X050532Y039439
X050154Y039055
X051467Y039860
X052244Y040709
X053373Y040226
X053110Y041545
X053445Y041890
X053572Y042795
X053596Y043150
X051746Y042815
X050591Y042992
X050207Y042756
X050679Y041555
X056929Y040949
X056906Y043287
X057008Y035787
X053934Y034921
X053110Y034970
X052514Y032694
X054447Y032953
X053934Y037205
X051978Y028238
X050571Y043809
X050837Y044892
X050371Y045406
X050699Y046362
X051319Y045778
X051848Y045266
X052894Y045138
X053189
X053209Y044902
X053484Y045138
X053780
Y044646
X053484
X054488Y044373
X054696Y044154
X055039Y044291
X055588
X056378Y044419
X056181Y045512
X056693Y045463
X056772Y045974
X056457Y046291
X056220Y046575
X055866Y046801
X055354Y046971
X055502Y046200
X055827Y045866
X055195Y045512
X054843
X054397Y045315
X053681Y046585
X052770Y047460
X051457
X051419Y048914
X051575Y050157
X052061Y050196
X051976Y051181
X051634Y051181
X051539Y052174
X052087Y052165
X052532Y052283
X052411Y052581
X053051Y052500
Y052736
Y052264
Y052028
X053465Y052175
X053524Y052431
X053539Y052707
X053386Y053312
X053002Y054291
X053041Y054626
X052783Y054548
X052874Y054891
X052608Y053927
X054121Y053948
X053927Y054203
X054907Y053543
X056575Y053484
X056142Y052520
X056211Y051467
X056240Y051063
X056145Y050000
X056240Y048701
X056811Y048465
X056949Y048858
X055316Y048701
X055313Y047933
X054272Y048661
X053291Y048720
X053204Y051024
X053258Y051654
X054307Y052362
X054567Y051024
X054528Y049961
X050891Y049803
X050709Y051594
X050748Y052036
X050709Y052362
Y052666
X050738Y053543
X050718Y053885
X050640Y054238
X050433Y054474
X050305Y054823
X051978Y056978
X053425Y055712
X056878Y047126
X049026Y045689
X048053Y045709
X046299Y045710
X045197Y045784
X044646Y046965
X044724Y048307
X045512Y049094
X045906Y049530
X045945Y050669
X044646Y049957
X043740Y050422
X043317Y051372
X043297Y052141
X043386Y052793
X042770Y052864
X042313Y053346
X040779Y053484
X040177Y053448
X040254Y052862
X040020Y052864
X039783
X039429Y053474
X038845Y053425
X038201Y053916
X037278Y053998
X036210Y053228
X035489Y053156
Y053393
Y052920
Y052684
X035197Y052242
X035632Y051638
X036260Y051181
X036093Y050945
X035970Y049764
X036372Y049795
X036122Y048752
X034856Y047963
Y046483
X034779Y045640
X036683Y044400
X037215Y044656
X039008Y045620
X039793Y045610
X039767Y046608
X039045Y046577
X039787Y047530
X041020Y047539
X041260Y047165
X041845Y047047
X042444Y046821
X043032Y048101
X041834Y048373
X042047Y048602
X041477Y047992
X041601Y050548
X040965Y050866
X040385Y051809
X040098Y051813
X039793Y051821
X037943
X036860Y052372
X036093Y055197
X036102Y056063
X036112Y056417
X035659Y055709
X034626Y055190
X035271Y054530
X036969Y055974
X038120Y056404
X039754Y054518
X041240Y052530
X045561Y052628
X048622Y053652
X048858
X043718Y049059
X039261Y049764
X038611Y048958
X038770Y048205
X041811Y045416
X042470Y043799
X034609Y050655
X033407Y050744
X032323Y050748
X031791Y052193
X031408Y052461
X031342Y052790
X030946Y052815
X029726Y053156
X027835Y053484
X027402Y052520
X027470Y051467
X027500Y051063
X027405Y050000
X027500Y048701
X028071Y048465
X028209Y048858
X029212Y048320
X029085Y047598
Y047343
X029321Y047470
X029557Y047598
Y047343
X029577Y046447
X029321
X029065
X029193Y046211
X029449
X029577Y045974
X029321
X029065
X029193Y045738
X029449
X029321Y045502
X029577Y045502
X029065
X029085Y044606
X029085Y044350
X029321Y044478
X029557Y044606
X029557Y044350
X029705Y044990
X030010Y044823
X030974Y045936
X030974Y046260
X030827Y046703
X030591
Y046939
X030827
X030960Y047323
X030838Y047839
X030924Y048612
X032424Y048228
X032657Y047992
X032520Y047579
X032362Y047283
X032520Y046988
X032874Y045945
X033051Y044744
X033939Y048596
X034242Y048602
X029173Y050394
X025787Y049961
X025827Y051024
X024464
X024518Y051654
X024311Y052028
Y052264
Y052500
Y052736
X024799Y052707
X024783Y052431
X024724Y052175
X025567Y052362
X025381Y053948
X025187Y054203
X024262Y054291
X024301Y054626
X024043Y054548
X024134Y054891
X023868Y053927
X024646Y053312
X023671Y052581
X023792Y052283
X023346Y052165
X022799Y052174
X022008Y052036
X021969Y052362
Y052666
X021998Y053543
X021978Y053885
X021900Y054238
X021693Y054474
X021565Y054823
X020118Y053652
X019882
X021969Y051594
X022894Y051181
X023236Y051181
X023320Y050196
X022835Y050157
X022151Y049803
X022679Y048914
X022717Y047460
X024029
X024551Y048720
X025531Y048661
X026576Y048701
X026573Y047933
X026614Y046971
X027126Y046801
X027480Y046575
X027717Y046291
X028031Y045974
X027953Y045463
X027441Y045512
X027087Y045866
X026762Y046200
X026454Y045512
X026102
X025657Y045315
X025039Y045138
X024744
X024449
X024469Y044902
X024744Y044646
X025039
X025748Y044373
X025956Y044154
X026299Y044291
X026848
X027638Y044419
X028138Y047126
X024941Y046585
X024154Y045138
X023108Y045266
X022579Y045778
X021959Y046362
X021631Y045406
X022096Y044892
X021831Y043809
X020285Y045689
X019313Y045709
X026167Y053543
X024685Y055712
X023238Y056978
X016821Y052628
X014646Y052793
X014030Y052864
X013573Y053346
X012039Y053484
X011437Y053448
X011514Y052862
X011280Y052864
X011043
X010689Y053474
X010105Y053425
X009461Y053916
X008538Y053998
X007470Y053228
X006749Y053156
Y053393
Y052920
Y052684
X006457Y052242
X006892Y051638
X007520Y051181
X007352Y050945
X007230Y049764
X007632Y049795
X007382Y048752
X005502Y048602
X005199Y048596
X006116Y047963
Y046483
X006039Y045640
X004134Y045945
X004311Y044744
X003780Y046988
X003621Y047283
X003780Y047579
X003917Y047992
X003684Y048228
X003583Y050748
X004667Y050744
X005868Y050655
X008120Y052372
X009203Y051821
X011053
X011358Y051813
X011644Y051809
X012224Y050866
X012861Y050548
X015000Y050422
X015906Y049957
X017165Y049530
X016772Y049094
X015984Y048307
X015906Y046965
X016457Y045784
X017559Y045710
X013071Y045416
X013105Y047047
X012520Y047165
X012280Y047539
X012736Y047992
X013094Y048373
X013307Y048602
X014291Y048101
X014978Y049059
X014577Y051372
X014557Y052141
X012500Y052530
X011014Y054518
X009380Y056404
X008228Y055974
X007362Y056063
X007372Y056417
X006919Y055709
X007352Y055197
X005886Y055190
X006531Y054530
X003051Y052193
X010521Y049764
X009871Y048958
X010030Y048205
X011046Y047530
X011027Y046608
X010305Y046577
X010268Y045620
X011053Y045610
X008475Y044656
X007943Y044400
X013730Y043799
X013704Y046821
X017205Y050669
X002668Y052461
X002602Y052790
X002206Y052815
X000986Y053156
X000433Y050394
X000471Y048320
X000344Y047598
Y047343
X000581Y047470
X000817Y047598
Y047343
X000837Y046447
X000581
X000325
X000453Y046211
X000709
X000837Y045974
X000581
X000325
X000453Y045738
X000709
X000581Y045502
X000837Y045502
X000325
X000344Y044606
X000344Y044350
X000581Y044478
X000817Y044606
X000817Y044350
X000965Y044990
X001270Y044823
X002234Y045936
X002234Y046260
X002087Y046703
X001850
Y046939
X002087
X002220Y047323
X002098Y047839
X002183Y048612
T02
X007579Y000866
X008563
X020177
X021161
X036319
X037303
X048917
X049902
X053469Y026138
X052077Y027530
X024729Y026138
X023337Y027530
X008563Y029606
X007579
X020177
X021161
X036319
X037303
X048917
X049902
X053469Y054878
X052077Y056270
X024729Y054878
X023337Y056270
T03
X002372Y006726
Y007726
X003372
X004372
X005372
X006372
X007372
X008372
X009372
X010372
X011372
X012372
X013372
Y006726
X012372
X011372
X010372
X009372
X008372
X007372
X006372
X005372
X004372
X003372
X010644Y010370
Y011370
Y012370
X014236Y011622
X015236
Y010622
Y009622
X014236
Y010622
X031112Y007726
X032112
X033112
X034112
Y006726
X033112
X032112
X031112
X035112
Y007726
X036112
X037112
X038112
X039112
X040112
X041112
X042112
Y006726
X041112
X040112
X039112
X038112
X037112
X036112
X039384Y010370
Y011370
Y012370
X042976Y011622
X043976
Y010622
Y009622
X042976
Y010622
Y012622
X043976
Y013622
Y014622
Y015622
Y016622
Y017622
Y018622
X042976
Y017622
Y016622
Y015622
Y014622
Y013622
X039384Y013370
Y014370
Y015370
Y016370
Y017370
Y018370
X039112Y020518
Y021518
X040112
Y020518
X041112
Y021518
X042112
Y020518
X038112
Y021518
X037112
X036112
X035112
Y020518
X036112
X037112
X040409Y025404
X041311
X042112Y026352
X042911
X043711
X044510
X044909Y025404
X045811
X044108Y027352
X043309
X042510
X041711
X034112Y021518
X033112
X032112
X031112
Y020518
X032112
X033112
X034112
X013372
X012372
X011372
Y021518
X010372
X009372
X008372
X007372
X006372
X005372
X004372
X003372
Y020518
X004372
X005372
X006372
X007372
X008372
X009372
X010372
X010644Y018370
Y017370
Y016370
Y015370
Y014370
Y013370
X014236Y013622
X015236
Y012622
X014236
Y014622
X015236
Y015622
Y016622
Y017622
Y018622
X014236
Y017622
Y016622
Y015622
X013372Y021518
X012372
X012571Y025404
X011669
X013372Y026352
X014171
X014970
X015770
X016169Y025404
X017071
X015368Y027352
X014569
X013770
X012970
X002372Y021518
Y020518
Y035467
Y036467
X003372
X004372
X005372
X006372
X007372
X008372
X009372
X010372
X011372
X012372
X013372
Y035467
X012372
X011372
X010372
X009372
X008372
X007372
X006372
X005372
X004372
X003372
X010644Y039110
Y040110
Y041110
Y042110
Y043110
X014236Y043362
X015236
Y042362
Y041362
Y040362
Y039362
Y038362
X014236
Y039362
Y040362
Y041362
Y042362
X031112Y036467
X032112
X033112
X034112
Y035467
X033112
X032112
X031112
X035112
Y036467
X036112
X037112
X038112
X039112
X040112
X041112
X042112
Y035467
X041112
X040112
X039112
X038112
X037112
X036112
X039384Y039110
Y040110
Y041110
Y042110
Y043110
X042976Y043362
X043976
Y042362
Y041362
Y040362
Y039362
Y038362
X042976
Y039362
Y040362
Y041362
Y042362
Y044362
X043976
Y045362
Y046362
Y047362
X042976
Y046362
Y045362
X039384Y045110
Y046110
Y047110
X039112Y049258
Y050258
X040112
Y049258
X041112
Y050258
X042112
Y049258
X038112
Y050258
X037112
X036112
X035112
Y049258
X036112
X037112
X039384Y044110
X040409Y054144
X041311
X042112Y055093
X042911
X043711
X044510
X044909Y054144
X045811
X044108Y056093
X043309
X042510
X041711
X034112Y050258
X033112
X032112
X031112
Y049258
X032112
X033112
X034112
X013372
X012372
X011372
Y050258
X010372
X009372
X008372
X007372
X006372
X005372
X004372
X003372
Y049258
X004372
X005372
X006372
X007372
X008372
X009372
X010372
X010644Y047110
Y046110
Y045110
Y044110
X014236Y044362
X015236
Y045362
Y046362
Y047362
X014236
Y046362
Y045362
X013372Y050258
X012372
X012571Y054144
X011669
X013372Y055093
X014171
X014970
X015770
X016169Y054144
X017071
X015368Y056093
X014569
X013770
X012970
X002372Y050258
Y049258
T04
X004815Y000787
X005815
X007386Y002087
Y003087
Y004087
Y005087
X008386
Y004087
Y003087
Y002087
X010573Y002083
Y003083
Y004083
Y005083
X011573
Y004083
Y003083
Y002083
X016850Y002085
Y003085
Y004085
Y005085
X022925Y000787
X023925
X033555
X034555
X036126Y002087
Y003087
Y004087
Y005087
X037126
Y004087
Y003087
Y002087
X039313Y002083
Y003083
Y004083
Y005083
X040313
Y004083
Y003083
Y002083
X045591Y002085
Y003085
Y004085
Y005085
X051665Y000787
X052665
X032400Y012919
Y013919
Y014919
Y015919
X031400
Y014919
Y013919
Y012919
X030618Y022531
X029618
Y023531
X030618
X033219Y024020
Y023020
X034219
Y024020
Y025020
X033219
Y026020
X034219
Y027020
X033219
Y028020
X034219
X005478
Y027020
Y026020
Y025020
Y024020
Y023020
X004478
Y024020
Y025020
Y026020
Y027020
Y028020
X003659Y015919
Y014919
Y013919
Y012919
X002659
Y013919
Y014919
Y015919
X001878Y022531
X000878
Y023531
X001878
X002659Y041659
Y042659
Y043659
X003659
Y042659
Y041659
X007386Y033827
X008386
Y032827
X007386
Y031827
X008386
Y030827
X007386
X005815Y029528
X004815
X010573Y030823
Y031823
Y032823
Y033823
X011573
Y032823
Y031823
Y030823
X016850Y030825
Y031825
Y032825
Y033825
X022925Y029528
X023925
X033555
X032400Y041659
Y042659
Y043659
X031400
Y042659
Y041659
X036126Y033827
X037126
Y032827
X036126
Y031827
X037126
Y030827
X036126
X034555Y029528
X039313Y030823
Y031823
Y032823
Y033823
X040313
Y032823
Y031823
Y030823
X045591Y030825
Y031825
Y032825
Y033825
X051665Y029528
X052665
X032400Y044659
X031400
X030618Y051272
X029618
Y052272
X030618
X033219Y052760
Y051760
X034219
Y052760
Y053760
X033219
Y054760
X034219
Y055760
X033219
Y056760
X034219
X005478
Y055760
Y054760
Y053760
Y052760
Y051760
X004478
Y052760
Y053760
Y054760
Y055760
Y056760
X003659Y044659
X002659
X001878Y051272
X000878
Y052272
X001878
T05
X036909Y026378
X038287
X009547
X008169
X036909Y055118
X038287
X009547
X008169
T06
X040610Y027703
X045610
X016870
X011870
X040610Y056443
X045610
X016870
X011870
T07
X030167Y016447
Y018022
X001427
Y016447
X030167Y045187
Y046762
X001427
Y045187
M30
